<svg xmlns="http://www.w3.org/2000/svg" xmlns:xlink="http://www.w3.org/1999/xlink" width="64" height="64" viewBox="0 0 64 64">
  <defs>
    <clipPath id="clip-path">
      <rect id="Rectangle_21" data-name="Rectangle 21" width="64" height="64" transform="translate(1977 383)" fill="#fff"/>
    </clipPath>
  </defs>
  <g id="asia" transform="translate(-1977 -383)" clip-path="url(#clip-path)">
    <g id="asia-2" data-name="asia" transform="translate(1977 381.086)">
      <path id="Subtraction_1" data-name="Subtraction 1" d="M46.36,63.521h0a6.046,6.046,0,0,1-2.636-1.012c-3.038-1.7-3.505-4.618-3.846-6.75-.218-1.362-.383-2.2-.834-2.307a3.5,3.5,0,0,1-2.419-2.757,3.044,3.044,0,0,0-.663-1.329.937.937,0,1,1,1.205-1.436A4.462,4.462,0,0,1,38.4,50.1c.331,1,.51,1.387,1.083,1.526,1.695.412,1.973,2.151,2.242,3.832.42,2.624.847,4.31,3.239,5.59-.086-.13-.174-.261-.259-.388h0c-.259-.386-.5-.751-.666-1.048-.079-.143-1.915-3.521-.85-5.043a1.582,1.582,0,0,1,1.342-.663,2.217,2.217,0,0,1,.335.026,3.036,3.036,0,0,0,.461.036,2.4,2.4,0,0,0,2.131-1.109,9.086,9.086,0,0,0-.814-.981h0c-.908-1-2.038-2.255-1.921-3.675a2.725,2.725,0,0,1,1.125-1.928,7.2,7.2,0,0,1,3.973-1.529c1.028-.128,1.084-.2,1.183-.492a7.859,7.859,0,0,1,1.106-2.028,3.1,3.1,0,0,0,.834-2.335c-.252-1.949-.506-3.2-2.481-4.364a3.031,3.031,0,0,1-1.683-3.085c.239-1.6,1.794-2.939,4.056-3.482a2.367,2.367,0,0,0,1.451-.727c.2-.35-.026-1.048-.262-1.787-.109-.342-.222-.695-.312-1.066a4.888,4.888,0,0,1,.061-2.4,1.853,1.853,0,0,0-.339-1.92c-.031.243-.07.486-.116.723.006-.348.012-.631.032-.841A1.887,1.887,0,0,0,53,19.788a8.368,8.368,0,0,0-.813-1.041h0c-.177-.2-.344-.4-.457-.557a2.908,2.908,0,0,1-.314-1.176,3.1,3.1,0,0,0-.692-1.889,2.257,2.257,0,0,1-.335-2.193,5.489,5.489,0,0,0,.1-.726,1.573,1.573,0,0,0-.072-.514c.507-.153.791-.273.935-.505a2.11,2.11,0,0,0,.118-1.167c-.038-.73-.11-2.09,1.291-2.544a5.469,5.469,0,0,0-.2-1.337v0a5.282,5.282,0,0,1,.048-3.616,5.42,5.42,0,0,0-2.4-.6c-.358-.03-.73-.045-1.107-.045a11.751,11.751,0,0,0-3.028.365c-.028.008-.055.014-.082.019a1.539,1.539,0,0,0-.883.549,1.084,1.084,0,0,0-.083.849l.022.1a7.489,7.489,0,0,1,.293,2.537,3.259,3.259,0,0,1-1.461,2.231.616.616,0,0,0-.316.4,1.015,1.015,0,0,1-.356.506,2.519,2.519,0,0,1-1.216.349c-2.014.192-6.315,2.231-7.654,2.951a10.99,10.99,0,0,0-1.3.822c.1-.155.207-.308.314-.456-.45.173-.864.308-1.23.427a3.857,3.857,0,0,0-1.416.629c-.145.15-.339.472-.339,1.525a2.382,2.382,0,0,1-.749,1.88,2.943,2.943,0,0,1-2.048.622A15.69,15.69,0,0,1,25.634,18a15.433,15.433,0,0,0-1.912-.173,8.227,8.227,0,0,0-2.425.455,7.563,7.563,0,0,1-2.167.38,9.326,9.326,0,0,1-2.815-.536,6.467,6.467,0,0,0-1.911-.345,2.546,2.546,0,0,0-2.543,1.807,2.976,2.976,0,0,0,.361,2.081,8.449,8.449,0,0,1,.571,1.875,3.2,3.2,0,0,1-.358,2.068,6.059,6.059,0,0,1-1.519,1.732c-.246.208-.525.444-.559.569-.006.024-.05.258.408.975a2.184,2.184,0,0,1,.33,2.218,1.483,1.483,0,0,1-.641.605,2.192,2.192,0,0,1-.984.216c-.063,0-.127,0-.192-.007A4.052,4.052,0,0,1,5.971,29.76a4.854,4.854,0,0,0-1.517-1.785,3.464,3.464,0,0,0-1.58-.793l-.042,0a1.922,1.922,0,0,0-.639,1.431.889.889,0,0,0,.566.767c1.5.778,2.353,1.766,2.4,2.782a1.733,1.733,0,0,1-.218.965,1.952,1.952,0,0,1-.622.637,5.683,5.683,0,0,1-1.616.642c-.2.055-.372.1-.5.152a6,6,0,0,1-.138,1.518,6.676,6.676,0,0,0,.064,3.406,9.979,9.979,0,0,1-.007,4.36,7.272,7.272,0,0,0,.051,3.815,1,1,0,0,0,.26.381.731.731,0,0,0,.473.126,9,9,0,0,0,1.609-.26h0a17.246,17.246,0,0,1,3.819-.5c.309,0,.622.011.93.034.246.018.484.027.708.027a3.6,3.6,0,0,0,2.437-.642A24.333,24.333,0,0,1,9.22,45.174,5.622,5.622,0,0,1,7.068,38.83a3.4,3.4,0,0,1,.341-.733,2.421,2.421,0,0,1,.459-.543,1.873,1.873,0,0,1,.556-.337,1.759,1.759,0,0,1,.632-.116,1.928,1.928,0,0,1,.2.01,2.679,2.679,0,0,1,2.167,1.718,3,3,0,0,0,1.647,1.627,5.659,5.659,0,0,1,2.425,2.023,4.484,4.484,0,0,0,3.588,2.1c3.106.311,3.162,2.406,3.207,4.089a5.666,5.666,0,0,0,1.046,3.763,5.951,5.951,0,0,1,1.65,3.723c0,.051.009.135.016.194a3.093,3.093,0,0,0,.588.209.523.523,0,0,0,.132.026c.085,0,.151-.059.264-.235a8.124,8.124,0,0,0,.674-1.814c.437-1.485.932-3.168,2.355-3.746a3.717,3.717,0,0,0,1.48-1.281l0,0a7.9,7.9,0,0,1,1.1-1.163.938.938,0,1,1,1.191,1.448,6.362,6.362,0,0,0-.841.9,5.451,5.451,0,0,1-2.225,1.83c-.585.238-.96,1.513-1.262,2.538a9.056,9.056,0,0,1-.895,2.3,2.436,2.436,0,0,1-.911.873,1.974,1.974,0,0,1-.919.22,2.416,2.416,0,0,1-.645-.09c-1.576-.438-1.9-1.044-1.973-2.08a4.2,4.2,0,0,0-1.235-2.67,7.478,7.478,0,0,1-1.465-4.895c-.047-1.756-.106-2.133-1.519-2.274a6.134,6.134,0,0,1-4.772-2.686,4.725,4.725,0,0,0-1.778-1.569,4.841,4.841,0,0,1-2.576-2.471c-.332-.619-.408-.7-.681-.735a1.083,1.083,0,0,0-.236.432,3.274,3.274,0,0,0-.157,1.023,3.638,3.638,0,0,0,1.491,3.132,15.7,15.7,0,0,0,3.728,1.8.924.924,0,0,1,.539.34.945.945,0,0,1,.193.61,2.858,2.858,0,0,1-.987,1.9,5.385,5.385,0,0,1-3.686,1.122c-.268,0-.55-.011-.838-.031-.257-.019-.519-.028-.779-.028a15.665,15.665,0,0,0-3.438.454h0a9.82,9.82,0,0,1-2,.3,2.649,2.649,0,0,1-1.366-.327A2.7,2.7,0,0,1,.479,48.457a5.5,5.5,0,0,1-.454-2.427A19.329,19.329,0,0,1,.28,43.47a8.2,8.2,0,0,0,.068-3.407,8.461,8.461,0,0,1-.129-4.3v0a4.406,4.406,0,0,0,.112-1.073,1.545,1.545,0,0,1,.743-1.65,4.847,4.847,0,0,1,1.257-.473,3.322,3.322,0,0,0,.946-.352A2.882,2.882,0,0,0,1.9,31.047a2.76,2.76,0,0,1-1.573-2.3,3.75,3.75,0,0,1,1.46-3.12,1.8,1.8,0,0,1,1.055-.316,2.86,2.86,0,0,1,.773.115A7.249,7.249,0,0,1,7.7,29.03a1.584,1.584,0,0,0,.679.673,2.908,2.908,0,0,0,.892.336c-.026-.047-.054-.092-.083-.139-1.357-2.123-.529-3.1.518-3.984a4.289,4.289,0,0,0,1.089-1.207c.357-.647.05-1.424-.305-2.324a4.471,4.471,0,0,1-.35-3.533,5.114,5.114,0,0,1,1.459-2.01,4.368,4.368,0,0,1,2.817-.927,8.254,8.254,0,0,1,2.468.426,7.615,7.615,0,0,0,2.246.447,5.7,5.7,0,0,0,1.655-.307,10.085,10.085,0,0,1,2.917-.528,17.65,17.65,0,0,1,2.172.189h0a15.11,15.11,0,0,0,1.735.155,1.274,1.274,0,0,0,.775-.155c.1-.09.113-.36.113-.473A3.8,3.8,0,0,1,29.41,12.8a5.537,5.537,0,0,1,2.244-1.1c.4-.132.822-.268,1.252-.443a5.445,5.445,0,0,1,2.086-.4c.159,0,.325.006.491.018a10.986,10.986,0,0,1,2.424-1.451,11.125,11.125,0,0,1,2.724-.788,4.2,4.2,0,0,1,1.4-1.161c1.73-.939,1.648-1.3,1.193-3.311l-.022-.1a2.9,2.9,0,0,1,.349-2.3A3.031,3.031,0,0,1,44.714.747,3.729,3.729,0,0,1,45.6.422,13.824,13.824,0,0,1,49.114,0a12.369,12.369,0,0,1,3.014.336,5.608,5.608,0,0,1,1.2.444,2.553,2.553,0,0,1,.827.648,1.676,1.676,0,0,1,.132,1.931,3.885,3.885,0,0,0,.1,2.363,6.751,6.751,0,0,1,.25,1.8,1.807,1.807,0,0,1-1.294,1.737,3.8,3.8,0,0,0,0,.663,4.564,4.564,0,0,1-.156,1.737,2.487,2.487,0,0,1-.538.905,3.1,3.1,0,0,1-1.1.731,10.986,10.986,0,0,1,1.337,2.6,11.123,11.123,0,0,1,.605,2.882,3.44,3.44,0,0,1,1.4,1.1,3.682,3.682,0,0,1,.711,3.507,3.122,3.122,0,0,0-.069,1.551c.074.306.176.626.275.935a4.028,4.028,0,0,1,.11,3.278,3.847,3.847,0,0,1-2.648,1.63c-1.684.4-2.539,1.263-2.639,1.935a1.272,1.272,0,0,0,.779,1.193c2.656,1.563,3.094,3.444,3.39,5.741a4.84,4.84,0,0,1-1.151,3.641h0a6.183,6.183,0,0,0-.868,1.554c-.493,1.48-1.733,1.635-2.729,1.759a5.422,5.422,0,0,0-3.039,1.136c-.4.317-.417.54-.423.614-.05.612.813,1.567,1.443,2.264h0c.855.946,1.593,1.763,1.26,2.708a3.342,3.342,0,0,1-.592,1.032,3.872,3.872,0,0,1-.917.794,4.45,4.45,0,0,1-1.155.51,4.788,4.788,0,0,1-1.305.18,4.9,4.9,0,0,1-.607-.038,7.816,7.816,0,0,0,.963,2.9c.192.349.442.716.706,1.1A9.441,9.441,0,0,1,47.433,61.6a1.941,1.941,0,0,1,.15.822,1.134,1.134,0,0,1-.311.715A1.174,1.174,0,0,1,46.36,63.521Z" transform="translate(0 1.914)" fill="#e9b237"/>
      <path id="Path_446" data-name="Path 446" d="M453.39,180.605c2.414.924,4.095-.123,4.522-1.832a2.465,2.465,0,0,0-.361-1.743,1.883,1.883,0,0,1-.161-1.942c.085-.175.171-.345.256-.511a.938.938,0,0,0-1.671-.851c-.089.175-.18.354-.27.539a3.712,3.712,0,0,0,.165,3.6,3.179,3.179,0,0,1,.214.489c-.256.9-1.149.837-2.024.5-.5-.191-.6-.29-.24-1.724a5.4,5.4,0,0,0,.237-2.2c-.069-.4.3-.95.7-1.531a3.9,3.9,0,0,0,.969-3.135,2.245,2.245,0,0,1,.4-1.981,8.8,8.8,0,0,0,.773-4.034,6.466,6.466,0,0,1,.443,3.008,22.322,22.322,0,0,1,.022,2.666.938.938,0,0,0,1.866.178,22.784,22.784,0,0,0-.014-2.883c-.042-2.089-.079-3.893-1.774-5.056a1.453,1.453,0,0,0-1.542-.221c-.8.4-.841,1.358-.89,2.568a6.99,6.99,0,0,1-.467,2.764,4.1,4.1,0,0,0-.635,3.446c.109.436-.284,1.014-.7,1.626a3.98,3.98,0,0,0-1,2.9,4.1,4.1,0,0,1-.207,1.427c-.293,1.16-.783,3.1,1.387,3.933Z" transform="translate(-395.274 -139.909)" fill="#e9b237"/>
    </g>
  </g>
</svg>
