<svg xmlns="http://www.w3.org/2000/svg" xmlns:xlink="http://www.w3.org/1999/xlink" width="69" height="69" viewBox="0 0 69 69">
  <defs>
    <clipPath id="clip-path">
      <rect id="Rectangle_29" data-name="Rectangle 29" width="69" height="69" transform="translate(1921 1104)" fill="#fff"/>
    </clipPath>
  </defs>
  <g id="Automotive" transform="translate(-1921 -1104)" clip-path="url(#clip-path)">
    <g id="car" transform="translate(1921 1123.646)">
      <g id="Group_158" data-name="Group 158">
        <path id="Path_491" data-name="Path 491" d="M48.029,36.456a1.011,1.011,0,0,0-.6,1.132.962.962,0,0,0,.152.363,1.008,1.008,0,0,0,1.554.155,1.017,1.017,0,0,0,.3-.715A1.031,1.031,0,0,0,48.029,36.456Z" transform="translate(7.111 -14.188)" fill="#fff"/>
        <path id="Path_492" data-name="Path 492" d="M37.248,28.994a1.012,1.012,0,0,0,0,2.023h1.277a1.012,1.012,0,0,0,0-2.023Z" transform="translate(5.435 -15.297)" fill="#fff"/>
        <path id="Path_493" data-name="Path 493" d="M10.415,38.365a1.027,1.027,0,0,0,.913-.277,1.017,1.017,0,0,0,.3-.715,1.031,1.031,0,0,0-1.4-.935,1.01,1.01,0,0,0-.6,1.132.962.962,0,0,0,.152.363A1.037,1.037,0,0,0,10.415,38.365Z" transform="translate(1.441 -14.191)" fill="#fff"/>
        <path id="Path_494" data-name="Path 494" d="M64.893,27.743a1.012,1.012,0,1,0-.489,1.963,3.386,3.386,0,0,1,2.51,2.654H65.132a1.012,1.012,0,1,0,0,2.023h1.845v3.927a.945.945,0,0,1-.944.944H61.974a6.525,6.525,0,0,0-12.893,0H18.5a6.532,6.532,0,0,0-7.761-5.381,1.012,1.012,0,1,0,.406,1.982A4.5,4.5,0,1,1,8.164,38a1.012,1.012,0,0,0-1.746-1.022,6.487,6.487,0,0,0-.378.756L2.594,36.248a.943.943,0,0,1-.57-.867V31.574H4.39a1.012,1.012,0,0,0,0-2.023H2.023v-1.4a.948.948,0,0,1,.746-.923l4.724-1.01a11.372,11.372,0,0,0,3.571-1.426l2.32-1.42,4.19,3.4a7.762,7.762,0,0,0,4.879,1.732H56.189l3.771.541a1.012,1.012,0,0,0,.287-2l-3.663-.526L40.414,17.878a6.758,6.758,0,0,0-3.174-.795H21.678a6.729,6.729,0,0,0-3.516.991l-8.153,4.992a9.356,9.356,0,0,1-2.937,1.173l-4.724,1.01A2.982,2.982,0,0,0,0,28.151v7.23a2.964,2.964,0,0,0,1.794,2.725l3.76,1.619c-.015.18-.025.36-.025.541A6.525,6.525,0,0,0,18.5,41.278H49.081a6.525,6.525,0,0,0,12.893,0h4.059A2.97,2.97,0,0,0,69,38.311V33a5.409,5.409,0,0,0-4.107-5.259Zm-28.5-8.636h.845a4.727,4.727,0,0,1,2.22.556l12.765,6.822H36.395Zm-12.748,0H34.371v7.378H23.647Zm-4.429.693a4.706,4.706,0,0,1,2.405-.691v7.314a5.734,5.734,0,0,1-2.773-1.217l-3.636-2.955ZM55.528,44.768a4.5,4.5,0,1,1,4.5-4.5A4.507,4.507,0,0,1,55.528,44.768Z" transform="translate(0 -17.084)" fill="#fff"/>
      </g>
    </g>
  </g>
</svg>
