<svg xmlns="http://www.w3.org/2000/svg" xmlns:xlink="http://www.w3.org/1999/xlink" width="69" height="69" viewBox="0 0 69 69">
  <defs>
    <clipPath id="clip-path">
      <rect id="Rectangle_29" data-name="Rectangle 29" width="69" height="69" transform="translate(1761 1104)" fill="#fff"/>
    </clipPath>
  </defs>
  <g id="Banking_Financial_services_Insurance" data-name="Banking, Financial services &amp; Insurance" transform="translate(-1761 -1104)" clip-path="url(#clip-path)">
    <g id="bank" transform="translate(1761 1104.014)">
      <path id="Path_478" data-name="Path 478" d="M36.561,40.038a1.011,1.011,0,1,0,2.021,0,2.975,2.975,0,0,0-3.072-3.084v-.559a1.011,1.011,0,0,0-2.021,0v.559a2.973,2.973,0,0,0-3.072,3.084V41.42A2.974,2.974,0,0,0,33.489,44.5v3.507a.959.959,0,0,1-1.05-1.063,1.011,1.011,0,0,0-2.021,0,2.978,2.978,0,0,0,3.072,3.084v.559a1.011,1.011,0,0,0,2.021,0v-.559a2.984,2.984,0,0,0,3.072-3.084V45.566a2.973,2.973,0,0,0-3.072-3.084V38.975a.963.963,0,0,1,1.05,1.063Zm-3.072,2.445a.959.959,0,0,1-1.05-1.063V40.038a.966.966,0,0,1,1.05-1.063Zm3.072,3.084v1.382c-.008.664-.487,1.169-1.05,1.063V44.5A.962.962,0,0,1,36.561,45.567Zm2.589-34.8A4.649,4.649,0,1,0,34.5,15.415,4.655,4.655,0,0,0,39.149,10.765Zm-7.277,0A2.628,2.628,0,1,1,34.5,13.393,2.631,2.631,0,0,1,31.872,10.765ZM34.5,31.912A11.581,11.581,0,1,0,46.081,43.493,11.595,11.595,0,0,0,34.5,31.912Zm0,21.141a9.56,9.56,0,1,1,9.56-9.56,9.571,9.571,0,0,1-9.56,9.56ZM64.468,26.088A4.14,4.14,0,0,0,69,22.045V19.013a1.015,1.015,0,0,0-.531-.89L36.95.65a5.024,5.024,0,0,0-4.9,0L19.333,7.7a1.011,1.011,0,0,0,.98,1.768L33.03,2.418a3.015,3.015,0,0,1,2.94,0L64.081,18H4.919l11.223-6.222a1.011,1.011,0,0,0-.98-1.768L.531,18.123a1.025,1.025,0,0,0-.531.89v3.032a4.1,4.1,0,0,0,4.532,4.043l3.554,5V55.9l-3.554,5H2.359A2.361,2.361,0,0,0,0,63.257v3.369a2.361,2.361,0,0,0,2.358,2.358H66.641A2.361,2.361,0,0,0,69,66.626V63.257A2.361,2.361,0,0,0,66.641,60.9H64.468l-3.554-5V31.091ZM4.043,24.067a2.024,2.024,0,0,1-2.021-2.021V20.024H66.978v2.021a2.024,2.024,0,0,1-2.021,2.021Zm47.74,20.295a1.011,1.011,0,0,0,1.011-1.011V31.779h6.1V55.208h-6.1v-7.14a1.011,1.011,0,1,0-2.021,0V55.9l-3.554,5H21.781l-3.554-5V31.091l3.554-5H47.219l3.554,5V43.35A1.011,1.011,0,0,0,51.783,44.361ZM7.012,26.088H19.3l-2.607,3.669H9.619Zm9.194,5.691V55.208h-6.1V31.779ZM9.619,57.229h7.076L19.3,60.9H7.012ZM66.641,62.92a.337.337,0,0,1,.337.337v3.369a.337.337,0,0,1-.337.337H2.359a.337.337,0,0,1-.337-.337V63.257a.337.337,0,0,1,.337-.337ZM61.988,60.9H49.7l2.607-3.669h7.076ZM59.381,29.758H52.305L49.7,26.088h12.29Z" transform="translate(0 -0.012)" fill="#fff"/>
    </g>
  </g>
</svg>
