<svg xmlns="http://www.w3.org/2000/svg" xmlns:xlink="http://www.w3.org/1999/xlink" width="69" height="69" viewBox="0 0 69 69">
  <defs>
    <clipPath id="clip-path">
      <rect id="Rectangle_29" data-name="Rectangle 29" width="69" height="69" transform="translate(1841 1104)" fill="#fff"/>
    </clipPath>
  </defs>
  <g id="Cosnumer_Packed_Goods" data-name="Cosnumer Packed Goods" transform="translate(-1841 -1104)" clip-path="url(#clip-path)">
    <g id="box_1_" data-name="box (1)" transform="translate(1841 1107.773)">
      <g id="Group_157" data-name="Group 157" transform="translate(0 15.007)">
        <path id="Path_479" data-name="Path 479" d="M30.141,62.344a1.078,1.078,0,0,1-1.078-1.078V31.053a1.1,1.1,0,0,1,.021-.186,1.073,1.073,0,0,1,.3-.554,1.139,1.139,0,0,1,.121-.1,1.048,1.048,0,0,1,.261-.141L56.694,19.3a1.078,1.078,0,0,1,1.218.3l6.47,7.547a1.079,1.079,0,0,1-.37,1.681L58.172,31.5V48.329a1.077,1.077,0,0,1-.612.972L30.607,62.238a1.068,1.068,0,0,1-.466.106Zm1.078-28.4V59.553l24.8-11.9V32.49L38.145,40.684a1.08,1.08,0,0,1-1.26-.27Zm.736-2.432,6.021,6.875,18.658-8.553.022-.011,5.158-2.365-5.036-5.875Z" transform="translate(4.359 -15.897)" fill="#fff"/>
        <path id="Path_480" data-name="Path 480" d="M33.655,60.975a1.068,1.068,0,0,1-.465-.106L6.237,47.931a1.077,1.077,0,0,1-.612-.972V29.429a1.078,1.078,0,1,1,2.156,0V46.281L34.123,58.925a1.078,1.078,0,0,1-.467,2.05Z" transform="translate(0.843 -14.528)" fill="#fff"/>
        <path id="Path_481" data-name="Path 481" d="M26.953,40.782a1.075,1.075,0,0,1-.45-.1L.628,28.811a1.079,1.079,0,0,1-.367-1.683l6.487-7.533a1.077,1.077,0,0,1,1.218-.3L34.9,30.077a1.078,1.078,0,0,1,.411,1.711l-7.547,8.625A1.078,1.078,0,0,1,26.953,40.782ZM2.83,27.448l23.842,10.94,6.014-6.875L7.88,21.585Z" transform="translate(-0.001 -15.898)" fill="#fff"/>
        <path id="Path_482" data-name="Path 482" d="M6.722,21.746a1.078,1.078,0,0,1-.435-2.065l6.458-2.846a1.078,1.078,0,1,1,.868,1.973L7.155,21.655A1.073,1.073,0,0,1,6.722,21.746Z" transform="translate(0.846 -16.269)" fill="#fff"/>
        <path id="Path_483" data-name="Path 483" d="M54.562,21.808a1.083,1.083,0,0,1-.435-.092q-1.883-.834-3.771-1.659T46.58,18.4a1.079,1.079,0,0,1,.872-1.973q1.883.834,3.771,1.659T55,19.744a1.078,1.078,0,0,1-.437,2.065Z" transform="translate(6.89 -16.331)" fill="#fff"/>
      </g>
      <path id="Path_484" data-name="Path 484" d="M27.328,32.274A1.078,1.078,0,0,1,26.25,31.2V18.469a1.077,1.077,0,0,1,.737-1.022L49.628,9.9a1.077,1.077,0,0,1,1.419,1.022v13.8a1.078,1.078,0,1,1-2.156,0v-12.3L28.407,19.246V31.2a1.078,1.078,0,0,1-1.078,1.078Z" transform="translate(3.937 -2.297)" fill="#fff"/>
      <path id="Path_485" data-name="Path 485" d="M12.343,25.376A1.079,1.079,0,0,1,11.265,24.3L11.25,10.923a1.077,1.077,0,0,1,1.51-.989l17.25,7.547a1.078,1.078,0,1,1-.863,1.975L13.409,12.571,13.421,24.3a1.078,1.078,0,0,1-1.077,1.079Z" transform="translate(1.687 -2.297)" fill="#fff"/>
      <path id="Path_486" data-name="Path 486" d="M52.219,12.985a1.08,1.08,0,0,1-.356-.06L30.688,5.512,12.739,12.9a1.078,1.078,0,1,1-.821-1.994L30.246,3.362a1.08,1.08,0,0,1,.766-.021l21.563,7.547a1.078,1.078,0,0,1-.356,2.1Z" transform="translate(1.687 -3.281)" fill="#fff"/>
      <path id="Path_487" data-name="Path 487" d="M32.953,51.8a1.078,1.078,0,0,1-.424-2.069l7.547-3.234a1.078,1.078,0,1,1,.849,1.982L33.378,51.71a1.06,1.06,0,0,1-.424.087Z" transform="translate(4.781 3.188)" fill="#fff"/>
      <path id="Path_488" data-name="Path 488" d="M32.953,48.047a1.078,1.078,0,0,1-.424-2.069l7.547-3.234a1.078,1.078,0,0,1,.849,1.982L33.378,47.96a1.06,1.06,0,0,1-.424.087Z" transform="translate(4.781 2.625)" fill="#fff"/>
      <path id="Path_489" data-name="Path 489" d="M27.094,50.485a1.073,1.073,0,0,1-.4-.077L21.3,48.252a1.078,1.078,0,0,1-.678-1V41.86a1.078,1.078,0,0,1,1.478-1l5.391,2.156a1.079,1.079,0,0,1,.678,1v5.391A1.078,1.078,0,0,1,27.094,50.485Zm-4.313-3.964,3.234,1.293V44.746l-3.234-1.294Z" transform="translate(3.093 2.344)" fill="#fff"/>
      <path id="Path_490" data-name="Path 490" d="M38.132,31.462a1.077,1.077,0,0,1-1.078-1.078V16.413L19.559,8.754a1.078,1.078,0,1,1,.865-1.975l18.14,7.942a1.078,1.078,0,0,1,.645.988V30.384a1.078,1.078,0,0,1-1.078,1.078Z" transform="translate(2.836 -2.77)" fill="#fff"/>
    </g>
  </g>
</svg>
