<svg xmlns="http://www.w3.org/2000/svg" xmlns:xlink="http://www.w3.org/1999/xlink" width="69" height="69" viewBox="0 0 69 69">
  <defs>
    <clipPath id="clip-path">
      <rect id="Rectangle_29" data-name="Rectangle 29" width="69" height="69" transform="translate(2001 1104)" fill="#fff"/>
    </clipPath>
  </defs>
  <g id="Fintech" transform="translate(-2001 -1104)" clip-path="url(#clip-path)">
    <g id="fintech-2" data-name="fintech" transform="translate(2005.045 1104)">
      <path id="Path_495" data-name="Path 495" d="M18.377,56.672H26.26a.943.943,0,1,0,0-1.887H18.377a.943.943,0,0,0,0,1.887Z" transform="translate(-1.428 8.218)" fill="#fff"/>
      <path id="Path_496" data-name="Path 496" d="M35.047,3.574H32.824a.943.943,0,0,0,0,1.887h2.224a.943.943,0,0,0,0-1.887Z" transform="translate(0.739 0.536)" fill="#fff"/>
      <path id="Path_497" data-name="Path 497" d="M63.484,18.059H45.293V3.1A3.1,3.1,0,0,0,42.2,0H6.617a3.1,3.1,0,0,0-3.1,3.1V65.9a3.1,3.1,0,0,0,3.1,3.1H42.193a3.1,3.1,0,0,0,3.1-3.1V49.189l4.842-4.842H63.482a.943.943,0,0,0,.943-.943V19a.943.943,0,0,0-.941-.943ZM25.219,44.349H38.566l4.84,4.842v9.7H5.4V10.107h38v7.951H25.219a.943.943,0,0,0-.943.943v24.4a.943.943,0,0,0,.943.943ZM5.4,3.1A1.215,1.215,0,0,1,6.615,1.887H42.193A1.215,1.215,0,0,1,43.406,3.1V8.221H5.4Zm38,62.8a1.214,1.214,0,0,1-1.213,1.213H6.615A1.215,1.215,0,0,1,5.4,65.9V60.779h38ZM62.543,42.462h-12.8a.943.943,0,0,0-.667.277l-4.728,4.728-4.728-4.728a.943.943,0,0,0-.667-.277H26.163V19.945h36.38Z" transform="translate(-3.516)" fill="#fff"/>
      <path id="Path_498" data-name="Path 498" d="M30.087,25.158h3.769a.943.943,0,1,0,0-1.887H31.822V21.866a.943.943,0,0,0-1.887,0v1.413A3.129,3.129,0,0,0,26.959,26.4v1.639a.943.943,0,0,0,.943.943h5.01v.695a1.243,1.243,0,0,1-1.24,1.24H27.9a.943.943,0,0,0,0,1.887h2.033v1.46a.943.943,0,0,0,1.887,0V32.8A3.129,3.129,0,0,0,34.8,29.676V28.038a.943.943,0,0,0-.943-.943h-5.01v-.7a1.243,1.243,0,0,1,1.241-1.241Z" transform="translate(0.001 3.138)" fill="#fff"/>
      <path id="Path_499" data-name="Path 499" d="M38.2,21.866a.943.943,0,0,0,.943.943H53.369a.943.943,0,1,0,0-1.887H39.149a.943.943,0,0,0-.946.943Z" transform="translate(1.688 3.138)" fill="#fff"/>
      <path id="Path_500" data-name="Path 500" d="M53.37,26.29H39.148a.943.943,0,0,0,0,1.887H53.37a.943.943,0,1,0,0-1.887Z" transform="translate(1.688 3.943)" fill="#fff"/>
      <path id="Path_501" data-name="Path 501" d="M46.259,31.657H39.148a.943.943,0,0,0,0,1.887h7.111a.943.943,0,1,0,0-1.887Z" transform="translate(1.688 4.748)" fill="#fff"/>
    </g>
  </g>
</svg>
