<svg xmlns="http://www.w3.org/2000/svg" xmlns:xlink="http://www.w3.org/1999/xlink" width="69" height="69" viewBox="0 0 69 69">
  <defs>
    <clipPath id="clip-path">
      <rect id="Rectangle_29" data-name="Rectangle 29" width="69" height="69" transform="translate(2081 1104)" fill="#fff"/>
    </clipPath>
  </defs>
  <g id="Healthcare" transform="translate(-2081 -1104)" clip-path="url(#clip-path)">
    <g id="heartbeat" transform="translate(2081 1110.32)">
      <g id="Group_160" data-name="Group 160" transform="translate(45.243 39.67)">
        <g id="Group_159" data-name="Group 159">
          <path id="Path_502" data-name="Path 502" d="M41.671,40.376a1.348,1.348,0,0,0-1.906.019l-.038.039a1.348,1.348,0,0,0,1.925,1.886l.038-.039A1.348,1.348,0,0,0,41.671,40.376Z" transform="translate(-39.342 -39.991)" fill="#fff"/>
        </g>
      </g>
      <g id="Group_162" data-name="Group 162" transform="translate(50.864 20.997)">
        <g id="Group_161" data-name="Group 161">
          <path id="Path_503" data-name="Path 503" d="M55.435,28.683H51.854V25.1a1.348,1.348,0,1,0-2.7,0v3.581H45.577a1.348,1.348,0,1,0,0,2.7h3.581V34.96a1.348,1.348,0,1,0,2.7,0V31.378h3.581a1.348,1.348,0,0,0,0-2.7Z" transform="translate(-44.23 -23.754)" fill="#fff"/>
        </g>
      </g>
      <g id="Group_164" data-name="Group 164">
        <g id="Group_163" data-name="Group 163">
          <path id="Path_504" data-name="Path 504" d="M61.547,21.759A18.574,18.574,0,0,0,43.28,5.5a18.012,18.012,0,0,0-12.419,4.921A18.013,18.013,0,0,0,18.443,5.5,18.687,18.687,0,0,0,0,24.378a16.527,16.527,0,0,0,1.794,6.908H1.348a1.348,1.348,0,0,0,0,2.7H3.229a76.343,76.343,0,0,0,11.925,14.5A173.707,173.707,0,0,0,30.043,61.578a1.348,1.348,0,0,0,1.637,0c.057-.044,5.761-4.418,12.083-10.378a1.348,1.348,0,1,0-1.849-1.961c-4.821,4.546-9.272,8.15-11.052,9.558A172.755,172.755,0,0,1,17.035,46.555,80.161,80.161,0,0,1,6.4,33.981H18.461a1.348,1.348,0,0,0,1.3-.976L22.111,24.8l6.521,20.891a1.348,1.348,0,0,0,2.573,0l3.611-11.573h6.016a1.348,1.348,0,0,0,0-2.7H33.824a1.348,1.348,0,0,0-1.286.946l-2.62,8.4L23.343,19.7a1.348,1.348,0,0,0-2.582.03L17.445,31.286H4.8A15.326,15.326,0,0,1,2.7,24.378,15.99,15.99,0,0,1,18.443,8.191a15.409,15.409,0,0,1,11.428,5.051,1.348,1.348,0,0,0,1.981,0A15.409,15.409,0,0,1,43.28,8.191a15.845,15.845,0,0,1,15.407,12.82,11.863,11.863,0,1,0,2.86.748ZM57.141,41.934A9.164,9.164,0,1,1,66.3,32.77,9.175,9.175,0,0,1,57.141,41.934Z" transform="translate(0 -5.496)" fill="#fff"/>
        </g>
      </g>
    </g>
  </g>
</svg>
