<svg xmlns="http://www.w3.org/2000/svg" xmlns:xlink="http://www.w3.org/1999/xlink" width="69" height="69" viewBox="0 0 69 69">
  <defs>
    <clipPath id="clip-path">
      <rect id="Rectangle_33" data-name="Rectangle 33" width="69" height="69" transform="translate(2249 1104)" fill="#fff"/>
    </clipPath>
  </defs>
  <g id="Logistics" transform="translate(-2249 -1104)" clip-path="url(#clip-path)">
    <g id="truck" transform="translate(2249 1113.775)">
      <g id="Group_166" data-name="Group 166" transform="translate(9.2 35.65)">
        <g id="Group_165" data-name="Group 165">
          <path id="Path_508" data-name="Path 508" d="M14.9,39.5a6.9,6.9,0,1,0,6.9,6.9A6.907,6.907,0,0,0,14.9,39.5Zm0,11.5a4.6,4.6,0,1,1,4.6-4.6A4.6,4.6,0,0,1,14.9,51Z" transform="translate(-8 -39.5)" fill="#fff"/>
        </g>
      </g>
      <g id="Group_168" data-name="Group 168" transform="translate(48.3 35.65)">
        <g id="Group_167" data-name="Group 167">
          <path id="Path_509" data-name="Path 509" d="M48.9,39.5a6.9,6.9,0,1,0,6.9,6.9A6.907,6.907,0,0,0,48.9,39.5Zm0,11.5a4.6,4.6,0,1,1,4.6-4.6A4.6,4.6,0,0,1,48.9,51Z" transform="translate(-42 -39.5)" fill="#fff"/>
        </g>
      </g>
      <g id="Group_170" data-name="Group 170" transform="translate(43.7 12.65)">
        <g id="Group_169" data-name="Group 169">
          <path id="Path_510" data-name="Path 510" d="M63.117,36.128l-10.35-16.1A1.15,1.15,0,0,0,51.8,19.5H39.15A1.15,1.15,0,0,0,38,20.65V49.4a1.149,1.149,0,0,0,1.15,1.15h4.6v-2.3H40.3V21.8H51.172L61,37.088V48.25H55.25v2.3h6.9A1.149,1.149,0,0,0,63.3,49.4V36.75A1.147,1.147,0,0,0,63.117,36.128Z" transform="translate(-38 -19.5)" fill="#fff"/>
        </g>
      </g>
      <g id="Group_172" data-name="Group 172" transform="translate(48.3 17.25)">
        <g id="Group_171" data-name="Group 171">
          <path id="Path_511" data-name="Path 511" d="M44.3,33.85V25.8h9.2V23.5H43.15A1.15,1.15,0,0,0,42,24.65V35a1.149,1.149,0,0,0,1.15,1.15H60.4v-2.3H44.3Z" transform="translate(-42 -23.5)" fill="#fff"/>
        </g>
      </g>
      <g id="Group_174" data-name="Group 174" transform="translate(0 4.6)">
        <g id="Group_173" data-name="Group 173">
          <path id="Path_512" data-name="Path 512" d="M44.85,12.5H1.15A1.15,1.15,0,0,0,0,13.65v36.8A1.15,1.15,0,0,0,1.15,51.6h9.2V49.3H2.3V14.8H43.7V49.3H21.85v2.3h23A1.149,1.149,0,0,0,46,50.45V13.65A1.15,1.15,0,0,0,44.85,12.5Z" transform="translate(0 -12.5)" fill="#fff"/>
        </g>
      </g>
      <g id="Group_176" data-name="Group 176" transform="translate(1.15 36.8)">
        <g id="Group_175" data-name="Group 175">
          <rect id="Rectangle_34" data-name="Rectangle 34" width="6.9" height="2.3" fill="#fff"/>
        </g>
      </g>
      <g id="Group_178" data-name="Group 178" transform="translate(24.15 36.8)">
        <g id="Group_177" data-name="Group 177">
          <rect id="Rectangle_35" data-name="Rectangle 35" width="19.55" height="2.3" fill="#fff"/>
        </g>
      </g>
      <g id="Group_180" data-name="Group 180" transform="translate(63.25 36.8)">
        <g id="Group_179" data-name="Group 179">
          <rect id="Rectangle_36" data-name="Rectangle 36" width="4.6" height="2.3" fill="#fff"/>
        </g>
      </g>
      <g id="Group_182" data-name="Group 182" transform="translate(4.6 9.2)">
        <g id="Group_181" data-name="Group 181">
          <rect id="Rectangle_37" data-name="Rectangle 37" width="40.25" height="2.3" fill="#fff"/>
        </g>
      </g>
      <g id="Group_184" data-name="Group 184" transform="translate(14.95 41.4)">
        <g id="Group_183" data-name="Group 183">
          <rect id="Rectangle_38" data-name="Rectangle 38" width="2.3" height="2.3" fill="#fff"/>
        </g>
      </g>
      <g id="Group_186" data-name="Group 186" transform="translate(54.05 41.4)">
        <g id="Group_185" data-name="Group 185">
          <rect id="Rectangle_39" data-name="Rectangle 39" width="2.3" height="2.3" fill="#fff"/>
        </g>
      </g>
      <g id="Group_188" data-name="Group 188" transform="translate(4.6)">
        <g id="Group_187" data-name="Group 187">
          <rect id="Rectangle_40" data-name="Rectangle 40" width="16.1" height="2.3" fill="#fff"/>
        </g>
      </g>
      <g id="Group_190" data-name="Group 190">
        <g id="Group_189" data-name="Group 189">
          <rect id="Rectangle_41" data-name="Rectangle 41" width="2.3" height="2.3" fill="#fff"/>
        </g>
      </g>
    </g>
  </g>
</svg>
