<svg xmlns="http://www.w3.org/2000/svg" xmlns:xlink="http://www.w3.org/1999/xlink" width="100" height="100" viewBox="0 0 100 100">
  <defs>
    <clipPath id="clip-path">
      <rect id="Rectangle_47" data-name="Rectangle 47" width="100" height="100" transform="translate(579 2267)" fill="#fff"/>
    </clipPath>
  </defs>
  <g id="Managed_Outsourcing" data-name="Managed Outsourcing" transform="translate(-579 -2267)" clip-path="url(#clip-path)">
    <g id="outsourcing" transform="translate(579 2268.042)">
      <path id="Path_530" data-name="Path 530" d="M18.75,77.084A10.429,10.429,0,0,1,8.334,66.666V62.5a10.416,10.416,0,0,1,20.833,0v4.166A10.429,10.429,0,0,1,18.75,77.084Zm0-20.834A6.257,6.257,0,0,0,12.5,62.5v4.166a6.25,6.25,0,1,0,12.5,0V62.5A6.257,6.257,0,0,0,18.75,56.25Zm0,0" fill="#fff"/>
      <path id="Path_531" data-name="Path 531" d="M12.5,97.916A18.013,18.013,0,0,1,.61,93.14,2.076,2.076,0,0,1,0,91.666V84.448a4.15,4.15,0,0,1,1.859-3.469l11.571-7.713a2.084,2.084,0,0,1,2.312,3.467L4.166,84.448v6.266A13.857,13.857,0,0,0,12.5,93.75a2.083,2.083,0,1,1,0,4.166Zm0,0" fill="#fff"/>
      <path id="Path_532" data-name="Path 532" d="M34.261,85.067l-12.5-8.334A2.086,2.086,0,0,1,20.834,75V72.916H25v.969L36.573,81.6Zm0,0" fill="#fff"/>
      <path id="Path_533" data-name="Path 533" d="M50,77.084A10.429,10.429,0,0,1,39.584,66.666V62.5a10.416,10.416,0,0,1,20.833,0v4.166A10.429,10.429,0,0,1,50,77.084ZM50,56.25a6.257,6.257,0,0,0-6.25,6.25v4.166a6.25,6.25,0,0,0,12.5,0V62.5A6.257,6.257,0,0,0,50,56.25Zm0,0" fill="#fff"/>
      <path id="Path_534" data-name="Path 534" d="M33.334,89.584A2.083,2.083,0,0,1,31.25,87.5V84.448a4.15,4.15,0,0,1,1.859-3.469l11.571-7.713a2.084,2.084,0,0,1,2.312,3.467L35.416,84.448V87.5a2.083,2.083,0,0,1-2.083,2.084Zm0,0" fill="#fff"/>
      <path id="Path_535" data-name="Path 535" d="M66.666,89.584A2.081,2.081,0,0,1,64.584,87.5V84.448L53.011,76.733a2.084,2.084,0,1,1,2.312-3.467L66.9,80.981a4.161,4.161,0,0,1,1.854,3.467V87.5a2.082,2.082,0,0,1-2.084,2.084Zm0,0" fill="#fff"/>
      <path id="Path_536" data-name="Path 536" d="M81.25,77.084A10.429,10.429,0,0,1,70.834,66.666V62.5a10.416,10.416,0,0,1,20.833,0v4.166A10.429,10.429,0,0,1,81.25,77.084Zm0-20.834A6.257,6.257,0,0,0,75,62.5v4.166a6.25,6.25,0,0,0,12.5,0V62.5A6.257,6.257,0,0,0,81.25,56.25Zm0,0" fill="#fff"/>
      <path id="Path_537" data-name="Path 537" d="M65.739,85.067,63.429,81.6,75,73.885v-.969h4.166V75a2.086,2.086,0,0,1-.927,1.733Zm0,0" fill="#fff"/>
      <path id="Path_538" data-name="Path 538" d="M87.5,97.916a2.083,2.083,0,1,1,0-4.166,13.724,13.724,0,0,0,8.334-3.027V84.448L84.261,76.733a2.084,2.084,0,1,1,2.312-3.467l11.573,7.715A4.161,4.161,0,0,1,100,84.448v7.218a2.076,2.076,0,0,1-.61,1.473A18.013,18.013,0,0,1,87.5,97.916Zm10.416-6.25h0Zm0,0" fill="#fff"/>
      <path id="Path_539" data-name="Path 539" d="M79.166,97.916H12.5a2.083,2.083,0,1,1,0-4.166H79.166a2.083,2.083,0,1,1,0,4.166Zm0,0" fill="#fff"/>
      <path id="Path_540" data-name="Path 540" d="M89.584,43.75A2.083,2.083,0,0,1,87.5,41.666a37.5,37.5,0,1,0-75,0,2.083,2.083,0,1,1-4.166,0,41.666,41.666,0,1,1,83.333,0,2.082,2.082,0,0,1-2.083,2.084Zm0,0" fill="#fff"/>
      <path id="Path_541" data-name="Path 541" d="M50,35.416a2.084,2.084,0,0,1-2.084-2.083V2.084a2.084,2.084,0,1,1,4.167,0v31.25A2.084,2.084,0,0,1,50,35.416Zm0,0" fill="#fff"/>
      <path id="Path_542" data-name="Path 542" d="M33.334,43.75H10.416a2.083,2.083,0,0,1,0-4.166H33.334a2.083,2.083,0,0,1,0,4.166Zm0,0" fill="#fff"/>
      <path id="Path_543" data-name="Path 543" d="M81.25,43.75H66.666a2.083,2.083,0,0,1,0-4.166H81.25a2.083,2.083,0,1,1,0,4.166Zm0,0" fill="#fff"/>
      <path id="Path_544" data-name="Path 544" d="M50,25A42.4,42.4,0,0,1,21.5,14.031l2.825-3.062A38.188,38.188,0,0,0,50,20.834a38.192,38.192,0,0,0,25.671-9.865l2.823,3.062A42.39,42.39,0,0,1,50,25Zm0,0" fill="#fff"/>
      <path id="Path_545" data-name="Path 545" d="M47.916,39.584h4.167V43.75H47.916Zm0,0" fill="#fff"/>
      <path id="Path_546" data-name="Path 546" d="M39.584,39.584H43.75V43.75H39.584Zm0,0" fill="#fff"/>
      <path id="Path_547" data-name="Path 547" d="M56.25,39.584h4.166V43.75H56.25Zm0,0" fill="#fff"/>
      <path id="Path_548" data-name="Path 548" d="M70.834,47.916a2.083,2.083,0,0,1-2.084-2.083V41.666c0-20.327-8.585-37.5-18.75-37.5s-18.75,17.173-18.75,37.5v4.167a2.083,2.083,0,0,1-4.166,0V41.666C27.084,18.3,37.15,0,50,0S72.916,18.3,72.916,41.666v4.167a2.082,2.082,0,0,1-2.083,2.083Zm0,0" fill="#fff"/>
    </g>
  </g>
</svg>
