<svg xmlns="http://www.w3.org/2000/svg" xmlns:xlink="http://www.w3.org/1999/xlink" width="100" height="100" viewBox="0 0 100 100">
  <defs>
    <clipPath id="clip-path">
      <rect id="Rectangle_48" data-name="Rectangle 48" width="100" height="100" transform="translate(457 2267)" fill="#fff"/>
    </clipPath>
  </defs>
  <g id="Mobility_MEA_" data-name="Mobility (MEA)" transform="translate(-457 -2267)" clip-path="url(#clip-path)">
    <g id="mobility" transform="translate(457 2267)">
      <path id="Path_528" data-name="Path 528" d="M90.235,34.717a9.761,9.761,0,0,0-9.417,12.346L65.658,53.77a17.734,17.734,0,0,0-6.359-6.7q1.1-2.25,2.373-4.432a1.465,1.465,0,0,0-2.527-1.482,66.137,66.137,0,0,0-7.289,17.978,1.909,1.909,0,0,1-3.713,0A66.881,66.881,0,0,0,36.465,34.561a19.511,19.511,0,0,1-3.926-11.973,17.461,17.461,0,1,1,34.921,0,19.511,19.511,0,0,1-3.926,11.974q-.294.392-.582.787a1.465,1.465,0,1,0,2.368,1.725q.277-.379.558-.755A22.379,22.379,0,0,0,70.39,22.588a20.39,20.39,0,1,0-40.781,0,22.378,22.378,0,0,0,4.512,13.731A66.256,66.256,0,0,1,40.7,47.068a17.736,17.736,0,0,0-6.362,6.7l-15.153-6.7a9.886,9.886,0,0,0,.342-2.584,9.766,9.766,0,1,0-15.8,7.68,1.465,1.465,0,0,0,1.811-2.3,6.835,6.835,0,1,1,5.309,1.373,1.465,1.465,0,1,0,.461,2.893,9.713,9.713,0,0,0,6.692-4.379l15.162,6.708a17.808,17.808,0,0,0,2.553,16.386l-9.333,8.253a9.752,9.752,0,1,0,1.759,2.355l9.509-8.409a17.758,17.758,0,0,0,24.684,0l9.51,8.409a9.765,9.765,0,1,0,18.383,4.589,1.465,1.465,0,0,0-2.93,0,6.836,6.836,0,1,1-2.183-5.008,1.465,1.465,0,0,0,2-2.146,9.755,9.755,0,0,0-13.507.209L64.278,72.84a17.809,17.809,0,0,0,2.553-16.386L82.01,49.739a9.763,9.763,0,1,0,8.224-15.022Zm-70.7,60.157a6.836,6.836,0,1,1,6.836-6.836A6.844,6.844,0,0,1,19.531,94.874ZM50,77.1a14.863,14.863,0,0,1-8.064-27.347A62.26,62.26,0,0,1,45.3,59.819a4.839,4.839,0,0,0,9.409,0,62.148,62.148,0,0,1,3.362-10.065A14.863,14.863,0,0,1,50,77.1ZM90.235,51.319a6.836,6.836,0,1,1,6.836-6.836A6.844,6.844,0,0,1,90.235,51.319Z" fill="#fff"/>
      <path id="Path_529" data-name="Path 529" d="M42.573,14.544a1.465,1.465,0,0,0-2.064.177,12.373,12.373,0,1,0,6.458-4.044,1.465,1.465,0,0,0,.715,2.841,9.478,9.478,0,1,1-4.931,3.09,1.465,1.465,0,0,0-.177-2.064Z" fill="#fff"/>
    </g>
  </g>
</svg>
