<svg xmlns="http://www.w3.org/2000/svg" xmlns:xlink="http://www.w3.org/1999/xlink" width="100" height="100" viewBox="0 0 100 100">
  <defs>
    <clipPath id="clip-path">
      <rect id="Rectangle_45" data-name="Rectangle 45" width="100" height="100" transform="translate(214 2267)" fill="#fff"/>
    </clipPath>
  </defs>
  <g id="On_Demand" data-name="On Demand" transform="translate(-214 -2267)" clip-path="url(#clip-path)">
    <g id="customer" transform="translate(210.667 2263.667)">
      <path id="Path_514" data-name="Path 514" d="M6.667,88.333A3.333,3.333,0,0,1,10,85H23.333a3.333,3.333,0,0,1,3.333,3.333v15H30v-15a6.667,6.667,0,0,0-6.667-6.667H21.615a8.333,8.333,0,1,0-9.9,0H10a6.667,6.667,0,0,0-6.667,6.667v15H6.667Zm5-13.333a5,5,0,1,1,5,5A5,5,0,0,1,11.667,75Z" fill="#fff"/>
      <path id="Path_515" data-name="Path 515" d="M8.333,88.333h3.333v15H8.333Z" fill="#fff"/>
      <path id="Path_516" data-name="Path 516" d="M21.667,88.333H25v15H21.667Z" fill="#fff"/>
      <path id="Path_517" data-name="Path 517" d="M66.667,103.333v-15A6.667,6.667,0,0,0,60,81.667H58.282a8.333,8.333,0,1,0-9.9,0H46.667A6.667,6.667,0,0,0,40,88.333v15h3.333v-15A3.333,3.333,0,0,1,46.667,85H60a3.333,3.333,0,0,1,3.333,3.333v15ZM53.333,80a5,5,0,1,1,5-5A5,5,0,0,1,53.333,80Z" fill="#fff"/>
      <path id="Path_518" data-name="Path 518" d="M45,88.333h3.333v15H45Z" fill="#fff"/>
      <path id="Path_519" data-name="Path 519" d="M58.333,88.333h3.333v15H58.333Z" fill="#fff"/>
      <path id="Path_520" data-name="Path 520" d="M96.667,81.667H94.948a8.333,8.333,0,1,0-9.9,0H83.333a6.667,6.667,0,0,0-6.667,6.667v15H80v-15A3.333,3.333,0,0,1,83.333,85H96.667A3.333,3.333,0,0,1,100,88.333v15h3.333v-15a6.667,6.667,0,0,0-6.667-6.667ZM90,80a5,5,0,1,1,5-5A5,5,0,0,1,90,80Z" fill="#fff"/>
      <path id="Path_521" data-name="Path 521" d="M81.667,88.333H85v15H81.667Z" fill="#fff"/>
      <path id="Path_522" data-name="Path 522" d="M95,88.333h3.333v15H95Z" fill="#fff"/>
      <path id="Path_523" data-name="Path 523" d="M35,35a1.667,1.667,0,0,0,.808,1.428l16.667,10a1.667,1.667,0,0,0,1.717,0l16.667-10A1.667,1.667,0,0,0,71.667,35V15a1.667,1.667,0,0,0-.808-1.428l-16.667-10a1.667,1.667,0,0,0-1.717,0l-16.667,10A1.667,1.667,0,0,0,35,15Zm33.333-.943L55,42.057V27.213l13.333-9.065Zm-15-27.113,13.573,8.145L53.333,24.315,39.76,15.088Zm-15,11.2,13.333,9.065V42.057l-13.333-8Z" fill="#fff"/>
      <path id="Path_524" data-name="Path 524" d="M81.667,37.5a11.208,11.208,0,0,0-3.848-8.067l-2.3,2.4A7.893,7.893,0,0,1,78.333,37.5c0,6.775-11.448,12.5-25,12.5s-25-5.725-25-12.5a7.893,7.893,0,0,1,2.818-5.667l-2.3-2.4A11.208,11.208,0,0,0,25,37.5c0,8.878,12.445,15.833,28.333,15.833S81.667,46.378,81.667,37.5Z" fill="#fff"/>
      <path id="Path_525" data-name="Path 525" d="M51.667,56.667H55v6.667H51.667Z" fill="#fff"/>
      <path id="Path_526" data-name="Path 526" d="M13.333,53.333H30v3.333H13.333Z" transform="matrix(0.6, -0.8, 0.8, 0.6, -35.333, 39.333)" fill="#fff"/>
      <path id="Path_527" data-name="Path 527" d="M83.333,46.667h3.333V63.333H83.333Z" transform="matrix(0.8, -0.6, 0.6, 0.8, -16, 62)" fill="#fff"/>
    </g>
  </g>
</svg>
