<svg xmlns="http://www.w3.org/2000/svg" xmlns:xlink="http://www.w3.org/1999/xlink" width="64" height="64" viewBox="0 0 64 64">
  <defs>
    <clipPath id="clip-path">
      <rect id="Rectangle_22" data-name="Rectangle 22" width="64" height="64" transform="translate(2221 383)" fill="#fff"/>
    </clipPath>
  </defs>
  <g id="philippines" transform="translate(-2221 -383)" clip-path="url(#clip-path)">
    <g id="philippines-2" data-name="philippines" transform="translate(2220.742 382.925)">
      <circle id="Ellipse_15" data-name="Ellipse 15" cx="31.945" cy="31.945" r="31.945" transform="translate(0.258)" fill="#f0f0f0"/>
      <path id="Path_450" data-name="Path 450" d="M97.66,0V32.075L74.98,54.755a32.075,32.075,0,0,0,54.755-22.68C129.735,14.36,97.66,0,97.66,0Z" transform="translate(-65.478)" fill="#d80027"/>
      <path id="Path_451" data-name="Path 451" d="M97.66,0A31.975,31.975,0,0,0,74.98,9.394l22.68,22.68h32.075A32.075,32.075,0,0,0,97.66,0Z" transform="translate(-65.478)" fill="#0052b4"/>
      <g id="Group_148" data-name="Group 148" transform="translate(2.897 12.551)">
        <path id="Path_452" data-name="Path 452" d="M41.434,192.333l-3.917-1.843L39.6,186.7l-4.254.814-.539-4.3-2.963,3.16-2.963-3.16-.539,4.3-4.254-.814,2.086,3.794-3.917,1.843,3.917,1.843-2.086,3.794,4.254-.814.539,4.3,2.963-3.16,2.963,3.16.539-4.3,4.253.814-2.086-3.794Z" transform="translate(-22.261 -172.809)" fill="#ffda44"/>
        <path id="Path_453" data-name="Path 453" d="M53.246,100.174l1.3,1.822,2.136-.676-1.33,1.8,1.3,1.822-2.126-.708-1.33,1.8.017-2.24-2.126-.708,2.136-.676Z" transform="translate(-47.481 -100.174)" fill="#ffda44"/>
        <path id="Path_454" data-name="Path 454" d="M53.246,365.015l1.3,1.822,2.136-.677-1.33,1.8,1.3,1.822-2.126-.708-1.33,1.8.017-2.24-2.126-.708,2.136-.676Z" transform="translate(-47.481 -331.832)" fill="#ffda44"/>
        <path id="Path_455" data-name="Path 455" d="M192.656,232.6l-1.3,1.822-2.136-.677,1.33,1.8-1.3,1.822,2.126-.708,1.33,1.8-.017-2.24,2.126-.708-2.136-.676Z" transform="translate(-168.299 -216.004)" fill="#ffda44"/>
      </g>
    </g>
  </g>
</svg>
