<svg xmlns="http://www.w3.org/2000/svg" xmlns:xlink="http://www.w3.org/1999/xlink" width="100" height="100" viewBox="0 0 100 100">
  <defs>
    <clipPath id="clip-path">
      <rect id="Rectangle_49" data-name="Rectangle 49" width="100" height="100" transform="translate(700 2267)" fill="#fff"/>
    </clipPath>
  </defs>
  <g id="Rebadging" transform="translate(-700 -2267)" clip-path="url(#clip-path)">
    <g id="recycle" transform="translate(700 2267.297)">
      <path id="Path_549" data-name="Path 549" d="M49.686,5.016a44.327,44.327,0,0,1,22.76,6.451,49.274,49.274,0,0,1,11.873,9.995l-11.748-.388a2.5,2.5,0,1,0-.164,5l16.254.537a2.5,2.5,0,0,0,3.262-3.267l-.535-16.25a2.5,2.5,0,0,0-5,.112c0,.019,0,.036,0,.054l.309,9.375a54.533,54.533,0,0,0-11.68-9.453A49.336,49.336,0,0,0,49.686.016,48.352,48.352,0,0,0,13.345,16.27C4.989,25.555,0,38.053,0,49.7a2.5,2.5,0,0,0,5,0c0-10.448,4.509-21.7,12.062-30.087a43.413,43.413,0,0,1,32.624-14.6Zm0,0" fill="#fff"/>
      <path id="Path_550" data-name="Path 550" d="M97.5,47.2A2.5,2.5,0,0,0,95,49.7c0,10.447-4.509,21.7-12.062,30.088a43.411,43.411,0,0,1-32.624,14.6,44.326,44.326,0,0,1-22.76-6.449,49.309,49.309,0,0,1-11.873-9.995l11.748.388a2.5,2.5,0,0,0,.164-5L11.339,72.8a2.5,2.5,0,0,0-3.262,3.266l.535,16.25a2.5,2.5,0,1,0,5-.111c0-.018,0-.035,0-.054L13.3,82.774a54.56,54.56,0,0,0,11.68,9.454,49.329,49.329,0,0,0,25.333,7.162A48.351,48.351,0,0,0,86.655,83.136C95.011,73.85,100,61.353,100,49.7a2.5,2.5,0,0,0-2.5-2.5Zm0,0" fill="#fff"/>
    </g>
  </g>
</svg>
