<svg xmlns="http://www.w3.org/2000/svg" xmlns:xlink="http://www.w3.org/1999/xlink" width="69" height="69" viewBox="0 0 69 69">
  <defs>
    <clipPath id="clip-path">
      <rect id="Rectangle_29" data-name="Rectangle 29" width="69" height="69" transform="translate(2161 1104)" fill="#fff"/>
    </clipPath>
  </defs>
  <g id="Retail_" data-name="Retail " transform="translate(-2161 -1104)" clip-path="url(#clip-path)">
    <g id="shopping-store" transform="translate(2161 1104.001)">
      <path id="Path_505" data-name="Path 505" d="M10.8,30.154A1.078,1.078,0,0,0,9.72,31.232v15.43A1.078,1.078,0,0,0,10.8,47.74H35.94a1.078,1.078,0,0,0,1.078-1.078V31.232a1.078,1.078,0,0,0-1.078-1.078Zm24.065,15.43H11.876V32.31H34.862Z" transform="translate(1.458 4.523)" fill="#fff"/>
      <path id="Path_506" data-name="Path 506" d="M6.889,28.667a7.593,7.593,0,0,0,7.233-3.575,7.751,7.751,0,0,0,13.613.295,8,8,0,0,0,1.085,1.458,7.821,7.821,0,0,0,11.356,0,8,8,0,0,0,1.085-1.458,7.762,7.762,0,0,0,13.613-.3,7.636,7.636,0,0,0,13.854-6.037L65.117,5.728V1.078A1.078,1.078,0,0,0,64.039,0H4.955A1.078,1.078,0,0,0,3.881,1.078v4.66L.269,19.058a7.646,7.646,0,0,0,6.621,9.609Zm14.137-1.537a5.626,5.626,0,0,1-5.554-6.53L17.691,6.952h9.765l-.763,14.087h0l-.042.763A5.631,5.631,0,0,1,21.027,27.131Zm17.584-1.768a5.665,5.665,0,0,1-9.775-4.2l.045-.829L29.6,6.952h9.775l.719,13.378.045.829a5.613,5.613,0,0,1-1.527,4.2Zm13.646-.213a5.629,5.629,0,0,1-9.907-3.344l-.042-.763h0L41.545,6.956h9.762L53.525,20.6a5.618,5.618,0,0,1-1.268,4.551Zm13.611-.976a5.491,5.491,0,0,1-9.941-2.235L53.49,6.952h9.726l3.431,12.67a5.481,5.481,0,0,1-.779,4.552ZM6.037,2.156H62.96V4.8H6.037ZM2.35,19.621,5.781,6.952h9.726L14,16.192l-.661,4.062h0l-.273,1.683A5.491,5.491,0,1,1,2.35,19.621Z" transform="translate(0)" fill="#fff"/>
      <path id="Path_507" data-name="Path 507" d="M67.92,58.087h-2.8V27.151a1.078,1.078,0,1,0-2.156,0V58.087H59.346V31.844a1.078,1.078,0,0,0-1.078-1.078H44.294a1.078,1.078,0,0,0-1.078,1.078V58.087H6.037V27.163a1.078,1.078,0,0,0-2.156,0V58.087h-2.8A1.078,1.078,0,0,0,0,59.165v4.844a1.078,1.078,0,0,0,1.078,1.078H67.92A1.078,1.078,0,0,0,69,64.009V59.165A1.078,1.078,0,0,0,67.92,58.087ZM45.372,32.923H57.189V58.087H45.372Zm21.47,30.008H2.156V60.243H66.842Z" transform="translate(0 3.911)" fill="#fff"/>
    </g>
  </g>
</svg>
