<svg xmlns="http://www.w3.org/2000/svg" xmlns:xlink="http://www.w3.org/1999/xlink" width="64" height="64" viewBox="0 0 64 64">
  <defs>
    <clipPath id="clip-path">
      <rect id="Rectangle_23" data-name="Rectangle 23" width="64" height="64" transform="translate(1973 558)" fill="#fff"/>
    </clipPath>
  </defs>
  <g id="south-america" transform="translate(-1973 -558)" clip-path="url(#clip-path)">
    <g id="europe" transform="translate(1968.305 550.171)">
      <path id="Path_465" data-name="Path 465" d="M66.728,48.752l-3.875-1.768a.436.436,0,0,1-.191-.626L64.187,43.9a4.752,4.752,0,0,0,.2-4.625l-1.314-2.592a.432.432,0,0,1,.032-.447l2.46-3.52a2.327,2.327,0,0,0-1.2-3.55l-3.838-1.219a.432.432,0,0,1-.3-.415V26.384a2.312,2.312,0,0,0-1.093-1.972l-.8-.5a.432.432,0,0,1-.165-.188l-2.631-5.75a.444.444,0,0,1-.039-.168l-.078-2.352a4.073,4.073,0,0,0-3.6-3.926l-.559-.068a2.322,2.322,0,0,0-2.5,1.617l-3.3,10.589a4.428,4.428,0,0,1-.837,1.535l-1.66,1.982a.436.436,0,0,1-.767-.233l-.521-4.81A3.624,3.624,0,0,0,39.3,19.111l-.893-.329a3.582,3.582,0,0,0-4.482,1.87l-3.722,8.175a.438.438,0,0,1-.1.141l-2.981,2.716a6.166,6.166,0,0,0-2.011,4.96l.1,1.62A2.326,2.326,0,0,0,27.9,40.415l4.539-.734a2.314,2.314,0,0,0,1.775-1.4l2.23-5.32a.675.675,0,0,1,1.042-.27l.616.489a.437.437,0,0,1,.162.395l-.594,4.8a.436.436,0,0,1-.149.278l-6.007,5.172a.437.437,0,0,1-.216.1l-6.414,1.027A11.5,11.5,0,0,0,20.243,46.8l-3.495,2.386a4.2,4.2,0,0,0-1.772,2.8l-.3,1.89a.436.436,0,0,1-.548.351h0l-2.655-.744a3.571,3.571,0,0,0-4.039,1.627l-1.547,2.63A4.59,4.59,0,0,0,6.46,63.2l.833.907a2.322,2.322,0,0,0,1.486.742l4.812.471a2.318,2.318,0,0,0,1.62-.454l4.719-3.54a2.337,2.337,0,0,0,.846-1.236l.393-1.407a.437.437,0,0,1,.57-.293l1.949.714a2.316,2.316,0,0,0,1.738-.054.435.435,0,0,1,.591.27l.735,2.326a2.327,2.327,0,0,0,1.233,1.407l1.782.832a2.322,2.322,0,0,0,3.05-1.036l1.388-2.677A.436.436,0,0,1,34.8,60l1.188.648a.435.435,0,0,1,.2.526l-.076.222a4.628,4.628,0,0,0,.6,4.171L37.9,67.231a2.325,2.325,0,0,0,1.656.972,2.268,2.268,0,0,0,.241.013,2.326,2.326,0,0,0,1.579-.618l2.553-2.359a2.337,2.337,0,0,0,.723-1.381L45.1,60.65a.435.435,0,0,1,.294-.353l.956-.319a2.322,2.322,0,0,0,1.591-2.207V53.149a.676.676,0,0,1,.675-.675h4.456a.437.437,0,0,1,.319.139l2.092,2.244a2.328,2.328,0,0,0,2.043.715L66.7,54.212a2.322,2.322,0,0,0,1.977-2.09,3.374,3.374,0,0,0-1.952-3.37Zm.075,3.2a.432.432,0,0,1-.37.392L57.256,53.7a.436.436,0,0,1-.383-.134l-2.092-2.245a2.333,2.333,0,0,0-1.7-.74H48.623a2.568,2.568,0,0,0-2.565,2.565v4.618a.432.432,0,0,1-.3.413L44.8,58.5a2.311,2.311,0,0,0-1.566,1.881l-.455,3.205a.442.442,0,0,1-.136.26l-2.552,2.358a.436.436,0,0,1-.652-.068l-1.181-1.669A2.735,2.735,0,0,1,37.908,62l.076-.222a2.318,2.318,0,0,0-1.087-2.8l-1.188-.648a2.327,2.327,0,0,0-3.178.972L31.14,61.98a.432.432,0,0,1-.571.194l-1.782-.832a.432.432,0,0,1-.231-.264l-.732-2.327a2.326,2.326,0,0,0-3.154-1.429.439.439,0,0,1-.327.01l-1.949-.712a2.326,2.326,0,0,0-3.041,1.559l-.393,1.408a.438.438,0,0,1-.158.232l-4.72,3.54a.445.445,0,0,1-.3.085l-4.811-.472a.432.432,0,0,1-.278-.139l-.834-.907A2.713,2.713,0,0,1,7.512,58.7l1.547-2.629a1.681,1.681,0,0,1,1.9-.765l2.655.744a2.325,2.325,0,0,0,2.924-1.872l.3-1.89a2.3,2.3,0,0,1,.972-1.533l3.495-2.385a9.607,9.607,0,0,1,3.879-1.543L31.6,45.8a2.328,2.328,0,0,0,1.15-.534L38.76,40.09a2.322,2.322,0,0,0,.792-1.479l.59-4.8a2.337,2.337,0,0,0-.864-2.106l-.615-.489A2.565,2.565,0,0,0,34.7,32.232l-2.23,5.32a.437.437,0,0,1-.333.262l-4.539.734a.439.439,0,0,1-.341-.09.432.432,0,0,1-.162-.313l-.1-1.62a4.283,4.283,0,0,1,1.4-3.447l2.982-2.716a2.336,2.336,0,0,0,.55-.756L35.65,21.43a1.686,1.686,0,0,1,2.106-.879l.893.329a1.744,1.744,0,0,1,1.138,1.458l.521,4.81a2.326,2.326,0,0,0,4.1,1.242l1.66-1.983a6.311,6.311,0,0,0,1.192-2.186l3.3-10.589a.439.439,0,0,1,.468-.3l.559.068a2.192,2.192,0,0,1,1.936,2.114l.078,2.354a2.322,2.322,0,0,0,.21.889l2.631,5.751a2.315,2.315,0,0,0,.883,1.005l.8.5a.432.432,0,0,1,.2.369v1.148a2.317,2.317,0,0,0,1.624,2.217l3.838,1.216a.436.436,0,0,1,.225.665l-2.46,3.52a2.322,2.322,0,0,0-.168,2.384L62.7,40.123A2.852,2.852,0,0,1,62.58,42.9l-1.522,2.465A2.326,2.326,0,0,0,62.071,48.7l3.875,1.767a1.479,1.479,0,0,1,.858,1.48Z" transform="translate(0 0)" fill="#e9b237"/>
      <path id="Path_466" data-name="Path 466" d="M14.182,62.155l.725.176a3.933,3.933,0,0,0,3.237-.636l4.989-3.609a3.942,3.942,0,0,0,1.6-2.743l.5-4.419a3.06,3.06,0,0,0-2.44-3.333L20.96,47.23a3.054,3.054,0,0,0-3.186,1.4l-1.7,2.8h0a2.048,2.048,0,0,1-1.119.885l-.194.063A3.915,3.915,0,0,0,12.042,55.9l-.18,3.117A3.044,3.044,0,0,0,14.182,62.155Zm-.255-6.142a2.036,2.036,0,0,1,1.414-1.83l.194-.063a3.937,3.937,0,0,0,2.152-1.7l1.7-2.8a1.158,1.158,0,0,1,1.208-.533l1.842.361a1.16,1.16,0,0,1,.925,1.263l-.5,4.418a2.056,2.056,0,0,1-.834,1.427l-4.989,3.608a2.042,2.042,0,0,1-1.683.331l-.725-.176a1.154,1.154,0,0,1-.88-1.188Z" transform="translate(-3.044 -16.436)" fill="#e9b237"/>
    </g>
  </g>
</svg>
