<svg xmlns="http://www.w3.org/2000/svg" xmlns:xlink="http://www.w3.org/1999/xlink" width="64" height="64" viewBox="0 0 64 64">
  <defs>
    <clipPath id="clip-path">
      <rect id="Rectangle_22" data-name="Rectangle 22" width="64" height="64" transform="translate(2389 383)" fill="#fff"/>
    </clipPath>
  </defs>
  <g id="thailand" transform="translate(-2389 -383)" clip-path="url(#clip-path)">
    <g id="thailand-2" data-name="thailand" transform="translate(2388.925 382.925)">
      <circle id="Ellipse_17" data-name="Ellipse 17" cx="31.945" cy="31.945" r="31.945" transform="translate(0.029)" fill="#f0f0f0"/>
      <path id="Path_461" data-name="Path 461" d="M62.155,166.957H2A32.191,32.191,0,0,0,2,189.27h60.16a32.192,32.192,0,0,0,0-22.313Z" transform="translate(0 -146.039)" fill="#0052b4"/>
      <g id="Group_149" data-name="Group 149" transform="translate(7.76)">
        <path id="Path_462" data-name="Path 462" d="M86.253,0A32,32,0,0,0,61.939,11.156h48.629A32,32,0,0,0,86.253,0Z" transform="translate(-61.939)" fill="#d80027"/>
        <path id="Path_463" data-name="Path 463" d="M110.568,422.957H61.939a32.074,32.074,0,0,0,48.629,0Z" transform="translate(-61.939 -369.964)" fill="#d80027"/>
      </g>
    </g>
  </g>
</svg>
