<svg xmlns="http://www.w3.org/2000/svg" xmlns:xlink="http://www.w3.org/1999/xlink" width="64" height="64" viewBox="0 0 64 64">
  <defs>
    <clipPath id="clip-path">
      <rect id="Rectangle_27" data-name="Rectangle 27" width="64" height="64" transform="translate(2293 558)" fill="#fff"/>
    </clipPath>
  </defs>
  <g id="uk" transform="translate(-2293 -558)" clip-path="url(#clip-path)">
    <g id="uk-2" data-name="uk" transform="translate(2293 558)">
      <path id="Path_475" data-name="Path 475" d="M32,64A32,32,0,1,0,0,32,32,32,0,0,0,32,64Z" fill="#f0f0f0"/>
      <g id="Group_151" data-name="Group 151">
        <path id="Path_476" data-name="Path 476" d="M51.483,6.615A31.958,31.958,0,0,0,40.349,1.1V17.75ZM1.1,23.663A31.812,31.812,0,0,1,6.615,12.517L17.75,23.663ZM57.387,12.517A31.911,31.911,0,0,1,62.9,23.663H46.249ZM1.1,40.356H17.75L6.616,51.48A31.945,31.945,0,0,1,1.1,40.356ZM12.52,57.387A31.979,31.979,0,0,0,23.653,62.9V46.258Zm0-50.772A31.9,31.9,0,0,1,23.653,1.1V17.75ZM40.347,62.9A31.9,31.9,0,0,0,51.48,57.387L40.347,46.262ZM57.383,51.484,46.249,40.359H62.894a31.874,31.874,0,0,1-5.511,11.125Z" fill="#0052b4" fill-rule="evenodd"/>
        <path id="Path_477" data-name="Path 477" d="M63.729,27.823H36.174V.267a32.857,32.857,0,0,0-8.349,0V27.822H.271a32.351,32.351,0,0,0,0,8.356H27.826V63.733a32.857,32.857,0,0,0,8.349,0V36.178H63.729A32.341,32.341,0,0,0,63.729,27.823ZM40.354,40.356,54.624,54.63l1.881-2.062L44.281,40.356H40.349ZM9.375,54.63,23.653,40.356v3.929L11.429,56.515ZM23.652,23.645,9.375,9.375,7.5,11.437,19.725,23.668h3.936ZM54.624,9.375,40.349,23.645V19.716L52.574,7.485Z" fill="#d80027" fill-rule="evenodd"/>
      </g>
    </g>
  </g>
</svg>
