<svg xmlns="http://www.w3.org/2000/svg" xmlns:xlink="http://www.w3.org/1999/xlink" width="120" height="120" viewBox="0 0 120 120">
  <defs>
    <clipPath id="clip-path">
      <rect id="Rectangle_10" data-name="Rectangle 10" width="120" height="120" transform="translate(940 1792)" fill="#fff"/>
    </clipPath>
  </defs>
  <g id="Assessment_and_strategy" data-name="Assessment and strategy" transform="translate(-940 -1792)" clip-path="url(#clip-path)">
    <g id="performance" transform="translate(940 1793.5)">
      <path id="Path_239" data-name="Path 239" d="M16.291,47.477a5.31,5.31,0,0,0-2.881,6.957l2.724,6.6a5.35,5.35,0,0,0,6.957,2.881,1.45,1.45,0,0,1,1.685.372,32.919,32.919,0,0,0,4.213,4.233,1.47,1.47,0,0,1,.392,1.626h0a5.35,5.35,0,0,0,2.881,6.957l6.6,2.724a5.33,5.33,0,0,0,6.957-2.881h0a1.45,1.45,0,0,1,1.431-.882,33.6,33.6,0,0,0,5.879,0,1.489,1.489,0,0,1,1.45.921,5.252,5.252,0,0,0,2.881,2.881,5.331,5.331,0,0,0,1.96.412,5.252,5.252,0,0,0,1.96-.412l6.6-2.724a5.35,5.35,0,0,0,2.881-6.957,1.45,1.45,0,0,1,.372-1.685,31.708,31.708,0,0,0,4.468-4.213,1.45,1.45,0,0,1,1.685-.372,5.35,5.35,0,0,0,6.956-2.881l2.724-6.6a5.31,5.31,0,0,0-2.881-6.957,1.45,1.45,0,0,1-.921-1.45c0-1,.137-1.96.137-2.979H79.488a19.2,19.2,0,0,1-.118,2.606A5.35,5.35,0,0,0,82.7,51.1a1.431,1.431,0,0,1,.764,1.842l-2.743,6.584a1.411,1.411,0,0,1-1.842.764,5.369,5.369,0,0,0-6.192,1.489,28.9,28.9,0,0,1-3.7,3.723A5.33,5.33,0,0,0,67.5,71.677a1.411,1.411,0,0,1-.764,1.842l-6.7,2.724a1.333,1.333,0,0,1-1.058,0,1.45,1.45,0,0,1-.764-.764,5.369,5.369,0,0,0-5.428-3.331,29.394,29.394,0,0,1-5.252,0A5.35,5.35,0,0,0,42.1,75.459h0a1.391,1.391,0,0,1-1.822.725l-6.6-2.724a1.411,1.411,0,0,1-.784-1.8h0A5.35,5.35,0,0,0,31.4,65.466a28.9,28.9,0,0,1-3.723-3.7A5.33,5.33,0,0,0,21.5,60.273a1.411,1.411,0,0,1-1.842-.764l-2.743-6.584a1.45,1.45,0,0,1,.843-1.96,5.291,5.291,0,0,0,3.253-5.31c0-.9-.118-1.822-.118-2.7H16.977a23.541,23.541,0,0,0,.137,3.057,1.352,1.352,0,0,1-.823,1.47Z" transform="translate(8.556 37.295)" fill="teal"/>
      <path id="Path_240" data-name="Path 240" d="M42.555,64.555A21.555,21.555,0,0,0,64.111,43H60.192a17.636,17.636,0,1,1-35.272,0H21A21.555,21.555,0,0,0,42.555,64.555Z" transform="translate(16.232 37.343)" fill="teal"/>
      <path id="Path_241" data-name="Path 241" d="M103.9,16.96a1.96,1.96,0,0,0-1.96-1.96H86.262a1.96,1.96,0,0,0-1.96,1.96V62.03H70.585V30.677a1.96,1.96,0,0,0-1.96-1.96H52.949a1.96,1.96,0,0,0-1.96,1.96V62.03H37.272V44.394a1.96,1.96,0,0,0-1.96-1.96H19.636a1.96,1.96,0,0,0-1.96,1.96V62.03H2v3.919H119.575V62.03H103.9ZM33.353,62.03H21.6V46.353H33.353Zm33.313,0H54.909V32.636H66.666Zm33.313,0H88.222V18.919H99.979Z" transform="translate(-2 10.475)" fill="teal"/>
      <path id="Path_242" data-name="Path 242" d="M7.93,48.089l91.16-36.605L95.7,17.539l3.41,1.96,6.173-10.934a1.96,1.96,0,0,0-1.137-2.841L92.094,2,90.957,5.919l6.7,1.96L6.46,44.464Z" transform="translate(2.28 -2)" fill="#e9b237"/>
    </g>
  </g>
</svg>
