<svg xmlns="http://www.w3.org/2000/svg" xmlns:xlink="http://www.w3.org/1999/xlink" width="120" height="120" viewBox="0 0 120 120">
  <defs>
    <clipPath id="clip-path">
      <rect id="Rectangle_12" data-name="Rectangle 12" width="120" height="120" transform="translate(800 422)" fill="#fff"/>
    </clipPath>
  </defs>
  <g id="Assess_current_capabilities" data-name="Assess current capabilities" transform="translate(-800 -422)" clip-path="url(#clip-path)">
    <g id="logical-thinking" transform="translate(803.005 422)">
      <path id="Path_205" data-name="Path 205" d="M23,120a2,2,0,0,0,2,2h50a2,2,0,0,0,2-2v-8h24a2,2,0,0,0,2-2V86h12a2,2,0,0,0,1.955-2.419l-5.955-27.794A54,54,0,1,0,12.94,87.214,56.147,56.147,0,0,1,23,120ZM7.255,50.857A50,50,0,0,1,106.993,56a2.016,2.016,0,0,0,.045.419L112.518,82H100.993a2,2,0,0,0-2,2v24h-32v4h6v6H26.967A59.792,59.792,0,0,0,16.2,84.9,50.135,50.135,0,0,1,7.255,50.857Z" transform="translate(-3.003 -1.997)" fill="teal"/>
      <path id="Path_206" data-name="Path 206" d="M55.653,47.449,54.166,43.9a18.174,18.174,0,0,0,.846-2.048l3.568-1.464a2,2,0,0,0,1.225-1.6,20.168,20.168,0,0,0,0-5.572,2,2,0,0,0-1.225-1.6l-3.568-1.464a18.315,18.315,0,0,0-.844-2.048l1.484-3.552a2,2,0,0,0-.266-2,22.079,22.079,0,0,0-3.943-3.945,2,2,0,0,0-2-.265L45.9,19.833a18.274,18.274,0,0,0-2.047-.844l-1.465-3.568a2,2,0,0,0-1.6-1.226,19.738,19.738,0,0,0-5.574,0,2,2,0,0,0-1.6,1.226L32.15,18.989a18.273,18.273,0,0,0-2.047.844L26.55,18.348a2,2,0,0,0-2,.265,22.165,22.165,0,0,0-3.943,3.943,2,2,0,0,0-.266,2L21.832,28.1a18.265,18.265,0,0,0-.846,2.049l-3.568,1.464a2,2,0,0,0-1.225,1.6,20.169,20.169,0,0,0,0,5.572,2,2,0,0,0,1.225,1.6l3.568,1.464A18.314,18.314,0,0,0,21.83,43.9l-1.484,3.552a2,2,0,0,0,.266,2,22.079,22.079,0,0,0,3.943,3.945,2,2,0,0,0,2,.265L30.1,52.17a18.269,18.269,0,0,0,2.047.844l1.465,3.568a2,2,0,0,0,1.6,1.226,20.183,20.183,0,0,0,5.574,0,2,2,0,0,0,1.6-1.226l1.465-3.568A17.969,17.969,0,0,0,45.9,52.17l3.553,1.485a2,2,0,0,0,2-.265,22.079,22.079,0,0,0,3.943-3.945,2,2,0,0,0,.266-2Zm-3.029-8.944a2,2,0,0,0-1.164,1.306,13.972,13.972,0,0,1-1.244,3.014,2.007,2.007,0,0,0-.1,1.751l1.383,3.3a18.24,18.24,0,0,1-1.619,1.62l-3.3-1.382a2,2,0,0,0-1.75.1,13.94,13.94,0,0,1-3.014,1.243,1.994,1.994,0,0,0-1.3,1.165l-1.367,3.33a14.772,14.772,0,0,1-2.277,0l-1.367-3.33a1.994,1.994,0,0,0-1.3-1.165,14.066,14.066,0,0,1-3.016-1.244,2.007,2.007,0,0,0-1.748-.1l-3.3,1.382a18.372,18.372,0,0,1-1.619-1.62l1.381-3.3a2.007,2.007,0,0,0-.1-1.748,13.9,13.9,0,0,1-1.244-3.016,2,2,0,0,0-1.164-1.306l-3.33-1.366C20.013,36.739,20,36.365,20,36s.014-.737.045-1.138l3.33-1.366a2,2,0,0,0,1.164-1.306,13.973,13.973,0,0,1,1.244-3.014,2.007,2.007,0,0,0,.1-1.751l-1.383-3.3A18.359,18.359,0,0,1,26.121,22.5l3.3,1.382a2.007,2.007,0,0,0,1.748-.1,14.065,14.065,0,0,1,3.015-1.244,1.994,1.994,0,0,0,1.3-1.165l1.367-3.33a14.771,14.771,0,0,1,2.277,0l1.367,3.33a1.994,1.994,0,0,0,1.3,1.165,14.066,14.066,0,0,1,3.015,1.244,2.006,2.006,0,0,0,1.748.1l3.3-1.382a18.37,18.37,0,0,1,1.619,1.62l-1.381,3.3a2.007,2.007,0,0,0,.1,1.748,13.9,13.9,0,0,1,1.244,3.016A2,2,0,0,0,52.623,33.5l3.33,1.366c.031.4.045.774.045,1.138s-.014.737-.045,1.138Z" transform="translate(9.993 10.002)" fill="#e9b237"/>
      <path id="Path_207" data-name="Path 207" d="M32,20A10,10,0,1,0,42,30,10.011,10.011,0,0,0,32,20Zm0,16a6,6,0,1,1,6-6A6.006,6.006,0,0,1,32,36Z" transform="translate(15.993 16.004)" fill="#e9b237"/>
      <path id="Path_208" data-name="Path 208" d="M35.3,38.864l2.375,3.219a32.165,32.165,0,0,0,6.115-5.905l-3.133-2.486A28.206,28.206,0,0,1,35.3,38.863Z" transform="translate(29.291 29.693)" fill="teal"/>
      <path id="Path_209" data-name="Path 209" d="M14.5,58.27l3.558-1.824A28.009,28.009,0,0,1,43,15.707H58.17l-2.586,2.586,2.828,2.828,6-6a2,2,0,0,0,0-2.828l-6-6L55.584,9.121l2.586,2.586H43A31.989,31.989,0,0,0,14.5,58.27Z" transform="translate(4.994 2.298)" fill="teal"/>
      <path id="Path_210" data-name="Path 210" d="M45.813,29.8l-3.855-1.064a27.829,27.829,0,0,1-2.922,6.842l3.433,2.049A31.749,31.749,0,0,0,45.813,29.8Z" transform="translate(33.028 24.737)" fill="teal"/>
      <path id="Path_211" data-name="Path 211" d="M17.134,32.97l-3.289,2.279a32.15,32.15,0,0,0,5.728,6.285l2.574-3.062A28.027,28.027,0,0,1,17.134,32.97Z" transform="translate(7.838 28.973)" fill="teal"/>
      <path id="Path_212" data-name="Path 212" d="M30.256,39.958l.926,3.89a31.778,31.778,0,0,0,7.941-3.061L37.2,37.281a27.8,27.8,0,0,1-6.941,2.677Z" transform="translate(24.248 33.283)" fill="teal"/>
      <path id="Path_213" data-name="Path 213" d="M18.429,40.2a31.852,31.852,0,0,0,7.726,3.567l1.176-3.824a27.782,27.782,0,0,1-6.754-3.118Z" transform="translate(12.422 32.827)" fill="teal"/>
      <path id="Path_214" data-name="Path 214" d="M32.866,43.027l-.4-3.98a28.084,28.084,0,0,1-2.808.142,22.161,22.161,0,0,1-4.633-.377l-.652,3.945a36.175,36.175,0,0,0,5.287.432C30.723,43.188,31.8,43.134,32.866,43.027Z" transform="translate(18.363 34.813)" fill="teal"/>
      <path id="Path_215" data-name="Path 215" d="M23,55h4v4H23Z" transform="translate(16.993 51.001)" fill="teal"/>
      <path id="Path_216" data-name="Path 216" d="M27,55h4v4H27Z" transform="translate(20.993 51.001)" fill="teal"/>
      <path id="Path_217" data-name="Path 217" d="M31,55h4v4H31Z" transform="translate(24.992 51.001)" fill="teal"/>
    </g>
  </g>
</svg>
