<svg xmlns="http://www.w3.org/2000/svg" xmlns:xlink="http://www.w3.org/1999/xlink" width="126" height="126" viewBox="0 0 126 126">
  <defs>
    <clipPath id="clip-path">
      <rect id="Rectangle_2" data-name="Rectangle 2" width="126" height="126" transform="translate(166 328)" fill="#fff"/>
    </clipPath>
  </defs>
  <g id="Assessment_of_candidates" data-name="Assessment of candidates" transform="translate(-166 -328)" clip-path="url(#clip-path)">
    <g id="business-people" transform="translate(177 328)">
      <path id="Path_18" data-name="Path 18" d="M28.688,35.377A16.688,16.688,0,1,1,45.377,18.688,16.688,16.688,0,0,1,28.688,35.377Zm0-29.2A12.516,12.516,0,1,0,41.2,18.688,12.516,12.516,0,0,0,28.688,6.172Z" transform="translate(-1.57 -2)" fill="teal"/>
      <path id="Path_19" data-name="Path 19" d="M14.086,96.753A2.086,2.086,0,0,1,12,94.667V32.086a2.086,2.086,0,0,1,4.172,0V94.667A2.086,2.086,0,0,1,14.086,96.753Z" transform="translate(-1.57 28.409)" fill="teal"/>
      <path id="Path_20" data-name="Path 20" d="M21.086,79.377A2.086,2.086,0,0,1,19,77.29v-29.2a2.086,2.086,0,1,1,4.172,0v29.2A2.086,2.086,0,0,1,21.086,79.377Z" transform="translate(6.032 45.786)" fill="teal"/>
      <path id="Path_21" data-name="Path 21" d="M28.086,96.753A2.086,2.086,0,0,1,26,94.667V32.086a2.086,2.086,0,0,1,4.172,0V94.667A2.086,2.086,0,0,1,28.086,96.753Z" transform="translate(13.635 28.409)" fill="teal"/>
      <path id="Path_22" data-name="Path 22" d="M48.721,73.237a2.086,2.086,0,0,1,0-4.172c6.152,0,8.344-5.388,8.344-10.43V29.43c0-2.124-8.1-6.258-22.946-6.258S11.172,27.307,11.172,29.43v29.2c0,5.042,2.192,10.43,8.344,10.43a2.086,2.086,0,0,1,0,4.172C12.029,73.237,7,67.369,7,58.635V29.43C7,22.582,20.643,19,34.118,19s27.118,3.582,27.118,10.43v29.2C61.237,67.369,56.208,73.237,48.721,73.237Z" transform="translate(-7 16.463)" fill="teal"/>
      <path id="Path_23" data-name="Path 23" d="M63.946,31.032H43.086A2.086,2.086,0,0,1,41,28.946V8.086A2.086,2.086,0,0,1,43.086,6h20.86a2.086,2.086,0,1,1,0,4.172H45.172V26.86H61.86V24.774a2.086,2.086,0,0,1,4.172,0v4.172A2.086,2.086,0,0,1,63.946,31.032Z" transform="translate(29.925 2.344)" fill="teal"/>
      <path id="Path_24" data-name="Path 24" d="M53.344,20.43a2.086,2.086,0,0,1-1.474-.611l-6.259-6.258a2.086,2.086,0,1,1,2.95-2.95l6.258,6.258a2.086,2.086,0,0,1-1.475,3.561Z" transform="translate(34.269 6.688)" fill="#e9b237"/>
      <path id="Path_25" data-name="Path 25" d="M50.086,24.774a2.086,2.086,0,0,1-1.475-3.561l14.6-14.6a2.086,2.086,0,1,1,2.95,2.95l-14.6,14.6A2.086,2.086,0,0,1,50.086,24.774Z" transform="translate(37.528 2.344)" fill="#e9b237"/>
      <path id="Path_26" data-name="Path 26" d="M63.946,51.032H43.086A2.086,2.086,0,0,1,41,48.946V28.086A2.086,2.086,0,0,1,43.086,26h20.86a2.086,2.086,0,1,1,0,4.172H45.172V46.86H61.86V44.774a2.086,2.086,0,1,1,4.172,0v4.172A2.086,2.086,0,0,1,63.946,51.032Z" transform="translate(29.925 24.065)" fill="teal"/>
      <path id="Path_27" data-name="Path 27" d="M53.344,40.43a2.086,2.086,0,0,1-1.474-.611l-6.259-6.258a2.086,2.086,0,1,1,2.95-2.95l6.258,6.258a2.086,2.086,0,0,1-1.475,3.561Z" transform="translate(34.269 28.409)" fill="#e9b237"/>
      <path id="Path_28" data-name="Path 28" d="M50.086,44.774a2.086,2.086,0,0,1-1.475-3.561l14.6-14.6a2.086,2.086,0,1,1,2.95,2.95l-14.6,14.6A2.087,2.087,0,0,1,50.086,44.774Z" transform="translate(37.528 24.065)" fill="#e9b237"/>
      <path id="Path_29" data-name="Path 29" d="M63.946,71.032H43.086A2.086,2.086,0,0,1,41,68.946V48.086A2.086,2.086,0,0,1,43.086,46h20.86a2.086,2.086,0,1,1,0,4.172H45.172V66.86H61.86V64.774a2.086,2.086,0,0,1,4.172,0v4.172A2.086,2.086,0,0,1,63.946,71.032Z" transform="translate(29.925 45.786)" fill="teal"/>
      <path id="Path_30" data-name="Path 30" d="M53.344,60.43a2.086,2.086,0,0,1-1.474-.611l-6.259-6.258a2.086,2.086,0,1,1,2.95-2.95l6.258,6.258a2.086,2.086,0,0,1-1.475,3.561Z" transform="translate(34.269 50.13)" fill="#e9b237"/>
      <path id="Path_31" data-name="Path 31" d="M50.086,64.774a2.086,2.086,0,0,1-1.475-3.561l14.6-14.6a2.086,2.086,0,1,1,2.95,2.95l-14.6,14.6A2.087,2.087,0,0,1,50.086,64.774Z" transform="translate(37.528 45.786)" fill="#e9b237"/>
    </g>
  </g>
</svg>
