<svg xmlns="http://www.w3.org/2000/svg" xmlns:xlink="http://www.w3.org/1999/xlink" width="64" height="64" viewBox="0 0 64 64">
  <defs>
    <clipPath id="clip-path">
      <rect id="Rectangle_18" data-name="Rectangle 18" width="64" height="64" transform="translate(2113 147)" fill="#fff"/>
    </clipPath>
  </defs>
  <g id="bahrain" transform="translate(-2113 -147)" clip-path="url(#clip-path)">
    <g id="bahrain-2" data-name="bahrain" transform="translate(2113 147)">
      <path id="Path_360" data-name="Path 360" d="M236.786,0h-.026V64h.026a32,32,0,0,0,0-64Z" transform="translate(-204.782)" fill="#cd2029"/>
      <path id="Path_361" data-name="Path 361" d="M175.867,0a32.065,32.065,0,0,0-7.384.866c2.75,1.081,7.042,2.7,7.41,2.843v.019l-9.539,3.392,9.539,3.711v.019l-9.539,3.391,9.539,3.71v.019l-9.539,3.393,9.539,3.71v.019l-9.539,3.392,9.539,3.71v.02L166.355,35.6l9.539,3.711v.019l-9.539,3.392,9.539,3.71v.019l-9.539,3.392,9.539,3.5v.019l-9.539,3.6,9.539,3.709v.019c-.335.113-4.1,1.384-7.068,2.522a32.016,32.016,0,0,0,7.042.788C193.541,64,193.541,0,175.867,0Z" transform="translate(-143.89)" fill="#da1e34"/>
      <path id="Path_362" data-name="Path 362" d="M32.107,65.9,22.569,62.2l9.539-3.6v-.02l-9.539-3.5,9.539-3.391v-.02l-9.539-3.709,9.539-3.391v-.02l-9.539-3.711,9.539-3.391v-.02l-9.539-3.709,9.539-3.392V30.3l-9.539-3.71L32.107,23.2v-.02l-9.539-3.709,9.539-3.39v-.02l-9.539-3.711,9.539-3.391v-.02C31.739,8.8,27.447,7.181,24.7,6.1a32,32,0,0,0,.343,62.346c2.968-1.139,6.733-2.41,7.068-2.522Z" transform="translate(-0.082 -5.276)" fill="#efefef"/>
    </g>
  </g>
</svg>
