<svg xmlns="http://www.w3.org/2000/svg" xmlns:xlink="http://www.w3.org/1999/xlink" width="120" height="120" viewBox="0 0 120 120">
  <defs>
    <clipPath id="clip-path">
      <rect id="Rectangle_11" data-name="Rectangle 11" width="120" height="120" transform="translate(1080 422)" fill="#fff"/>
    </clipPath>
  </defs>
  <g id="Begin_digital_transformation" data-name="Begin digital transformation" transform="translate(-1080 -422)" clip-path="url(#clip-path)">
    <g id="touch" transform="translate(1094.46 422)">
      <path id="Path_302" data-name="Path 302" d="M21.357,75.572A8.914,8.914,0,0,0,11.152,61.257,35.68,35.68,0,0,1,4.69,40.662,36.047,36.047,0,0,1,38.613,4.686,2.345,2.345,0,0,0,38.343,0,40.742,40.742,0,0,0,0,40.662,40.331,40.331,0,0,0,7.611,64.37a8.912,8.912,0,0,0,13.746,11.2ZM12.07,66.286a4.221,4.221,0,1,1,0,5.969,4.21,4.21,0,0,1,0-5.969Zm0,0" transform="translate(0.001 0)" fill="#e9b237"/>
      <path id="Path_303" data-name="Path 303" d="M119.952,91.526a8.334,8.334,0,0,0-4.085,1.064A8.385,8.385,0,0,0,101.82,89.3a8.5,8.5,0,0,0-1.405-1.172,40.737,40.737,0,0,0,24.107-37.186,40.352,40.352,0,0,0-7.611-23.709,8.917,8.917,0,1,0-3.544,3.11A36.05,36.05,0,0,1,92.076,86.02V73.4A23.936,23.936,0,1,0,59.859,50.938,23.739,23.739,0,0,0,64.615,65.26,24.182,24.182,0,0,0,75.3,73.313v34.5l-2.946-4.833a8.637,8.637,0,0,0-11.764-3,8.73,8.73,0,0,0-3.47,11.325l8.748,17.672a2.345,2.345,0,1,0,4.2-2.08l-8.739-17.652a4,4,0,0,1,7.017-3.82l7.293,11.967a2.345,2.345,0,0,0,4.348-1.221V62.356a3.7,3.7,0,0,1,7.4,0v9.276c0,.016,0,.033,0,.05v35.213a2.345,2.345,0,0,0,4.69,0V95.108a3.7,3.7,0,1,1,7.4,0v12.64a2.345,2.345,0,1,0,4.69,0V95.108a3.7,3.7,0,1,1,7.4,0v12.8a2.345,2.345,0,1,0,4.69,0V99.916a3.7,3.7,0,0,1,7.4,0v28.013a2.345,2.345,0,1,0,4.69,0V99.916a8.4,8.4,0,0,0-8.39-8.39ZM106.48,25.314a4.222,4.222,0,1,1,5.97,0,4.226,4.226,0,0,1-5.97,0ZM64.549,50.938A19.245,19.245,0,1,1,92.076,68.313V62.355a8.332,8.332,0,0,0-.85-3.674,10.74,10.74,0,1,0-15.009-.139,8.336,8.336,0,0,0-.921,3.813v5.858A19.146,19.146,0,0,1,64.549,50.938ZM79.43,55.129a5.992,5.992,0,0,1-1.687-4.191A6.051,6.051,0,1,1,88.075,55.21a8.369,8.369,0,0,0-8.644-.081Zm0,0" transform="translate(-43.067 -10.276)" fill="teal"/>
      <path id="Path_304" data-name="Path 304" d="M201.54,8.257a2.347,2.347,0,1,0-1.657-.688A2.36,2.36,0,0,0,201.54,8.257Zm0,0" transform="translate(-152.509 -2.73)" fill="teal"/>
    </g>
  </g>
</svg>
