<svg xmlns="http://www.w3.org/2000/svg" xmlns:xlink="http://www.w3.org/1999/xlink" width="120" height="120" viewBox="0 0 120 120">
  <defs>
    <clipPath id="clip-path">
      <rect id="Rectangle_10" data-name="Rectangle 10" width="120" height="120" transform="translate(940 422)" fill="#fff"/>
    </clipPath>
  </defs>
  <g id="Create_a_roadmap" data-name="Create a roadmap" transform="translate(-940 -422)" clip-path="url(#clip-path)">
    <g id="roadmap" transform="translate(940 436.173)">
      <path id="Path_267" data-name="Path 267" d="M188.629,97.121h-27.82V93.152h27.82a17.541,17.541,0,1,0,0-35.083H175.2V54.1h13.434a21.51,21.51,0,0,1,0,43.021Z" transform="translate(-101.359 -45.875)" fill="teal"/>
      <path id="Path_268" data-name="Path 268" d="M123.237,265.31h49.687v3.969H123.237Z" transform="translate(-77.677 -179.002)" fill="teal"/>
      <path id="Path_269" data-name="Path 269" d="M38.335,202.732H32.621a21.5,21.5,0,1,1,0-43h19.6V163.7h-19.6a17.531,17.531,0,1,0,0,35.063h5.715v3.969Z" transform="translate(-7.003 -112.456)" fill="teal"/>
      <path id="Path_270" data-name="Path 270" d="M44.067,54.1H87.385v3.969H44.067Z" transform="translate(-27.776 -45.875)" fill="teal"/>
      <path id="Path_271" data-name="Path 271" d="M9.177,50.208a9.177,9.177,0,1,1,9.177-9.177A9.188,9.188,0,0,1,9.177,50.208Zm0-14.386a5.209,5.209,0,1,0,5.209,5.209A5.215,5.215,0,0,0,9.177,35.821Z" transform="translate(0 -31.853)" fill="#e9b237"/>
      <path id="Path_272" data-name="Path 272" d="M164.825,50.214a9.2,9.2,0,0,1-9.068-7.855,7.514,7.514,0,0,1-.1-1.313,9.177,9.177,0,0,1,18.355,0,7.75,7.75,0,0,1-.111,1.38A9.193,9.193,0,0,1,164.825,50.214Zm0-14.367a5.2,5.2,0,0,0-5.2,5.2,3.893,3.893,0,0,0,.048.684,5.206,5.206,0,0,0,10.31.067,4.119,4.119,0,0,0,.059-.751A5.215,5.215,0,0,0,164.825,35.847Z" transform="translate(-98.112 -31.869)" fill="#e9b237"/>
      <path id="Path_273" data-name="Path 273" d="M125.91,155.812a9.2,9.2,0,0,1-9.068-7.854,7.544,7.544,0,0,1-.1-1.313,9.177,9.177,0,1,1,18.355,0,7.757,7.757,0,0,1-.111,1.379A9.193,9.193,0,0,1,125.91,155.812Zm0-14.386a5.215,5.215,0,0,0-5.2,5.219,3.912,3.912,0,0,0,.048.685,5.206,5.206,0,0,0,10.31.066,4.117,4.117,0,0,0,.059-.751A5.225,5.225,0,0,0,125.91,141.425Z" transform="translate(-73.583 -98.416)" fill="#e9b237"/>
      <path id="Path_274" data-name="Path 274" d="M88.357,261.445a9.183,9.183,0,0,1-9.089-7.889,7.332,7.332,0,0,1-.1-1.279,9.177,9.177,0,1,1,18.355,0,7.674,7.674,0,0,1-.111,1.36A9.15,9.15,0,0,1,88.357,261.445Zm0-14.388a5.226,5.226,0,0,0-5.219,5.22,3.808,3.808,0,0,0,.048.663,5.2,5.2,0,0,0,10.308.081,4.148,4.148,0,0,0,.061-.744A5.216,5.216,0,0,0,88.357,247.057Z" transform="translate(-49.901 -164.996)" fill="teal"/>
      <path id="Path_275" data-name="Path 275" d="M258.614,265.74a6.344,6.344,0,1,1,6.344-6.344A6.352,6.352,0,0,1,258.614,265.74Zm0-8.72a2.376,2.376,0,1,0,2.376,2.376A2.378,2.378,0,0,0,258.614,257.019Z" transform="translate(-159.007 -171.275)" fill="teal"/>
      <path id="Path_276" data-name="Path 276" d="M266.046,183.439a1.984,1.984,0,0,1-1.984-1.984v-2.423a1.984,1.984,0,1,1,3.968,0v2.423A1.984,1.984,0,0,1,266.046,183.439Z" transform="translate(-166.44 -123.37)" fill="teal"/>
      <path id="Path_277" data-name="Path 277" d="M266.046,234.718a1.984,1.984,0,0,1-1.984-1.984v-13.08a1.984,1.984,0,0,1,3.968,0v13.08A1.984,1.984,0,0,1,266.046,234.718Z" transform="translate(-166.44 -148.975)" fill="teal"/>
      <path id="Path_278" data-name="Path 278" d="M284.455,200.165H266.046a1.984,1.984,0,0,1-1.984-1.984V185.586a1.984,1.984,0,0,1,1.984-1.984h18.409a1.984,1.984,0,0,1,1.629,3.117l-3.591,5.163,3.592,5.166a1.984,1.984,0,0,1-1.63,3.117ZM268.031,196.2h12.629l-2.213-3.182a1.985,1.985,0,0,1,0-2.266l2.211-3.179H268.031V196.2Z" transform="translate(-166.44 -127.501)" fill="teal"/>
    </g>
  </g>
</svg>
