<svg xmlns="http://www.w3.org/2000/svg" xmlns:xlink="http://www.w3.org/1999/xlink" width="120" height="120" viewBox="0 0 120 120">
  <defs>
    <clipPath id="clip-path">
      <rect id="Rectangle_11" data-name="Rectangle 11" width="120" height="120" transform="translate(1080 970)" fill="#fff"/>
    </clipPath>
  </defs>
  <g id="Define_the_goals_and_objectives" data-name="Define the goals and objectives" transform="translate(-1080 -970)" clip-path="url(#clip-path)">
    <g id="aim" transform="translate(1083.99 1088.005) rotate(-90)">
      <g id="Group_60" data-name="Group 60" transform="translate(0 0)">
        <g id="Group_58" data-name="Group 58">
          <path id="Path_114" data-name="Path 114" d="M45.878,97.91a45.87,45.87,0,1,0,23.685,85.143l-3.851-6.364a38.457,38.457,0,1,1,13.082-13.08l6.365,3.85a45.853,45.853,0,0,0-39.28-69.55Z" transform="translate(0 -97.91)" fill="teal"/>
        </g>
        <g id="Group_59" data-name="Group 59" transform="translate(20.399 20.395)">
          <path id="Path_115" data-name="Path 115" d="M107.772,180.188a25.474,25.474,0,1,0,7.935,49.688l-2.315-7.069a18.013,18.013,0,1,1,11.451-11.3l7.038,2.411a25.49,25.49,0,0,0-24.109-33.734Z" transform="translate(-82.293 -180.188)" fill="teal"/>
        </g>
      </g>
      <path id="Path_116" data-name="Path 116" d="M229.522,63.295l-9.685,1.465-1.465,9.684a3.754,3.754,0,0,1-6.308,2.074l-13.93-13.928a3.72,3.72,0,0,1-1.049-3.176l1.559-10.5-34.22-34.286a7.442,7.442,0,1,1,5.266-5.254L203.9,43.643l10.573-1.629a3.754,3.754,0,0,1,3.2,1.046L231.6,56.988c1.4,1.093,1.957,5.8-2.074,6.307ZM213.738,49.653l-7.865,1.212-1.156,7.789,7.4,7.4.774-5.115a3.719,3.719,0,0,1,3.122-3.121l5.116-.774Z" transform="translate(-116.627 38.432)" fill="#e9b237"/>
    </g>
  </g>
</svg>
