<svg xmlns="http://www.w3.org/2000/svg" xmlns:xlink="http://www.w3.org/1999/xlink" width="120" height="120" viewBox="0 0 120 120">
  <defs>
    <clipPath id="clip-path">
      <rect id="Rectangle_12" data-name="Rectangle 12" width="120" height="120" transform="translate(800 1244)" fill="#fff"/>
    </clipPath>
  </defs>
  <g id="Define_objectives" data-name="Define objectives" transform="translate(-800 -1244)" clip-path="url(#clip-path)">
    <g id="target_1_" data-name="target (1)" transform="translate(800 1244)">
      <path id="Path_297" data-name="Path 297" d="M116.484,56.484h-7.392A49.293,49.293,0,0,0,63.516,10.908V3.516a3.516,3.516,0,1,0-7.031,0v7.392A49.293,49.293,0,0,0,10.908,56.484H3.516a3.516,3.516,0,1,0,0,7.031h7.393a49.293,49.293,0,0,0,45.576,45.576v7.393a3.516,3.516,0,1,0,7.031,0v-7.392a49.293,49.293,0,0,0,45.576-45.576h7.392a3.516,3.516,0,1,0,0-7.031ZM63.516,102.04v-10.4a3.516,3.516,0,1,0-7.031,0v10.4A42.255,42.255,0,0,1,17.96,63.516h10.4a3.516,3.516,0,1,0,0-7.031H17.96A42.255,42.255,0,0,1,56.484,17.96v10.4a3.516,3.516,0,1,0,7.031,0V17.96A42.255,42.255,0,0,1,102.04,56.484h-10.4a3.516,3.516,0,1,0,0,7.031h10.4A42.255,42.255,0,0,1,63.516,102.04Z" transform="translate(0 0)" fill="teal"/>
      <path id="Path_298" data-name="Path 298" d="M206.038,173.2l-9.852-2.411-5.338-8.625a3.516,3.516,0,0,0-5.979,0l-5.338,8.625-9.852,2.411a3.516,3.516,0,0,0-1.848,5.686l6.553,7.742-.751,10.115a3.516,3.516,0,0,0,4.837,3.514l9.388-3.84,9.388,3.84a3.516,3.516,0,0,0,4.837-3.514l-.751-10.115,6.553-7.742a3.516,3.516,0,0,0-1.847-5.687Zm-11,9.983a3.516,3.516,0,0,0-.823,2.532l.437,5.884-5.461-2.234a3.515,3.515,0,0,0-2.662,0l-5.461,2.234.437-5.884a3.516,3.516,0,0,0-.823-2.532l-3.812-4.5,5.731-1.4a3.515,3.515,0,0,0,2.154-1.565l3.105-5.017,3.105,5.017a3.514,3.514,0,0,0,2.154,1.565l5.731,1.4Z" transform="translate(-127.858 -122.883)" fill="#e9b237"/>
    </g>
  </g>
</svg>
