<svg xmlns="http://www.w3.org/2000/svg" xmlns:xlink="http://www.w3.org/1999/xlink" width="120" height="120" viewBox="0 0 120 120">
  <defs>
    <clipPath id="clip-path">
      <rect id="Rectangle_9" data-name="Rectangle 9" width="120" height="120" transform="translate(1220 158)" fill="#fff"/>
    </clipPath>
  </defs>
  <g id="Digital" transform="translate(-1220 -158)" clip-path="url(#clip-path)">
    <g id="technical-support" transform="translate(1221.132 159.132)">
      <path id="Path_336" data-name="Path 336" d="M20.707,91.05a9.6,9.6,0,0,0-4.639,1.184A54.294,54.294,0,0,1,69.676,5.675a2.3,2.3,0,0,0,.911-4.508A59.306,59.306,0,0,0,58.868,0a58.868,58.868,0,0,0-46.2,95.351,9.662,9.662,0,1,0,8.039-4.3Zm3.577,13.235a5.058,5.058,0,1,1,1.482-3.577A5.024,5.024,0,0,1,24.284,104.285Zm0,0" transform="translate(0 0.001)" fill="#fff"/>
      <path id="Path_337" data-name="Path 337" d="M257.138,47.063a9.638,9.638,0,1,0-3.4,3.12,54.294,54.294,0,0,1-53.5,86.58,2.3,2.3,0,1,0-.9,4.51,59.347,59.347,0,0,0,11.607,1.144,58.868,58.868,0,0,0,46.2-95.354Zm-11.614-1.777a5.06,5.06,0,1,1,3.577,1.481A5.026,5.026,0,0,1,245.524,45.287Zm0,0" transform="translate(-152.071 -24.68)" fill="#fff"/>
      <path id="Path_338" data-name="Path 338" d="M106.35,155.4a2.3,2.3,0,0,0,2.3,2.3h14.378a2.3,2.3,0,0,0,2.3-2.3v-4.458a36.012,36.012,0,0,0,8.631-3.577l3.147,3.147a2.3,2.3,0,0,0,3.253,0l10.163-10.17a2.3,2.3,0,0,0,0-3.252l-3.144-3.144a36.01,36.01,0,0,0,3.577-8.631H155.4a2.3,2.3,0,0,0,2.3-2.3V108.641a2.3,2.3,0,0,0-2.3-2.3h-4.442a36.016,36.016,0,0,0-3.576-8.63l3.127-3.127a2.3,2.3,0,0,0,0-3.253L140.332,81.169a2.3,2.3,0,0,0-3.252,0l-3.122,3.123a36.011,36.011,0,0,0-8.631-3.577V76.3a2.3,2.3,0,0,0-2.3-2.3H108.65a2.3,2.3,0,0,0-2.3,2.3v4.418a35.979,35.979,0,0,0-8.63,3.576L94.6,81.17a2.3,2.3,0,0,0-3.252,0L81.176,91.333a2.3,2.3,0,0,0,0,3.253L84.3,97.712a36,36,0,0,0-3.577,8.63H76.292a2.3,2.3,0,0,0-2.3,2.3l-.008,14.378a2.3,2.3,0,0,0,2.3,2.3h4.441A36.011,36.011,0,0,0,84.3,133.95l-3.144,3.144a2.3,2.3,0,0,0,0,3.252l10.163,10.17a2.3,2.3,0,0,0,1.626.675h0a2.3,2.3,0,0,0,1.626-.674l3.147-3.147a36.041,36.041,0,0,0,8.631,3.577Zm-7.729-12.871a2.3,2.3,0,0,0-2.874.305l-2.8,2.8-6.912-6.918,2.8-2.8a2.3,2.3,0,0,0,.305-2.874,31.476,31.476,0,0,1-4.356-10.512,2.3,2.3,0,0,0-2.248-1.816h-3.95l.005-9.779h3.944a2.3,2.3,0,0,0,2.248-1.816,31.478,31.478,0,0,1,4.356-10.511,2.3,2.3,0,0,0-.305-2.874l-2.779-2.78,6.917-6.912,2.777,2.777a2.3,2.3,0,0,0,2.874.305,31.462,31.462,0,0,1,10.511-4.356,2.3,2.3,0,0,0,1.816-2.248V78.6h9.779v3.926a2.3,2.3,0,0,0,1.816,2.248,31.489,31.489,0,0,1,10.511,4.356,2.3,2.3,0,0,0,2.874-.305l2.777-2.777,6.918,6.912-2.779,2.779a2.3,2.3,0,0,0-.305,2.874,31.5,31.5,0,0,1,4.356,10.511,2.3,2.3,0,0,0,2.248,1.816H153.1v9.779h-3.951a2.3,2.3,0,0,0-2.248,1.816,31.47,31.47,0,0,1-4.356,10.511,2.3,2.3,0,0,0,.305,2.874l2.8,2.8-6.912,6.917-2.8-2.8a2.3,2.3,0,0,0-2.874-.305,31.5,31.5,0,0,1-10.511,4.356,2.3,2.3,0,0,0-1.816,2.248V153.1h-9.779v-3.968a2.3,2.3,0,0,0-1.816-2.248,31.478,31.478,0,0,1-10.511-4.356Zm0,0" transform="translate(-56.971 -56.983)" fill="#fff"/>
      <path id="Path_339" data-name="Path 339" d="M211.373,192.372a19,19,0,1,0-19,19A19.022,19.022,0,0,0,211.373,192.372Zm-33.4,0a14.4,14.4,0,1,1,14.4,14.4A14.418,14.418,0,0,1,177.97,192.372Zm0,0" transform="translate(-133.504 -133.503)" fill="#fff"/>
      <path id="Path_340" data-name="Path 340" d="M340.378,22.41a2.3,2.3,0,1,0-1.625-.674A2.316,2.316,0,0,0,340.378,22.41Zm0,0" transform="translate(-260.335 -13.713)" fill="#fff"/>
      <path id="Path_341" data-name="Path 341" d="M156.659,474.359a2.3,2.3,0,1,0,1.626.674A2.318,2.318,0,0,0,156.659,474.359Zm0,0" transform="translate(-118.863 -365.278)" fill="#fff"/>
    </g>
  </g>
</svg>
