<svg xmlns="http://www.w3.org/2000/svg" xmlns:xlink="http://www.w3.org/1999/xlink" width="120" height="120" viewBox="0 0 120 120">
  <defs>
    <clipPath id="clip-path">
      <rect id="Rectangle_12" data-name="Rectangle 12" width="120" height="120" transform="translate(800 1792)" fill="#fff"/>
    </clipPath>
  </defs>
  <g id="Discovery_meeting" data-name="Discovery meeting" transform="translate(-800 -1792)" clip-path="url(#clip-path)">
    <g id="coordination" transform="translate(800 1803.901)">
      <path id="Path_186" data-name="Path 186" d="M175.028,20.908a36.5,36.5,0,0,0-60.884-1.314l-3.153-2.245a40.373,40.373,0,0,1,67.281,1.444Zm0,0" transform="translate(-84.139 -0.004)" fill="teal"/>
      <path id="Path_187" data-name="Path 187" d="M314.6,240.99,312.91,237.5A38.684,38.684,0,0,0,333.6,210.782l3.788.807a42.58,42.58,0,0,1-22.8,29.4Zm0,0" transform="translate(-237.207 -159.788)" fill="teal"/>
      <path id="Path_188" data-name="Path 188" d="M104.735,241.23a42.6,42.6,0,0,1-22.766-29.307l3.784-.815a38.7,38.7,0,0,0,20.668,26.635Zm0,0" transform="translate(-62.138 -160.036)" fill="teal"/>
      <path id="Path_189" data-name="Path 189" d="M216.484,332.5H192.623a1.935,1.935,0,0,1-1.935-1.935V316.858a5.837,5.837,0,0,1,5.762-5.9h3.323a1.934,1.934,0,0,1,1.658.936l3.123,5.181,3.123-5.181a1.939,1.939,0,0,1,1.658-.936h3.323a5.839,5.839,0,0,1,5.762,5.9v13.707a1.935,1.935,0,0,1-1.935,1.935Zm-21.925-3.871h19.99V316.858a1.965,1.965,0,0,0-1.891-2.03h-2.229l-4.218,6.994a2.011,2.011,0,0,1-3.315,0l-4.218-6.994h-2.229a1.968,1.968,0,0,0-1.891,2.03Zm0,0" transform="translate(-144.555 -235.728)" fill="teal"/>
      <path id="Path_190" data-name="Path 190" d="M220.12,242.62a9.065,9.065,0,0,1-8.9-9.2v-2.421a8.9,8.9,0,1,1,17.8,0v2.421A9.065,9.065,0,0,1,220.12,242.62Zm0-16.96a5.192,5.192,0,0,0-5.027,5.334v2.421a5.036,5.036,0,1,0,10.053,0v-2.421A5.192,5.192,0,0,0,220.12,225.66Zm0,0" transform="translate(-160.121 -168.133)" fill="#e9b237"/>
      <path id="Path_191" data-name="Path 191" d="M25.8,114.5H1.936A1.935,1.935,0,0,1,0,112.566V96.539A3.7,3.7,0,0,1,1.953,93.3l4.28-2.332a1.936,1.936,0,0,1,2.549.645,6.171,6.171,0,0,0,10.169,0,1.933,1.933,0,0,1,2.634-.6l4.365,2.677a3.673,3.673,0,0,1,1.784,3.139v15.731A1.936,1.936,0,0,1,25.8,114.5ZM3.864,110.63h20v-13.8l-2.828-1.653a9.945,9.945,0,0,1-7.169,2.979,9.951,9.951,0,0,1-7.2-3.016L3.8,96.7Zm0,0" transform="translate(0 -68.782)" fill="teal"/>
      <path id="Path_192" data-name="Path 192" d="M29.433,23.873a9.066,9.066,0,0,1-8.9-9.2V12.247a9.066,9.066,0,0,1,8.9-9.2,9.066,9.066,0,0,1,8.9,9.2V14.67a9.067,9.067,0,0,1-8.9,9.2Zm0-16.961a5.193,5.193,0,0,0-5.027,5.332v2.424A5.191,5.191,0,0,0,29.433,20a5.193,5.193,0,0,0,5.029-5.332V12.244A5.193,5.193,0,0,0,29.433,6.912Zm0,0" transform="translate(-15.567 -2.308)" fill="#e9b237"/>
      <path id="Path_193" data-name="Path 193" d="M407.165,113.952H383.3a1.936,1.936,0,0,1-1.935-1.935V96.258a3.7,3.7,0,0,1,2.3-3.393l6.475-2.706a1.937,1.937,0,0,1,2.467.9l2.621,5.106,2.621-5.106a1.928,1.928,0,0,1,2.539-.87l6.54,3.038a3.706,3.706,0,0,1,2.168,3.333v15.454A1.938,1.938,0,0,1,407.165,113.952Zm-21.936-3.871h20V96.705l-4.781-2.222-2.6,5.077a2.931,2.931,0,0,1-2.611,1.608h0a2.925,2.925,0,0,1-2.607-1.61l-2.636-5.136-4.82,2.017ZM405.3,96.739h0Zm0,0" transform="translate(-289.102 -68.233)" fill="teal"/>
      <path id="Path_194" data-name="Path 194" d="M410.988,23.552a9.065,9.065,0,0,1-8.9-9.2V11.926a8.9,8.9,0,1,1,17.8,0v2.423A9.064,9.064,0,0,1,410.988,23.552Zm0-16.961a5.192,5.192,0,0,0-5.028,5.333v2.423a5.036,5.036,0,1,0,10.054,0V11.925A5.193,5.193,0,0,0,410.988,6.592Zm0,0" transform="translate(-304.812 -2.065)" fill="#e9b237"/>
    </g>
  </g>
</svg>
