<svg xmlns="http://www.w3.org/2000/svg" xmlns:xlink="http://www.w3.org/1999/xlink" width="120" height="120" viewBox="0 0 120 120">
  <defs>
    <clipPath id="clip-path">
      <rect id="Rectangle_9" data-name="Rectangle 9" width="120" height="120" transform="translate(1080 158)" fill="#fff"/>
    </clipPath>
  </defs>
  <g id="Discovery" transform="translate(-1080 -158)" clip-path="url(#clip-path)">
    <g id="loupe" transform="translate(1081.131 159.132)">
      <path id="Path_315" data-name="Path 315" d="M77.178,0A40.537,40.537,0,0,0,44.884,65.07l-8.216,8.216a1.938,1.938,0,0,0-.145.164,10.125,10.125,0,0,0-2.067-.214,9.98,9.98,0,0,0-7.1,2.943L2.942,100.59a10.044,10.044,0,1,0,14.206,14.2L41.56,90.383a9.976,9.976,0,0,0,2.942-7.1,10.128,10.128,0,0,0-.214-2.067,1.89,1.89,0,0,0,.163-.144l8.216-8.216A40.552,40.552,0,1,0,77.178,0ZM14.45,112.1a6.23,6.23,0,1,1-8.811-8.81L27.686,81.241l8.81,8.81ZM39.18,87.341l-8.78-8.78a6.226,6.226,0,0,1,8.78,8.78Zm3.472-9.867a10.017,10.017,0,0,0-2.389-2.388l7.08-7.08q1.144,1.243,2.389,2.389ZM77.178,77.3A36.745,36.745,0,1,1,113.923,40.56,36.787,36.787,0,0,1,77.178,77.3Z" fill="#fff"/>
      <path id="Path_316" data-name="Path 316" d="M208.423,32a32.422,32.422,0,1,0,32.422,32.422A32.459,32.459,0,0,0,208.423,32Zm0,61.03a28.608,28.608,0,1,1,28.608-28.608A28.64,28.64,0,0,1,208.423,93.03Z" transform="translate(-131.245 -23.863)" fill="#fff"/>
    </g>
  </g>
</svg>
