<svg xmlns="http://www.w3.org/2000/svg" xmlns:xlink="http://www.w3.org/1999/xlink" width="64" height="64" viewBox="0 0 64 64">
  <defs>
    <clipPath id="clip-path">
      <rect id="Rectangle_19" data-name="Rectangle 19" width="64" height="64" transform="translate(2192 147)" fill="#fff"/>
    </clipPath>
  </defs>
  <g id="egypt" transform="translate(-2192 -147)" clip-path="url(#clip-path)">
    <g id="egypt-2" data-name="egypt" transform="translate(2192 147)">
      <ellipse id="Ellipse_11" data-name="Ellipse 11" cx="31.999" cy="31.999" rx="31.999" ry="31.999" transform="translate(0.003 0.003)" fill="#fff"/>
      <path id="Path_363" data-name="Path 363" d="M333.936,157.875H314.22a88.474,88.474,0,0,1,.017,21.212h19.742a32.03,32.03,0,0,0-.042-21.212Z" transform="translate(-271.765 -136.544)" fill="#efecec"/>
      <path id="Path_364" data-name="Path 364" d="M265.7,22.171h19.716a.22.22,0,0,0-.01-.028A32.018,32.018,0,0,0,258.115.972C263.013,3.657,264.443,12.164,265.7,22.171Z" transform="translate(-223.241 -0.841)" fill="#c42b27"/>
      <path id="Path_365" data-name="Path 365" d="M258.115,336.2a32.021,32.021,0,0,0,27.309-21.234c.011-.031.02-.061.031-.091H265.713C264.47,324.933,263.033,333.5,258.115,336.2Z" transform="translate(-223.241 -272.328)" fill="#0b0b0b"/>
      <path id="Path_366" data-name="Path 366" d="M0,168.545a31.954,31.954,0,0,0,1.786,10.542H44.119a88.482,88.482,0,0,0-.016-21.212H1.829A31.933,31.933,0,0,0,0,168.545Z" transform="translate(0 -136.544)" fill="#efefef"/>
      <path id="Path_367" data-name="Path 367" d="M13.543,21.3c0,.009-.006.018-.01.028H55.808C54.555,11.323,51.476,2.816,46.578.131,45.631.048,44.673,0,43.7,0A32.006,32.006,0,0,0,13.543,21.3Z" transform="translate(-11.705)" fill="#cc3434"/>
      <path id="Path_368" data-name="Path 368" d="M55.552,314.871H13.219c.011.03.021.06.031.091a32.009,32.009,0,0,0,30.183,21.366c.969,0,1.927-.048,2.875-.132C51.226,333.5,54.309,324.933,55.552,314.871Z" transform="translate(-11.433 -272.328)" fill="#151515"/>
      <g id="Group_142" data-name="Group 142" transform="translate(25.665 24.623)">
        <path id="Path_369" data-name="Path 369" d="M202.533,197.061a8.65,8.65,0,0,0-1.424-.046c-.088.051-.077.2-.116.3.046.094.14.042.234.116.146.14.245.329.467.4-.191.2-.185.593-.467.7.048.459-.251.54-.7.63a27.431,27.431,0,0,1-7.8.163,3.9,3.9,0,0,1-1.331-.349.436.436,0,0,1-.116-.4c-.27-.134-.273-.536-.49-.724.3-.1.36-.448.7-.513a1.045,1.045,0,0,0-.071-.326,9.364,9.364,0,0,0-1.47.046c.037-.522.049-1.115.094-1.727.059-.818.051-1.776.116-2.59.034-.415.021-.845.048-1.26.048-.789.014-1.572.07-2.311.06-.8.032-1.649.093-2.4.062-.782.277-1.406,1.19-1.331,1.082.09,1.761,1,2.941,1a3.077,3.077,0,0,0,.793-2.637c-.07-.455-.552-1.112-1.026-.864-.07-.767.66-.664,1.143-.42.147-.092.191-.221.35-.257a1.756,1.756,0,0,1,1.1.21,1.512,1.512,0,0,1,.537,1.354c0,.326-.074.651-.048.98a2.942,2.942,0,0,0,.584,1.611c1.1.1,1.9-.875,2.963-.981a1.073,1.073,0,0,1,1.027.42,20.388,20.388,0,0,1,.3,3.618c.058.754.024,1.542.07,2.311C202.405,193.527,202.457,195.274,202.533,197.061Zm-5.252-12.207a6.808,6.808,0,0,0-.093-1.891c-.1-.1-.164-.241-.3-.3h-.349c-.175.094-.239.288-.42.326-.432.092-.466-.318-.793-.443-.085-.033-.2-.015-.3-.048-.313-.1-.5-.207-.653.234.571-.033,1.082.151,1.214.631-.326-.091-.235.2-.21.4a3.468,3.468,0,0,1-.42,2.265c-.155.252-.354.448-.467.677.34-.063.646-.044.817-.258.229-.285.179-.895.326-1.236a2.523,2.523,0,0,1-.559,1.657c.832-.117.976-.811,1.05-1.657a2.2,2.2,0,0,1-.187,1.167c.108.134.169.315.327.4a1.138,1.138,0,0,0,.3-.42,1.775,1.775,0,0,1-.14-1.144c-.011.9.235,1.54,1,1.657a2.323,2.323,0,0,1-.514-1.681,3.774,3.774,0,0,0,.3,1.284,1.66,1.66,0,0,0,.818.234A3.246,3.246,0,0,1,197.281,184.855Zm-1.469-2.124v.093c.056-.009.051.044.116.024a.143.143,0,0,0,.024-.116A.115.115,0,0,0,195.812,182.731Zm-4.5,2.777a.892.892,0,0,0-.793.981c.226-.078.441-.289.677-.28-.126,3.512-.28,6.707-.42,10.176a2.767,2.767,0,0,0-.607.583h1.26c.066-.557.692-.671,1.214-.514.248-.856.5-1.709.725-2.59-.232.142-.35.4-.584.537.084-2.246.2-4.432.28-6.722a2.053,2.053,0,0,0,1.517.21,4.658,4.658,0,0,0,1.7-.747,3.81,3.81,0,0,0,2.1.793,2.539,2.539,0,0,0,1.074-.21c.049,2.288.212,4.527.257,6.7a6.542,6.542,0,0,0-.559-.538c.206.883.474,1.7.7,2.568.544-.172,1.144-.023,1.237.514.411-.016.886.031,1.259-.024-.147-.261-.509-.335-.606-.607a4.719,4.719,0,0,1-.046-1.168c-.128-2.822-.308-6.156-.374-8.984a7.11,7.11,0,0,1,.677.3c-.053-.562-.286-.945-.817-.981-1.208-.081-1.9,1.03-3.127,1,0,.148.238.181.21.28a3.549,3.549,0,0,1-.817-.116c-.023.129.212.188.233.349a2.083,2.083,0,0,1-1.1-.536,2.163,2.163,0,0,1-.35.443,2.776,2.776,0,0,0-.35-.443,1.522,1.522,0,0,1-1.073.513c.068-.118.209-.164.233-.326a2.116,2.116,0,0,1-.817.094c.072-.085.2-.116.21-.258C193.276,186.544,192.468,185.419,191.307,185.508Zm2.264,2.522c.046,2.559,1.022,4.392,2.707,5.391a6.089,6.089,0,0,0,2.638-5.391,4.812,4.812,0,0,1-1.913-.35c-.287-.123-.563-.35-.793-.42A4.145,4.145,0,0,1,193.571,188.03Zm.046,1.7c-.022,1.134-.2,2.518-.116,3.688a7.937,7.937,0,0,0,.21-2.264,3.072,3.072,0,0,0-.07-1.494A.11.11,0,0,1,193.617,189.733Zm5.182,2.1a3.728,3.728,0,0,0,.233,1.61c.024-1.241-.132-2.532-.139-3.758-.031,0-.032-.029-.07-.023A9.6,9.6,0,0,0,198.8,191.834Zm-4.808,1.33c.2-.227.425-.43.607-.678a1.8,1.8,0,0,0-.42-1.189C194.1,191.9,193.528,192.67,193.991,193.164Zm3.921-.654c.219.2.407.558.653.654.348-.567-.154-1.176-.209-1.821-.031,0-.033-.031-.071-.023A1.858,1.858,0,0,0,197.912,192.51Zm-3.128,1.051a6.469,6.469,0,0,0,.583-.747c-.29-.231-.5-.541-.769-.794C194.658,192.535,194.692,193.076,194.784,193.561Zm2.358-.725a3.944,3.944,0,0,0,.607.725c.048-.505.086-1.019.163-1.494,0-.029-.007-.055-.046-.048A8,8,0,0,1,197.142,192.836Zm-3.221.467c-.029-.15-.108-.25-.14-.4a3.2,3.2,0,0,0-.326,1.026c-.037.13-.127.237-.116.374.267-.115.377-.386.653-.491a5.809,5.809,0,0,0,.233.607c.216-.1.206-.432.4-.56.106.376.216.748.349,1.1.249-.21.532-.387.607-.771-.14-.319-.268-.649-.4-.98-.189.129-.31.453-.467.537a3.607,3.607,0,0,0-.164-1.12A4.3,4.3,0,0,1,193.921,193.3Zm3.874.467c-.17-.173-.287-.4-.467-.559-.067.153-.146.3-.21.467a2.018,2.018,0,0,0-.186.513c-.018.366.386.538.607.771a6.687,6.687,0,0,1,.3-1.1c.145.182.21.444.42.56.108-.2.182-.424.28-.631a6.229,6.229,0,0,0,.607.514,8.191,8.191,0,0,0-.42-1.424,1.837,1.837,0,0,1-.186.419,6.246,6.246,0,0,0-.631-.653A7.424,7.424,0,0,0,197.8,193.77Zm-2.381-.886c-.378.269.041.816.187,1.121.066-.269.127-.543.186-.818C195.66,193.09,195.537,192.988,195.414,192.884Zm1.307.326a2.8,2.8,0,0,0,.21.794c.13-.275.227-.583.349-.864-.066-.1-.109-.218-.233-.257C196.992,193.045,196.787,193.058,196.722,193.21Zm-2.824.7a2.383,2.383,0,0,1-.607.514c-.163.471.174.871.326,1.236.212-.154.3-.43.514-.583a3.529,3.529,0,0,0,.28.793c.229-.161.36-.541.582-.63a1.761,1.761,0,0,0,.187.724c.083-.446.189-.868.279-1.308-.189.038-.326.326-.513.444-.129-.338-.213-.719-.349-1.051-.183.128-.209.414-.374.56A2.177,2.177,0,0,0,193.9,193.91Zm4.341.7c-.133-.193-.212-.44-.42-.56-.084.351-.179.692-.256,1.051-.195-.112-.325-.407-.514-.444a6.074,6.074,0,0,0,.326,1.33,4.293,4.293,0,0,1,.164-.769c.21.2.32.5.583.653.073-.277.173-.527.257-.793.2.169.291.44.514.583.129-.375.458-.725.326-1.213-.243-.154-.423-.37-.653-.538C198.429,194.116,198.38,194.409,198.238,194.611Zm-2.543,1.843c-.12.067-.205.17-.327.234-.049-.058-.193-.249-.233-.164s-.036.213-.07.3c.223.021.663-.065.769.14.316-.043.57.059.817,0,.092-.023.164-.122.257-.14.174-.034.343.031.514,0-.032-.1-.007-.258-.071-.326-.153-.006-.126.168-.279.163-.08-.107-.224-.15-.3-.257-.089-.649-.145-1.333-.279-1.937-.053.645.095,1.289.069,1.984-.125.108-.185.281-.326.374-.053-.156-.265-.236-.3-.443-.1-.57.212-1.455.071-1.914C195.867,195.1,195.838,195.836,195.7,196.454Zm-2.988.024a.575.575,0,0,0,.4.093,3.771,3.771,0,0,1,.443-.559,5.433,5.433,0,0,0,.281.724h.163c.126-.153.2-.363.326-.513.082.182.121.408.209.583a1.592,1.592,0,0,0,.42.024,1.809,1.809,0,0,0-.023-1.447c-.214.191-.341.468-.56.653a2.355,2.355,0,0,0-.3-.793c-.163.185-.309.39-.466.583-.166-.293-.212-.706-.444-.934C193.025,195.442,192.866,195.96,192.707,196.478Zm6.185-.653a2.682,2.682,0,0,0-.491-.583c-.137.228-.158.573-.3.793-.179-.2-.342-.544-.559-.631a1.842,1.842,0,0,0,.024,1.424,1.411,1.411,0,0,0,.4-.024c.108-.164.125-.418.233-.583.1.174.2.34.3.513h.186a7.4,7.4,0,0,1,.3-.747,3.425,3.425,0,0,0,.443.607c.13-.033.3-.032.35-.14-.158-.5-.29-1.032-.443-1.54h-.07C199.155,195.231,199.025,195.529,198.893,195.824Zm-5.719.794a4.794,4.794,0,0,0,.56.093,1.308,1.308,0,0,0-.257-.559C193.4,196.329,193.234,196.422,193.174,196.618Zm5.6.093a4.371,4.371,0,0,0,.537-.093c-.018-.141-.2-.312-.3-.443C198.862,196.284,198.831,196.512,198.775,196.711Zm-4.691.047c.077.048.237.013.35.024-.044-.135-.036-.322-.163-.374A1.176,1.176,0,0,0,194.084,196.758Zm3.992.024h.326a.438.438,0,0,0-.234-.374C198.163,196.547,198.042,196.678,198.076,196.782Zm2.264-.328a17.585,17.585,0,0,1-1.937.4,9.687,9.687,0,0,1-1.494.046c-.137.148-.066.318.024.467a5.423,5.423,0,0,0,1.47-.024c-.026-.5.562-.618.63-.093a6.221,6.221,0,0,0,1.47-.374C200.506,196.677,200.506,196.483,200.34,196.454Zm-6.675.351c-.4-.057-.94-.247-1.308-.326-.208-.046-.27-.008-.349.093v.327a7.677,7.677,0,0,0,1.47.35c.043-.527.636-.428.606.093a5.469,5.469,0,0,0,1.471.024c.1-.164.172-.284.046-.467A10.774,10.774,0,0,1,193.665,196.8Zm-2.124.28a.974.974,0,0,0,.4-.21c-.011-.114.024-.273-.024-.35A.436.436,0,0,0,191.541,197.085Zm9.032-.186a1.1,1.1,0,0,0,.4.186.456.456,0,0,0-.373-.56C200.548,196.608,200.583,196.777,200.573,196.9Zm-6.792.63a.976.976,0,0,1,.186-.14.517.517,0,0,0-.093-.419C193.464,196.911,193.48,197.482,193.781,197.528Zm4.738-.163c.033.081.141.1.233.163.1-.053.141-.155.21-.233C198.95,196.783,198.363,196.992,198.519,197.365Zm-5.088-.046c-.622-.021-1.247-.457-1.8-.186-.018.114-.1.162-.07.326-.263-.028-.566.323-.583.444-.036.265.228.458.373.631a.574.574,0,0,0,.07.372,20.945,20.945,0,0,0,7.679.4c.716-.08,1.858-.153,2.054-.56v-.28c.259-.068.3-.352.373-.607-.207-.135-.277-.407-.607-.419.065-.094-.046-.179-.046-.28-.291-.248-.639-.066-1.05.023-.565.123-.936.124-1.075.538-.058-.144-.2-.207-.3-.3a4.848,4.848,0,0,1-1.493.024c-.121.189-.388.234-.42.513a1.165,1.165,0,0,1-.164-.56h-.233a1.264,1.264,0,0,1-.187.56c-.019-.284-.3-.31-.4-.513a6.511,6.511,0,0,1-1.5,0c-.16.049-.228.19-.349.28C193.693,197.508,193.524,197.451,193.431,197.319Zm2.544-.281a.989.989,0,0,0,.164.281c.284.058.31-.141.4-.281A1.4,1.4,0,0,0,195.975,197.038Zm-.327.4a.887.887,0,0,0,.35.257c.091-.242.028-.6-.234-.631C195.785,197.246,195.628,197.251,195.648,197.435Zm1-.374c-.145.1-.327.493-.094.631.089-.115.248-.157.3-.3C196.764,197.307,196.786,197.105,196.652,197.061Z" transform="translate(-189.953 -182.241)" fill="#eebc31"/>
        <path id="Path_370" data-name="Path 370" d="M197.833,221.725a6.872,6.872,0,0,1-.793.676c.111-3.186.314-6.459.42-9.755a3.226,3.226,0,0,1,.724.607C198.083,216.1,197.95,218.715,197.833,221.725Z" transform="translate(-196.082 -208.538)" fill="#eebc31"/>
        <path id="Path_371" data-name="Path 371" d="M268.555,222.235c-.133.026-.263-.193-.4-.3a2.01,2.01,0,0,1-.42-.373c-.147-2.4-.112-4.941-.3-7.234a6.1,6.1,0,0,1-.046-1.191c.073-.284.556-.393.7-.652C268.267,215.408,268.388,219.081,268.555,222.235Z" transform="translate(-256.908 -208.394)" fill="#eebc31"/>
        <path id="Path_372" data-name="Path 372" d="M204.813,218.352a4.745,4.745,0,0,1,.583.467c-.056,1.876-.174,4.122-.257,6a3.842,3.842,0,0,1-.024.958c-.1.271-.48.417-.653.653C204.564,223.708,204.723,221.015,204.813,218.352Z" transform="translate(-202.502 -213.473)" fill="#eebc31"/>
        <path id="Path_373" data-name="Path 373" d="M262.727,226.517c-.031.032-.1-.049-.14-.094-.138-.136-.331-.347-.467-.49-.118-2.283-.208-4.665-.3-6.932a2.5,2.5,0,0,1,.537-.491C262.49,220.967,262.609,223.884,262.727,226.517Z" transform="translate(-252.107 -213.61)" fill="#eebc31"/>
        <path id="Path_374" data-name="Path 374" d="M222.759,221.315a5.981,5.981,0,0,1-2.451,5.111,6.248,6.248,0,0,1-2.544-5.111,4.39,4.39,0,0,0,2.544-.724A4.027,4.027,0,0,0,222.759,221.315Zm-3.291-.164c-.041.956-.023,2.242-.023,3.291a5.3,5.3,0,0,0,0,1.12c.041.15.273.289.4.4a2.664,2.664,0,0,0,.443.35c.228-.179.784-.452.864-.747a5.276,5.276,0,0,0,0-1.1v-3.315c-.3-.149-.588-.315-.887-.467C220.048,220.892,219.7,220.961,219.468,221.152Z" transform="translate(-214.006 -215.41)" fill="#eebc31"/>
        <path id="Path_375" data-name="Path 375" d="M206.542,288.477c.146.049.377.012.4.187-.123.046-.223-.115-.4-.094Z" transform="translate(-204.301 -274.123)" fill="#eebc31"/>
        <path id="Path_376" data-name="Path 376" d="M264.112,288.627a1.561,1.561,0,0,1-.4.163C263.712,288.627,264.029,288.548,264.112,288.627Z" transform="translate(-253.749 -274.226)" fill="#eebc31"/>
        <path id="Path_377" data-name="Path 377" d="M211.725,290.208a.8.8,0,0,1,.49.163C212.062,290.377,211.756,290.339,211.725,290.208Z" transform="translate(-208.783 -275.62)" fill="#eebc31"/>
        <path id="Path_378" data-name="Path 378" d="M258.18,290.3a.774.774,0,0,1-.514.139A.664.664,0,0,1,258.18,290.3Z" transform="translate(-248.517 -275.693)" fill="#eebc31"/>
        <path id="Path_379" data-name="Path 379" d="M248.678,291.9a1.165,1.165,0,0,1-.514,0C248.2,291.742,248.626,291.755,248.678,291.9Z" transform="translate(-240.299 -276.985)" fill="#eebc31"/>
        <path id="Path_380" data-name="Path 380" d="M221.784,291.9c-.046.173-.374.062-.56.093C221.239,291.782,221.628,291.9,221.784,291.9Z" transform="translate(-216.999 -277.054)" fill="#eebc31"/>
        <path id="Path_381" data-name="Path 381" d="M227.406,292.261a.887.887,0,0,1-.491.069C226.962,292.2,227.271,292.218,227.406,292.261Z" transform="translate(-221.921 -277.37)" fill="#eebc31"/>
        <path id="Path_382" data-name="Path 382" d="M242.959,292.325a4.865,4.865,0,0,1-.491-.07C242.556,292.172,242.959,292.165,242.959,292.325Z" transform="translate(-235.373 -277.341)" fill="#eebc31"/>
        <path id="Path_383" data-name="Path 383" d="M256.284,294.61c.106,0,.048-.17.163-.164-.017.071.024.085.023.14a.461.461,0,0,1-.419.047c-.183.1-.411.434-.653.186-.168.028-.143.246-.28.3-.186-.147-.347-.075-.631-.048-.084.1-.091.266-.257.28.01-.107.138-.095.14-.209-.026-.076-.159-.043-.21-.094-.044-.191.106-.19.164-.281.107.026.116.148.14.258a.532.532,0,0,0,.21-.048.552.552,0,0,1,.163-.3c0-.129-.084-.305-.07-.374.133.031.069.259.14.35.179-.017.286.041.326.163.181-.069.236-.28.467-.279.1,0,.156.089.257.07.028-.31-.053-.946-.443-.7.018-.122.19-.091.326-.093C256.084,293.984,255.849,294.631,256.284,294.61Zm-.817.186c.108.1.378.044.35-.14C255.751,294.538,255.421,294.589,255.467,294.8Zm-.466.116a.852.852,0,0,0,.163-.046C255.163,294.6,254.79,294.732,255,294.912Zm-.21.07c.058,0,.072-.036.116-.048,0-.076.01-.164-.07-.163C254.794,294.814,254.727,294.907,254.79,294.983Zm-.561.048c.072.032.106.01.164-.024,0-.055-.04-.069-.024-.14C254.273,294.871,254.212,294.909,254.229,295.03Zm.794,0a.1.1,0,0,0,.164-.1C255.114,294.95,255.022,294.941,255.023,295.03Z" transform="translate(-245.477 -278.738)" fill="#eebc31"/>
        <path id="Path_384" data-name="Path 384" d="M205.887,294.46v.116c-.033.036-.119.021-.186.024-.02-.083,0-.058-.023-.14A.166.166,0,0,1,205.887,294.46Z" transform="translate(-203.553 -279.266)" fill="#eebc31"/>
        <path id="Path_385" data-name="Path 385" d="M205.536,296.6c0,.042-.029.049-.024.093-.095,0-.182,0-.186-.093A.222.222,0,0,1,205.536,296.6Z" transform="translate(-203.249 -281.127)" fill="#eebc31"/>
        <path id="Path_386" data-name="Path 386" d="M243,298.155h.093a.182.182,0,0,1,0,.186H243A.182.182,0,0,1,243,298.155Z" transform="translate(-235.806 -282.494)" fill="#eebc31"/>
        <path id="Path_387" data-name="Path 387" d="M215.791,298.495c.072.3.124.96-.14,1s-.187-.355-.443-.374a.691.691,0,0,1-.513.048c-.116.008-.1.151-.21.164.15-.155.087-.352.07-.538.125.015.143.137.14.281.067.141.348.046.443,0-.051-.1-.114-.183-.164-.281.143-.037.143-.17.28-.163a.244.244,0,0,1,.046.467c.153.057.172.249.3.326C215.913,299.363,215.687,298.766,215.791,298.495Zm-.7.373c0,.089.077.14.163.187C215.648,298.879,215.106,298.494,215.091,298.868Z" transform="translate(-211.17 -282.788)" fill="#eebc31"/>
        <path id="Path_388" data-name="Path 388" d="M225.937,298.495c.076.161-.027.529-.048.747A1.939,1.939,0,0,1,225.937,298.495Z" transform="translate(-221.012 -282.788)" fill="#eebc31"/>
        <path id="Path_389" data-name="Path 389" d="M244.082,298.495c.156.155-.028.65.163.769.16-.048.267-.026.3-.163.032-.121-.135-.193-.046-.28.208.01.07.3.046.42a1.6,1.6,0,0,1-.7.046c.013-.119.138-.126.234-.164C244.17,298.923,244.032,298.658,244.082,298.495Z" transform="translate(-236.566 -282.788)" fill="#eebc31"/>
        <path id="Path_390" data-name="Path 390" d="M243.228,300.248c.015.136-.282.058-.186-.024C243.075,300.193,243.226,300.176,243.228,300.248Z" transform="translate(-235.852 -284.26)" fill="#eebc31"/>
        <path id="Path_391" data-name="Path 391" d="M250.675,301.635a1.271,1.271,0,0,1,.164-.3c-.065-.13-.322-.253-.141-.42C251.056,300.965,250.888,301.55,250.675,301.635Zm.023-.608c.012.09.048.155.141.164C250.895,301.123,250.789,300.95,250.7,301.028Z" transform="translate(-242.435 -284.877)" fill="#eebc31"/>
        <path id="Path_392" data-name="Path 392" d="M268.617,301.334c0,.136-.167.091-.233.046C268.42,301.25,268.539,301.289,268.617,301.334Z" transform="translate(-257.787 -285.206)" fill="#eebc31"/>
        <path id="Path_393" data-name="Path 393" d="M228.1,301.434a1.038,1.038,0,0,0,.886.116c.068.065.061.2.117.28a.2.2,0,0,1,.14-.024c-.049-.277.337-.346.326-.046-.071.132-.28.124-.491.117-.1.053-.1.2-.186.256a.274.274,0,0,1-.21-.209,3.674,3.674,0,0,0-.747-.046c-.094.111-.184.34-.326.326.068-.119.2-.172.234-.326-.044-.089-.206-.159-.117-.3.224-.036.115.26.3.257C228.225,301.75,228.073,301.564,228.1,301.434Zm.07.4c.126,0,.341,0,.513.024.073.059.082.182.186.21.077-.1.209-.293.094-.443C228.7,301.834,228.144,301.345,228.168,301.831Zm1.166-.024c.121.021.166-.036.164-.14C229.41,301.548,229.252,301.686,229.335,301.807Z" transform="translate(-222.519 -285.33)" fill="#eebc31"/>
        <path id="Path_394" data-name="Path 394" d="M205.75,302.267c.074-.02.072.036.116.048a.379.379,0,0,1-.046.163C205.685,302.459,205.685,302.341,205.75,302.267Z" transform="translate(-203.579 -286.047)" fill="#eebc31"/>
        <path id="Path_395" data-name="Path 395" d="M207.612,302.958c.1.162-.139.249-.21.116C207.411,302.975,207.485,302.939,207.612,302.958Z" transform="translate(-205.044 -286.643)" fill="#eebc31"/>
        <path id="Path_396" data-name="Path 396" d="M210.2,303.529c-.023,0-.019.029-.024.048h-.164C209.9,303.384,210.205,303.315,210.2,303.529Z" transform="translate(-207.278 -287.028)" fill="#eebc31"/>
        <path id="Path_397" data-name="Path 397" d="M245.1,305.406c.124,0,.11.2.024.234C245.026,305.627,245.033,305.447,245.1,305.406Z" transform="translate(-237.605 -288.765)" fill="#eebc31"/>
        <path id="Path_398" data-name="Path 398" d="M246.782,305.751c-.068-.026-.138-.049-.163-.116C246.69,305.412,246.976,305.611,246.782,305.751Z" transform="translate(-238.963 -288.876)" fill="#eebc31"/>
        <path id="Path_399" data-name="Path 399" d="M206,294.7h.07c.007.322-.48.872.07.91.09-.057.04-.255.163-.28.014.123-.048.171-.07.257.107.3.644.129.42-.209.262,0,.056.283.023.4a.536.536,0,0,1-.49-.094c-.26-.021-.489-.072-.513-.326C205.911,295.258,205.962,294.983,206,294.7Z" transform="translate(-203.553 -279.505)" fill="#eebc31"/>
      </g>
    </g>
  </g>
</svg>
