<svg xmlns="http://www.w3.org/2000/svg" xmlns:xlink="http://www.w3.org/1999/xlink" width="120" height="120" viewBox="0 0 120 120">
  <defs>
    <clipPath id="clip-path">
      <rect id="Rectangle_2" data-name="Rectangle 2" width="120" height="120" transform="translate(1289 158)" fill="#fff"/>
    </clipPath>
  </defs>
  <g id="Enhanced_coordination" data-name="Enhanced coordination" transform="translate(-1289 -158)" clip-path="url(#clip-path)">
    <g id="onboarding" transform="translate(1289 158)">
      <path id="Path_70" data-name="Path 70" d="M29.028,313.654A10.524,10.524,0,1,0,39.552,303.13,10.536,10.536,0,0,0,29.028,313.654Zm17.533,0a7.008,7.008,0,1,1-7.008-7.008A7.017,7.017,0,0,1,46.561,313.654Z" transform="translate(-22.225 -232.084)" fill="teal"/>
      <path id="Path_71" data-name="Path 71" d="M22.827,412.006h-11A11.841,11.841,0,0,0,0,423.834v7.61a4,4,0,0,0,4,4H30.657a4,4,0,0,0,4-4v-7.61A11.842,11.842,0,0,0,22.827,412.006Zm8.312,19.437a.483.483,0,0,1-.483.483H4a.483.483,0,0,1-.483-.483v-7.61a8.322,8.322,0,0,1,8.312-8.312h11a8.322,8.322,0,0,1,8.312,8.312v7.61Z" transform="translate(0 -315.442)" fill="teal"/>
      <path id="Path_72" data-name="Path 72" d="M414.215,313.654a10.524,10.524,0,1,0-10.524,10.524A10.536,10.536,0,0,0,414.215,313.654Zm-17.532,0a7.008,7.008,0,1,1,7.008,7.009A7.016,7.016,0,0,1,396.683,313.654Z" transform="translate(-301.019 -232.084)" fill="teal"/>
      <path id="Path_73" data-name="Path 73" d="M204.9,412.006h-11a11.841,11.841,0,0,0-11.828,11.828v7.61a4,4,0,0,0,4,4h26.658a4,4,0,0,0,4-4v-7.61A11.841,11.841,0,0,0,204.9,412.006Zm8.312,19.437a.484.484,0,0,1-.483.483H186.067a.484.484,0,0,1-.483-.483v-7.61a8.322,8.322,0,0,1,8.312-8.312h11a8.322,8.322,0,0,1,8.312,8.312Z" transform="translate(-139.396 -315.442)" fill="teal"/>
      <path id="Path_74" data-name="Path 74" d="M204.854,64.947A15.657,15.657,0,1,0,220.511,80.6,15.675,15.675,0,0,0,204.854,64.947Zm0,27.8A12.141,12.141,0,1,1,217,80.6,12.155,12.155,0,0,1,204.854,92.745Z" transform="translate(-144.854 -49.725)" fill="#e9b237"/>
      <path id="Path_75" data-name="Path 75" d="M176.38,43.064a24.376,24.376,0,0,0,2.394-5.773h3.79a3.446,3.446,0,0,0,3.442-3.442v-5.94a3.446,3.446,0,0,0-3.442-3.442h-3.79a24.38,24.38,0,0,0-2.394-5.773l2.681-2.681a3.446,3.446,0,0,0,0-4.868l-4.2-4.2a3.443,3.443,0,0,0-4.868,0l-2.682,2.682a24.37,24.37,0,0,0-5.773-2.394V3.442A3.446,3.446,0,0,0,158.1,0h-5.939a3.446,3.446,0,0,0-3.442,3.442v3.79a24.378,24.378,0,0,0-5.774,2.394L140.26,6.945a3.446,3.446,0,0,0-4.868,0l-4.2,4.2a3.447,3.447,0,0,0,0,4.868l2.681,2.681a24.37,24.37,0,0,0-2.394,5.774h-3.79a3.446,3.446,0,0,0-3.442,3.442v5.94a3.446,3.446,0,0,0,3.442,3.442h3.79a24.361,24.361,0,0,0,2.394,5.773l-2.682,2.682a3.447,3.447,0,0,0,0,4.868l4.2,4.2a3.447,3.447,0,0,0,4.868,0l2.681-2.681a24.37,24.37,0,0,0,5.774,2.394v3.79a3.446,3.446,0,0,0,3.442,3.442H158.1a3.446,3.446,0,0,0,3.442-3.442v-3.79a24.365,24.365,0,0,0,5.773-2.394l2.681,2.681a3.443,3.443,0,0,0,4.868,0l4.2-4.2a3.446,3.446,0,0,0,0-4.868Zm-3.952,9.211-2.67-2.67a3.453,3.453,0,0,0-4.163-.542,20.858,20.858,0,0,1-5.012,2.079,3.452,3.452,0,0,0-2.56,3.322v3.777h-5.793V54.465a3.451,3.451,0,0,0-2.56-3.323,20.853,20.853,0,0,1-5.012-2.078,3.453,3.453,0,0,0-4.163.542l-2.67,2.67-4.1-4.1,2.67-2.67a3.452,3.452,0,0,0,.542-4.163,20.833,20.833,0,0,1-2.079-5.013,3.452,3.452,0,0,0-3.323-2.56h-3.776V27.982h3.777a3.452,3.452,0,0,0,3.322-2.56,20.847,20.847,0,0,1,2.078-5.012,3.452,3.452,0,0,0-.542-4.163l-2.67-2.67,4.1-4.1,2.67,2.67a3.453,3.453,0,0,0,4.162.542,20.863,20.863,0,0,1,5.012-2.079,3.451,3.451,0,0,0,2.56-3.322V3.516h5.793V7.293a3.452,3.452,0,0,0,2.56,3.322,20.862,20.862,0,0,1,5.012,2.078,3.451,3.451,0,0,0,4.162-.542l2.67-2.67,4.1,4.1-2.67,2.67a3.452,3.452,0,0,0-.542,4.162,20.862,20.862,0,0,1,2.079,5.012,3.452,3.452,0,0,0,3.322,2.56h3.777v5.793h-3.777a3.452,3.452,0,0,0-3.322,2.56,20.86,20.86,0,0,1-2.079,5.013,3.453,3.453,0,0,0,.542,4.162l2.67,2.67Z" transform="translate(-95.127 0)" fill="#e9b237"/>
      <path id="Path_76" data-name="Path 76" d="M386.964,412.006h-11a11.841,11.841,0,0,0-11.828,11.828v7.61a4,4,0,0,0,4,4h9.227a1.758,1.758,0,1,0,0-3.516h-9.227a.484.484,0,0,1-.483-.483v-7.61a8.321,8.321,0,0,1,8.312-8.312h11a8.321,8.321,0,0,1,8.312,8.312v7.61a.484.484,0,0,1-.483.483h-9.228a1.758,1.758,0,0,0,0,3.516h9.228a4,4,0,0,0,4-4v-7.61A11.841,11.841,0,0,0,386.964,412.006Z" transform="translate(-278.792 -315.442)" fill="teal"/>
      <path id="Path_77" data-name="Path 77" d="M221.622,306.646a7,7,0,0,1,6.195,3.731,1.758,1.758,0,0,0,3.106-1.648,10.524,10.524,0,1,0,0,9.85,1.758,1.758,0,1,0-3.105-1.648,7.008,7.008,0,1,1-6.195-10.286Z" transform="translate(-161.622 -232.084)" fill="teal"/>
    </g>
  </g>
</svg>
