<svg xmlns="http://www.w3.org/2000/svg" xmlns:xlink="http://www.w3.org/1999/xlink" width="120" height="120" viewBox="0 0 120 120">
  <defs>
    <clipPath id="clip-path">
      <rect id="Rectangle_4" data-name="Rectangle 4" width="120" height="120" transform="translate(1517 558)" fill="#fff"/>
    </clipPath>
  </defs>
  <g id="Ensure_due_diligence_and_compliance" data-name="Ensure due diligence and compliance" transform="translate(-1517 -558)" clip-path="url(#clip-path)">
    <path id="compliance" d="M61.191,32.461H50.176A1.875,1.875,0,0,0,48.3,34.336V45.352a1.875,1.875,0,0,0,1.875,1.875H61.191a1.875,1.875,0,0,0,1.875-1.875V34.336A1.875,1.875,0,0,0,61.191,32.461ZM59.316,43.477H52.051V36.211h7.266ZM71.5,34.336a1.875,1.875,0,0,1,1.875-1.875h28.008a1.875,1.875,0,0,1,0,3.75H73.379A1.875,1.875,0,0,1,71.5,34.336Zm0,11.015a1.875,1.875,0,0,1,1.875-1.875h28.008a1.875,1.875,0,0,1,0,3.75H73.379A1.875,1.875,0,0,1,71.5,45.352ZM61.191,57.539H50.176A1.875,1.875,0,0,0,48.3,59.414V70.43A1.875,1.875,0,0,0,50.176,72.3H61.191a1.875,1.875,0,0,0,1.875-1.875V59.414A1.875,1.875,0,0,0,61.191,57.539ZM59.316,68.555H52.051V61.289h7.266ZM71.5,59.414a1.875,1.875,0,0,1,1.875-1.875h28.008a1.875,1.875,0,0,1,0,3.75H73.379A1.875,1.875,0,0,1,71.5,59.414Zm0,11.016a1.875,1.875,0,0,1,1.875-1.875h28.008a1.875,1.875,0,0,1,0,3.75H73.379A1.875,1.875,0,0,1,71.5,70.43ZM61.191,82.617H50.176A1.875,1.875,0,0,0,48.3,84.492V95.508a1.875,1.875,0,0,0,1.875,1.875H61.191a1.875,1.875,0,0,0,1.875-1.875V84.492A1.875,1.875,0,0,0,61.191,82.617ZM59.316,93.633H52.051V86.367h7.266Zm32.238-9.141a1.875,1.875,0,0,1-1.875,1.875h-16.3a1.875,1.875,0,0,1,0-3.75h16.3A1.875,1.875,0,0,1,91.554,84.492Zm0,11.015a1.875,1.875,0,0,1-1.875,1.875h-16.3a1.875,1.875,0,0,1,0-3.75h16.3A1.875,1.875,0,0,1,91.554,95.508Zm36.264-4.324a1.875,1.875,0,0,1,.013,2.651l-12.771,12.9a1.875,1.875,0,0,1-1.328.556h0a1.876,1.876,0,0,1-1.326-.549l-7.1-7.1a1.875,1.875,0,0,1,2.651-2.652l5.77,5.77L125.167,91.2a1.874,1.874,0,0,1,2.651-.013Zm-9.381-13.169V18.75a6.57,6.57,0,0,0-6.562-6.563H95.7V7.969a1.875,1.875,0,0,0-1.875-1.875H84.887a9.85,9.85,0,0,0-18.211,0H57.734a1.875,1.875,0,0,0-1.875,1.875v4.219H39.688a6.57,6.57,0,0,0-6.562,6.563V105a6.57,6.57,0,0,0,6.563,6.563H99.727a21.032,21.032,0,1,0,18.711-33.548ZM59.609,9.844h8.426a1.875,1.875,0,0,0,1.823-1.436,6.1,6.1,0,0,1,11.847,0,1.875,1.875,0,0,0,1.823,1.436h8.426v8.437H59.609ZM39.688,107.813A2.816,2.816,0,0,1,36.875,105V18.75a2.816,2.816,0,0,1,2.813-2.812H55.859v4.219a1.875,1.875,0,0,0,1.875,1.875H93.828A1.875,1.875,0,0,0,95.7,20.156V15.938h16.172a2.816,2.816,0,0,1,2.813,2.813V78.014a21.029,21.029,0,0,0-17.206,29.8Zm76.875,8.438a17.285,17.285,0,1,1,17.285-17.285A17.3,17.3,0,0,1,116.563,116.25Z" transform="translate(1491.639 558)" fill="teal"/>
    <g id="Rectangle_5" data-name="Rectangle 5" transform="translate(1539 590)" fill="none" stroke="#e9b237" stroke-width="5">
      <rect width="16" height="16" stroke="none"/>
      <rect x="2.5" y="2.5" width="11" height="11" fill="none"/>
    </g>
    <g id="Rectangle_6" data-name="Rectangle 6" transform="translate(1539 615)" fill="none" stroke="#e9b237" stroke-width="5">
      <rect width="16" height="16" stroke="none"/>
      <rect x="2.5" y="2.5" width="11" height="11" fill="none"/>
    </g>
    <g id="Rectangle_7" data-name="Rectangle 7" transform="translate(1539 640)" fill="none" stroke="#e9b237" stroke-width="5">
      <rect width="16" height="16" stroke="none"/>
      <rect x="2.5" y="2.5" width="11" height="11" fill="none"/>
    </g>
  </g>
</svg>
