<svg xmlns="http://www.w3.org/2000/svg" xmlns:xlink="http://www.w3.org/1999/xlink" width="120" height="120" viewBox="0 0 120 120">
  <defs>
    <clipPath id="clip-path">
      <rect id="Rectangle_10" data-name="Rectangle 10" width="120" height="120" transform="translate(940 1518)" fill="#fff"/>
    </clipPath>
  </defs>
  <g id="Evaluating_customer_s_network" data-name="Evaluating customer’s network" transform="translate(-940 -1518)" clip-path="url(#clip-path)">
    <g id="target" transform="translate(940 1518.908)">
      <path id="Path_299" data-name="Path 299" d="M117.166,226.845a10.87,10.87,0,0,0-6.7-2.809,9.6,9.6,0,0,0-7.374,2.807l-13.343,13.2a8.86,8.86,0,0,0-.9-1.288,8.65,8.65,0,0,0-6.758-3.022H63.4a38.31,38.31,0,0,1-10.212-1.357,25.126,25.126,0,0,0-23.439,4.959,34.092,34.092,0,0,0-6.1,6.551L20.3,242.64a2.381,2.381,0,0,0-1.652-.67h-.016a2.386,2.386,0,0,0-1.693.727L.661,259.6a2.362,2.362,0,0,0,.072,3.347l27.536,26.22a2.36,2.36,0,0,0,3.319-.061l16.129-16.547a2.374,2.374,0,0,0-.047-3.359l-1.4-1.362,3.214-.362a51.1,51.1,0,0,1,5.88-.341H83.779a21.336,21.336,0,0,0,11.658-3l.077-.051a15.732,15.732,0,0,0,3.011-2.734l19.151-22.53c3.278-3.855,3.073-8.666-.511-11.971Zm-87.33,57.293L5.708,261.164l13-13.494,23.987,23.277Zm84.244-48.38L94.929,258.289a11.035,11.035,0,0,1-2.073,1.889,16.788,16.788,0,0,1-9.077,2.235H55.359a55.754,55.754,0,0,0-6.415.372l-7.066.793L27.083,249.22A29.444,29.444,0,0,1,32.74,243a20.32,20.32,0,0,1,19.194-4.067,43.028,43.028,0,0,0,11.471,1.528H82.084c3.354,0,4.25,2.906,4.25,4.623a5.112,5.112,0,0,1-1.105,3.276,4.011,4.011,0,0,1-3.219,1.35H65.75a2.361,2.361,0,0,0,0,4.721H82.01a8.754,8.754,0,0,0,6.817-3.016,9.7,9.7,0,0,0,2.224-6.015l15.367-15.206c2.2-2.2,5.628-1.645,7.548.125.992.916,2.327,2.839.114,5.442Zm0,0" transform="translate(-0.001 -171.634)" fill="teal"/>
      <path id="Path_300" data-name="Path 300" d="M233.9,335.044a2.36,2.36,0,1,0-4.6,1.078l.022.1a2.362,2.362,0,0,0,2.3,1.822,2.387,2.387,0,0,0,.541-.062,2.361,2.361,0,0,0,1.76-2.837Zm0,0" transform="translate(-175.511 -255.239)" fill="teal"/>
      <path id="Path_301" data-name="Path 301" d="M49.407,50.3h23a5.68,5.68,0,0,0,3.355-1.093A5.68,5.68,0,0,0,79.118,50.3h23a5.68,5.68,0,0,0,3.355-1.093,5.68,5.68,0,0,0,3.355,1.093h23a5.722,5.722,0,0,0,5.715-5.716V33.863A12.377,12.377,0,0,0,130.814,22.8a13.617,13.617,0,1,0-20.968,0,12.366,12.366,0,0,0-4.372,3.748A12.342,12.342,0,0,0,101.1,22.8a13.617,13.617,0,1,0-20.967,0,12.342,12.342,0,0,0-4.373,3.748A12.353,12.353,0,0,0,71.39,22.8a13.616,13.616,0,1,0-20.967,0,12.379,12.379,0,0,0-6.733,11.067V44.589A5.723,5.723,0,0,0,49.407,50.3ZM120.331,5.221a8.9,8.9,0,1,1-8.9,8.9A8.905,8.905,0,0,1,120.331,5.221ZM114.2,26.269a13.568,13.568,0,0,0,12.264,0,7.67,7.67,0,0,1,6.363,7.594V44.589a1,1,0,0,1-.994.994h-23a1,1,0,0,1-.993-.994V33.863A7.67,7.67,0,0,1,114.2,26.269ZM90.619,5.221a8.9,8.9,0,1,1-8.9,8.9A8.905,8.905,0,0,1,90.619,5.221ZM84.487,26.269a13.568,13.568,0,0,0,12.264,0,7.671,7.671,0,0,1,6.363,7.594V44.589a1,1,0,0,1-.994.994h-23a1,1,0,0,1-.994-.994V33.863a7.672,7.672,0,0,1,6.363-7.594ZM60.908,5.221a8.9,8.9,0,1,1-8.9,8.9A8.905,8.905,0,0,1,60.908,5.221Zm-12.5,28.641a7.672,7.672,0,0,1,6.363-7.594,13.568,13.568,0,0,0,12.264,0A7.67,7.67,0,0,1,73.4,33.863V44.589a1,1,0,0,1-.994.994h-23a1,1,0,0,1-.994-.994Zm0,0" transform="translate(-33.451 -0.5)" fill="#e9b237"/>
    </g>
  </g>
</svg>
