<?xml version="1.0" encoding="utf-8"?>
<!-- Generator: Adobe Illustrator 26.0.1, SVG Export Plug-In . SVG Version: 6.00 Build 0)  -->
<svg version="1.1" id="Layer_1" xmlns="http://www.w3.org/2000/svg" xmlns:xlink="http://www.w3.org/1999/xlink" x="0px" y="0px"
	 viewBox="0 0 540.8 270.9" style="enable-background:new 0 0 540.8 270.9;" xml:space="preserve">
<style type="text/css">
	.st0{fill:#263B7F;}
	.st1{fill:#1AAAE0;}
	.st2{fill:#2E3888;}
	.st3{fill:#010101;}
	.st4{fill:#8D8D91;}
	.st5{fill:#FFFFFF;}
	.st6{fill:#1AAFE5;}
	.st7{fill:#939498;}
	.st8{fill:#2F368E;}
	.st9{fill:#2E368E;}
	.st10{fill-rule:evenodd;clip-rule:evenodd;fill:#231F20;}
	.st11{fill-rule:evenodd;clip-rule:evenodd;fill:#919396;}
	.st12{fill-rule:evenodd;clip-rule:evenodd;fill:#2F368F;}
	.st13{fill:#A5A8AB;}
	.st14{fill:#231F20;}
	.st15{fill-rule:evenodd;clip-rule:evenodd;fill:#FFFFFF;}
	.st16{fill:#0C3484;}
	.st17{fill:#1AB1E6;}
</style>
<g>
	<path class="st0" d="M69.2,192.1c-10.7,0-19.4,8.7-19.4,19.4s8.7,19.4,19.4,19.4c10.7,0,19.4-8.7,19.4-19.4
		C88.6,200.8,79.9,192.1,69.2,192.1z"/>
	<path class="st5" d="M79.3,212.9H64.5c0.2,3.4,1.9,4.9,5,4.9c2.3,0,4-1.3,4.4-2.5h4.9c-1.6,4.6-4.9,6.5-9.5,6.5
		c-6.4,0-10.4-4.2-10.4-10.2c0-5.8,4.2-10.3,10.4-10.3C76.3,201.3,79.6,206.9,79.3,212.9z"/>
	<path class="st0" d="M64.6,209.5h8.9c-0.5-2.8-1.8-4-4.3-4C65.8,205.5,64.7,208,64.6,209.5z"/>
	<path class="st1" d="M119.2,211.5c0,10.7-8.7,19.4-19.4,19.4c-10.7,0-19.4-8.7-19.4-19.4c0-10.7,8.7-19.4,19.4-19.4
		C110.5,192.1,119.2,200.8,119.2,211.5z"/>
	<path class="st5" d="M101.9,202.4c-2.1,0-4.3,1-5.6,2.9h-0.1v-2.4h-4.8v17.4h5.3v-9.1c0-3.4,1.1-4.8,3.7-4.8c2.1,0,3,1.2,3,4v9.8
		h5.3v-10.7C108.6,205.3,107.3,202.4,101.9,202.4z"/>
	<g>
		<path class="st5" d="M137.5,222.3c-0.2-0.3-0.3-0.9-0.4-1.8c-1.4,1.4-3,2.1-4.9,2.1c-1.7,0-3.1-0.5-4.2-1.4
			c-1.1-1-1.6-2.2-1.6-3.6c0-1.8,0.7-3.2,2-4.2c1.4-1,3.3-1.5,5.7-1.5h2.9v-1.3c0-1-0.3-1.8-0.9-2.5s-1.5-0.9-2.7-0.9
			c-1,0-1.9,0.3-2.6,0.8c-0.7,0.5-1.1,1.2-1.1,1.9h-3c0-0.9,0.3-1.7,0.9-2.5c0.6-0.8,1.4-1.4,2.5-1.9c1-0.5,2.2-0.7,3.4-0.7
			c2,0,3.5,0.5,4.6,1.5s1.7,2.4,1.7,4.1v7.9c0,1.6,0.2,2.8,0.6,3.8v0.3H137.5z M132.6,220.1c0.9,0,1.8-0.2,2.6-0.7
			c0.8-0.5,1.4-1.1,1.8-1.9V214h-2.3c-3.6,0-5.4,1.1-5.4,3.2c0,0.9,0.3,1.6,0.9,2.2C130.9,219.8,131.6,220.1,132.6,220.1z"/>
		<path class="st5" d="M145.4,205.2l0.1,2.2c1.3-1.7,3-2.5,5.1-2.5c3.6,0,5.5,2,5.5,6.1v11.3h-2.9V211c0-1.2-0.3-2.2-0.8-2.7
			s-1.4-0.9-2.6-0.9c-1,0-1.8,0.3-2.5,0.8c-0.7,0.5-1.3,1.2-1.7,2v12.2h-2.9v-17.2H145.4z"/>
		<path class="st5" d="M171.9,222.6c-2.3,0-4.2-0.8-5.7-2.3s-2.2-3.6-2.2-6.1v-0.5c0-1.7,0.3-3.2,1-4.6c0.7-1.3,1.6-2.4,2.7-3.1
			c1.2-0.8,2.4-1.1,3.8-1.1c2.2,0,4,0.7,5.2,2.2c1.2,1.5,1.9,3.6,1.9,6.3v1.2H167c0,1.7,0.5,3.1,1.5,4.1c0.9,1,2.2,1.6,3.6,1.6
			c1,0,1.9-0.2,2.6-0.6c0.7-0.4,1.3-1,1.9-1.7l1.8,1.4C176.9,221.5,174.8,222.6,171.9,222.6z M171.5,207.3c-1.2,0-2.2,0.4-3,1.3
			s-1.3,2.1-1.5,3.6h8.6V212c-0.1-1.5-0.5-2.6-1.2-3.5S172.8,207.3,171.5,207.3z"/>
		<path class="st5" d="M182.9,205.2l0.1,2.2c1.3-1.7,3-2.5,5.1-2.5c3.6,0,5.5,2,5.5,6.1v11.3h-2.9V211c0-1.2-0.3-2.2-0.8-2.7
			s-1.4-0.9-2.6-0.9c-1,0-1.8,0.3-2.5,0.8c-0.7,0.5-1.3,1.2-1.7,2v12.2h-2.9v-17.2H182.9z"/>
		<path class="st5" d="M202.2,213.7h-7.7v-2.4h7.7V213.7z"/>
		<path class="st5" d="M213.3,199.2h3.1v16.4c0,2.2-0.7,3.9-2,5.2c-1.3,1.2-3.1,1.9-5.3,1.9c-2.3,0-4.1-0.6-5.4-1.8
			c-1.3-1.2-1.9-2.8-1.9-4.9h3c0,1.3,0.4,2.4,1.1,3.1c0.7,0.7,1.8,1.1,3.2,1.1c1.3,0,2.3-0.4,3.1-1.2s1.2-1.9,1.2-3.3V199.2z"/>
		<path class="st5" d="M229.8,222.3c-0.2-0.3-0.3-0.9-0.4-1.8c-1.4,1.4-3,2.1-4.9,2.1c-1.7,0-3.1-0.5-4.2-1.4
			c-1.1-1-1.6-2.2-1.6-3.6c0-1.8,0.7-3.2,2-4.2c1.4-1,3.3-1.5,5.7-1.5h2.9v-1.3c0-1-0.3-1.8-0.9-2.5s-1.5-0.9-2.7-0.9
			c-1,0-1.9,0.3-2.6,0.8c-0.7,0.5-1.1,1.2-1.1,1.9h-3c0-0.9,0.3-1.7,0.9-2.5c0.6-0.8,1.4-1.4,2.5-1.9c1-0.5,2.2-0.7,3.4-0.7
			c2,0,3.5,0.5,4.7,1.5c1.1,1,1.7,2.4,1.7,4.1v7.9c0,1.6,0.2,2.8,0.6,3.8v0.3H229.8z M224.9,220.1c0.9,0,1.8-0.2,2.6-0.7
			c0.8-0.5,1.4-1.1,1.8-1.9V214H227c-3.6,0-5.4,1.1-5.4,3.2c0,0.9,0.3,1.6,0.9,2.2C223.1,219.8,223.9,220.1,224.9,220.1z"/>
		<path class="st5" d="M249.4,213.9c0,2.6-0.6,4.7-1.8,6.3c-1.2,1.6-2.8,2.4-4.9,2.4c-2.1,0-3.7-0.7-4.9-2v8.3h-2.9v-23.8h2.7
			l0.1,1.9c1.2-1.5,2.9-2.2,5-2.2c2.1,0,3.7,0.8,4.9,2.3c1.2,1.6,1.8,3.7,1.8,6.5V213.9z M246.5,213.6c0-1.9-0.4-3.5-1.2-4.6
			c-0.8-1.1-2-1.7-3.4-1.7c-1.8,0-3.1,0.8-4,2.4v8.2c0.9,1.6,2.2,2.3,4,2.3c1.4,0,2.5-0.6,3.4-1.7
			C246.1,217.5,246.5,215.8,246.5,213.6z"/>
		<path class="st5" d="M261.8,222.3c-0.2-0.3-0.3-0.9-0.4-1.8c-1.4,1.4-3,2.1-4.9,2.1c-1.7,0-3.1-0.5-4.2-1.4
			c-1.1-1-1.6-2.2-1.6-3.6c0-1.8,0.7-3.2,2-4.2c1.4-1,3.3-1.5,5.7-1.5h2.9v-1.3c0-1-0.3-1.8-0.9-2.5s-1.5-0.9-2.7-0.9
			c-1,0-1.9,0.3-2.6,0.8c-0.7,0.5-1.1,1.2-1.1,1.9h-3c0-0.9,0.3-1.7,0.9-2.5c0.6-0.8,1.4-1.4,2.5-1.9c1-0.5,2.2-0.7,3.4-0.7
			c2,0,3.5,0.5,4.7,1.5c1.1,1,1.7,2.4,1.7,4.1v7.9c0,1.6,0.2,2.8,0.6,3.8v0.3H261.8z M257,220.1c0.9,0,1.8-0.2,2.6-0.7
			c0.8-0.5,1.4-1.1,1.8-1.9V214h-2.3c-3.6,0-5.4,1.1-5.4,3.2c0,0.9,0.3,1.6,0.9,2.2C255.2,219.8,256,220.1,257,220.1z"/>
		<path class="st5" d="M269.8,205.2l0.1,2.2c1.3-1.7,3-2.5,5.1-2.5c3.6,0,5.5,2,5.5,6.1v11.3h-2.9V211c0-1.2-0.3-2.2-0.8-2.7
			s-1.4-0.9-2.6-0.9c-1,0-1.8,0.3-2.5,0.8c-0.7,0.5-1.3,1.2-1.7,2v12.2H267v-17.2H269.8z"/>
		<path class="st5" d="M288.4,213.6c0-2.7,0.6-4.8,1.9-6.4c1.2-1.6,2.9-2.4,4.9-2.4c2.1,0,3.7,0.7,4.9,2.2l0.1-1.9h2.7v16.8
			c0,2.2-0.7,4-2,5.3c-1.3,1.3-3.1,1.9-5.3,1.9c-1.2,0-2.4-0.3-3.6-0.8c-1.2-0.5-2.1-1.3-2.7-2.2l1.5-1.8c1.3,1.6,2.8,2.3,4.6,2.3
			c1.4,0,2.5-0.4,3.3-1.2c0.8-0.8,1.2-1.9,1.2-3.4v-1.5c-1.2,1.4-2.8,2-4.8,2c-2,0-3.6-0.8-4.9-2.4
			C289.1,218.6,288.4,216.4,288.4,213.6z M291.4,213.9c0,1.9,0.4,3.5,1.2,4.6c0.8,1.1,1.9,1.7,3.3,1.7c1.9,0,3.2-0.8,4.1-2.5v-7.8
			c-0.9-1.6-2.2-2.5-4-2.5c-1.4,0-2.5,0.6-3.3,1.7C291.8,210.1,291.4,211.8,291.4,213.9z"/>
		<path class="st5" d="M313.8,207.8c-0.4-0.1-0.9-0.1-1.4-0.1c-1.9,0-3.2,0.8-3.9,2.5v12.2h-2.9v-17.2h2.9l0,2
			c1-1.5,2.3-2.3,4.1-2.3c0.6,0,1,0.1,1.3,0.2V207.8z"/>
		<path class="st5" d="M313.4,213.6c0-1.7,0.3-3.2,1-4.5s1.6-2.4,2.8-3.1c1.2-0.7,2.5-1.1,4-1.1c2.3,0,4.2,0.8,5.7,2.4
			c1.4,1.6,2.2,3.8,2.2,6.5v0.2c0,1.7-0.3,3.2-1,4.5c-0.6,1.3-1.6,2.4-2.7,3.1c-1.2,0.7-2.6,1.1-4.1,1.1c-2.3,0-4.2-0.8-5.7-2.4
			c-1.4-1.6-2.2-3.8-2.2-6.4V213.6z M316.4,213.9c0,1.9,0.4,3.4,1.3,4.6s2.1,1.7,3.5,1.7c1.5,0,2.7-0.6,3.6-1.8s1.3-2.8,1.3-4.9
			c0-1.9-0.4-3.4-1.3-4.6c-0.9-1.2-2.1-1.8-3.6-1.8c-1.5,0-2.6,0.6-3.5,1.7S316.4,211.8,316.4,213.9z"/>
		<path class="st5" d="M341.4,220.6c-1.1,1.3-2.8,2-5,2c-1.8,0-3.2-0.5-4.2-1.6c-1-1.1-1.4-2.6-1.5-4.7v-11.2h2.9v11.1
			c0,2.6,1.1,3.9,3.2,3.9c2.2,0,3.7-0.8,4.5-2.5v-12.5h2.9v17.2h-2.8L341.4,220.6z"/>
		<path class="st5" d="M361.3,213.9c0,2.6-0.6,4.7-1.8,6.3c-1.2,1.6-2.8,2.4-4.9,2.4c-2.1,0-3.7-0.7-4.9-2v8.3h-2.9v-23.8h2.7
			l0.1,1.9c1.2-1.5,2.9-2.2,5-2.2c2.1,0,3.7,0.8,4.9,2.3c1.2,1.6,1.8,3.7,1.8,6.5V213.9z M358.4,213.6c0-1.9-0.4-3.5-1.2-4.6
			c-0.8-1.1-2-1.7-3.4-1.7c-1.8,0-3.1,0.8-4,2.4v8.2c0.9,1.6,2.2,2.3,4,2.3c1.4,0,2.5-0.6,3.4-1.7
			C358,217.5,358.4,215.8,358.4,213.6z"/>
		<path class="st5" d="M376.2,220.3c1,0,2-0.3,2.7-1c0.8-0.6,1.2-1.4,1.3-2.4h2.8c-0.1,1-0.4,1.9-1,2.8s-1.5,1.6-2.5,2.1
			c-1,0.5-2.1,0.8-3.3,0.8c-2.3,0-4.2-0.8-5.6-2.3c-1.4-1.6-2.1-3.7-2.1-6.4v-0.5c0-1.7,0.3-3.2,0.9-4.5c0.6-1.3,1.5-2.3,2.6-3
			c1.1-0.7,2.5-1.1,4.1-1.1c1.9,0,3.5,0.6,4.8,1.7c1.3,1.2,2,2.7,2,4.5h-2.8c-0.1-1.1-0.5-2-1.3-2.7c-0.8-0.7-1.7-1.1-2.8-1.1
			c-1.5,0-2.6,0.5-3.5,1.6c-0.8,1.1-1.2,2.6-1.2,4.7v0.6c0,2,0.4,3.5,1.2,4.6C373.5,219.7,374.6,220.3,376.2,220.3z"/>
		<path class="st5" d="M383.6,213.6c0-1.7,0.3-3.2,1-4.5s1.6-2.4,2.8-3.1c1.2-0.7,2.5-1.1,4-1.1c2.3,0,4.2,0.8,5.7,2.4
			c1.4,1.6,2.2,3.8,2.2,6.5v0.2c0,1.7-0.3,3.2-1,4.5c-0.6,1.3-1.6,2.4-2.7,3.1c-1.2,0.7-2.6,1.1-4.1,1.1c-2.3,0-4.2-0.8-5.7-2.4
			c-1.4-1.6-2.2-3.8-2.2-6.4V213.6z M386.5,213.9c0,1.9,0.4,3.4,1.3,4.6s2.1,1.7,3.5,1.7c1.5,0,2.7-0.6,3.6-1.8s1.3-2.8,1.3-4.9
			c0-1.9-0.4-3.4-1.3-4.6c-0.9-1.2-2.1-1.8-3.6-1.8c-1.5,0-2.6,0.6-3.5,1.7S386.5,211.8,386.5,213.9z"/>
		<path class="st5" d="M403.7,205.2l0.1,1.9c1.3-1.5,3-2.2,5.1-2.2c2.4,0,4,0.9,4.9,2.8c0.6-0.8,1.3-1.5,2.2-2s2-0.8,3.2-0.8
			c3.8,0,5.7,2,5.7,6v11.5h-2.9V211c0-1.2-0.3-2.1-0.8-2.8c-0.6-0.6-1.5-0.9-2.8-0.9c-1.1,0-2,0.3-2.7,1s-1.1,1.5-1.3,2.6v11.4h-3
			v-11.3c0-2.5-1.2-3.7-3.7-3.7c-1.9,0-3.2,0.8-4,2.5v12.5H401v-17.2H403.7z"/>
		<path class="st5" d="M442.1,213.9c0,2.6-0.6,4.7-1.8,6.3c-1.2,1.6-2.8,2.4-4.9,2.4c-2.1,0-3.7-0.7-4.9-2v8.3h-2.9v-23.8h2.7
			l0.1,1.9c1.2-1.5,2.9-2.2,5-2.2c2.1,0,3.7,0.8,4.9,2.3c1.2,1.6,1.8,3.7,1.8,6.5V213.9z M439.1,213.6c0-1.9-0.4-3.5-1.2-4.6
			c-0.8-1.1-2-1.7-3.4-1.7c-1.8,0-3.1,0.8-4,2.4v8.2c0.9,1.6,2.2,2.3,4,2.3c1.4,0,2.5-0.6,3.4-1.7
			C438.7,217.5,439.1,215.8,439.1,213.6z"/>
		<path class="st5" d="M454.5,222.3c-0.2-0.3-0.3-0.9-0.4-1.8c-1.4,1.4-3,2.1-4.9,2.1c-1.7,0-3.1-0.5-4.2-1.4
			c-1.1-1-1.6-2.2-1.6-3.6c0-1.8,0.7-3.2,2-4.2c1.4-1,3.3-1.5,5.7-1.5h2.9v-1.3c0-1-0.3-1.8-0.9-2.5s-1.5-0.9-2.7-0.9
			c-1,0-1.9,0.3-2.6,0.8c-0.7,0.5-1.1,1.2-1.1,1.9h-3c0-0.9,0.3-1.7,0.9-2.5c0.6-0.8,1.4-1.4,2.5-1.9c1-0.5,2.2-0.7,3.4-0.7
			c2,0,3.5,0.5,4.7,1.5c1.1,1,1.7,2.4,1.7,4.1v7.9c0,1.6,0.2,2.8,0.6,3.8v0.3H454.5z M449.6,220.1c0.9,0,1.8-0.2,2.6-0.7
			c0.8-0.5,1.4-1.1,1.8-1.9V214h-2.3c-3.6,0-5.4,1.1-5.4,3.2c0,0.9,0.3,1.6,0.9,2.2C447.8,219.8,448.6,220.1,449.6,220.1z"/>
		<path class="st5" d="M462.4,205.2l0.1,2.2c1.3-1.7,3-2.5,5.1-2.5c3.6,0,5.5,2,5.5,6.1v11.3h-2.9V211c0-1.2-0.3-2.2-0.8-2.7
			s-1.4-0.9-2.6-0.9c-1,0-1.8,0.3-2.5,0.8c-0.7,0.5-1.3,1.2-1.7,2v12.2h-2.9v-17.2H462.4z"/>
		<path class="st5" d="M481.3,218l4-12.9h3.1l-6.9,19.8c-1.1,2.9-2.8,4.3-5.1,4.3l-0.6,0l-1.1-0.2v-2.4l0.8,0.1c1,0,1.8-0.2,2.3-0.6
			s1-1.1,1.4-2.2l0.7-1.7l-6.1-17h3.2L481.3,218z"/>
	</g>
	<path class="st5" d="M320.4,87.8c-7.1,0-14.1,0-21.1,0c-0.7,0-1.1-0.3-1.4-0.8c-7.3-10.3-24.1-13.9-36.9-7.8
		c-15.4,7.3-23.7,25.8-18.9,42.8c4.2,14.7,17.8,25.2,32.8,25.2c9.3,0,16.8-3.8,22.5-11.1c0.5-0.7,0.8-1.5,1.9-1.5c7,0,13.9,0,21,0
		c-1.9,6.4-5.1,12.1-10.2,16.4c-16.2,13.7-34.7,16-54.4,9.8c-14.1-4.4-23.9-14.1-29.5-27.7c-4.8-11.4-5.1-23.4-2-35.3
		c4-15.3,13-27,27-34.6c8.9-4.8,18.6-6.2,28.6-5.2c9,0.9,17.5,3.3,25,8.4C312.7,71.7,317.9,78.7,320.4,87.8z"/>
	<path class="st5" d="M359.5,95.1c0,11.3,0,22.6,0,33.8c0,8,4.1,13.9,10.9,16.1c10.4,3.2,20.8-4.2,21-15.2
		c0.2-10.8,0.1-21.6,0.1-32.3c0-12.6,0-25.2,0-37.7c0-1.6,0.4-2,2-2c5,0.1,9.9,0.1,14.9,0c1.3,0,1.7,0.3,1.7,1.7
		c0,22.1,0.1,44.1,0,66.2c-0.1,9.6-2.6,18.6-8.9,26.2c-11.9,14.2-33.5,16.2-47.8,4.4c-7.9-6.5-11.8-14.9-11.9-25
		c-0.2-15.7,0-31.5,0-47.2c0-8,0-16.1-0.1-24.1c0-1.8,0.5-2.1,2.2-2.1c4.7,0.1,9.5,0.1,14.2,0c1.4,0,1.8,0.4,1.8,1.8
		C359.4,71.4,359.4,83.3,359.5,95.1C359.5,95.1,359.5,95.1,359.5,95.1z"/>
	<path class="st5" d="M434.9,132.5c2.6,0,5.2,0.1,7.8,0c1.7-0.1,2.4,0.4,2.9,2.2c1.3,5.2,4.3,9,9.9,10.2c7.9,1.7,18.1-5.7,18.7-13.7
		c0.4-4.8-2.1-8.4-5.6-11.3c-4.6-3.7-10.1-5.6-15.7-7.2c-6-1.7-11.5-4.2-15.6-9c-6-6.9-7.2-15.1-6.3-23.8c0.5-4.9,2.1-9.5,5.3-13.4
		c4.1-5.1,9.7-7.6,16-8.3c6.5-0.8,13.1-0.4,19.5,1.3c9.6,2.6,14.1,9.4,15.9,18.6c0.3,1.5,0.5,3,0.8,4.5c0.2,0.9,0.1,1.5-1.1,1.4
		c-5.5-0.1-10.9-0.1-16.4,0c-1,0-1.3-0.5-1.5-1.3c-1.3-4-3.4-7.2-7.9-7.8c-4.8-0.7-8.8,0.9-11.7,4.8c-3.2,4.2-2.1,9.5,2.6,13.5
		c3.7,3.1,8.1,4.9,12.4,6.8c4.4,1.8,8.9,3.6,12.9,6.3c10.5,7,15.3,18.7,12.5,31.1c-2,8.6-6.2,15.7-13.5,20.8
		c-12.3,8.6-28.8,7.7-39.9-1.5c-6.9-5.8-10.4-13.4-11.8-22.1c-0.2-1.4,0-2,1.6-1.9C429.4,132.6,432.2,132.5,434.9,132.5z"/>
	<path class="st5" d="M50.8,110.7c0-17,0-33.9,0-50.9c0-1.7,0.4-2.1,2.1-2.1c16.8,0.1,33.5,0.1,50.3,0c1.6,0,2.2,0.3,2.2,2.1
		c-0.1,5.2-0.1,10.5,0,15.7c0,1.6-0.3,2.2-2.1,2.2c-10.6-0.1-21.3,0-31.9-0.1c-2,0-2.3,0.6-2.3,2.4c0.1,6.8,0.1,13.7,0,20.5
		c0,1.5,0.4,1.9,1.9,1.9c9.8-0.1,19.6,0,29.3,0c1.5,0,2.1,0.3,2.1,2c-0.1,5.5-0.1,10.9,0,16.4c0,1.5-0.4,1.8-1.8,1.8
		c-9.8-0.1-19.5-0.1-29.3-0.3c-1.7,0-2.2,0.4-2.2,2.1c0.1,12.5,0,25,0.1,37.5c0,1.8-0.5,2.2-2.2,2.1c-4.7-0.1-9.3-0.1-14,0
		c-1.7,0-2.1-0.5-2.1-2.2C50.8,144.8,50.8,127.7,50.8,110.7z"/>
	<path class="st3" d="M167,173c0,2.5-0.1,5,0,7.5c0.1,1.5-0.7,1.6-1.8,1.5c-1.1,0-2.1,0.1-2-1.6c0.1-4.9,0-9.8,0.1-14.7
		c0-1.5-0.4-2-1.8-2.1c-8.9-0.6-17.2-3.2-24.6-8.1c-12.8-8.3-20.9-20-23.8-35.1c-0.3-1.8-0.8-3.6-0.7-5.3c0.1-2.4-0.9-2.9-3-2.6
		c-1.2,0.2-2.4,0-3.7,0c-2,0-2.9-1.4-2.2-3.2c0.3-0.7,0.8-0.5,1.3-0.5c2,0,4-0.1,6,0c1,0,1.3-0.3,1.4-1.3
		c1.2-17.1,8.9-30.6,22.8-40.5c7.9-5.6,16.8-8.6,26.4-9.2c1.4-0.1,1.8-0.5,1.8-1.9c-0.1-4.8,0-9.6-0.1-14.4c0-1.7,0.6-1.8,2-1.8
		c1.4,0,1.8,0.3,1.8,1.8c-0.1,4.9,0,9.8-0.1,14.7c0,1.3,0.4,1.6,1.7,1.7c20.9,1.9,35.9,12.5,45,31.3c2.7,5.5,4.2,11.4,4.4,17.6
		c0.1,1.6,0.5,2.3,2.2,2.1c1.8-0.2,3.6,0,5.4-0.1c1.8-0.1,1.2,1.2,1.3,2.1c0.1,1,0.1,1.8-1.4,1.8c-1.9-0.1-3.7,0.1-5.6-0.1
		c-1.4-0.1-1.8,0.3-1.9,1.7c-0.4,7.5-2.4,14.7-6.1,21.3c-9.2,16.5-23.2,25.9-42,28c-3,0.3-3,0.3-3,3.3C167,169,167,171,167,173z"/>
	<path class="st7" d="M127.4,112.7c3.3,0,6.6-0.1,9.9,0c1.5,0,1.6-0.7,1.6-1.8c0-1.1,0.1-2.1-1.6-2c-6.3,0.1-12.7,0-19,0.1
		c-2,0-2.6-0.3-2.4-2.5c1.5-14.3,7.8-25.8,19-34.7c7.9-6.2,16.9-9.5,26.9-10.2c1.6-0.1,1.3,0.8,1.3,1.7c0,6.3,0,12.6,0,19
		c0,2.1,1.1,2.8,3.1,2.2c1.1-0.3,0.7-1.2,0.7-1.8c0-6.4,0.1-12.8,0-19.2c0-1.6,0.4-2,2.1-1.9c9.3,0.7,17.7,3.8,25.1,9.3
		c11.3,8.3,18.1,19.4,19.9,33.4c0.6,4.7,0.4,4.7-4.4,4.7c-5.4,0-10.8,0.1-16.2,0c-1.6,0-1.8,0.7-1.9,2c0,1.4,0.3,1.9,1.8,1.9
		c6.4-0.1,12.8,0,19.2-0.1c1.8,0,2,0.6,1.9,2.1c-1.9,18.2-10.9,31.6-27,40.2c-5.6,3-11.7,4.7-18.1,5.2c-1.8,0.1-2.5-0.1-2.4-2.2
		c0.2-6.2,0-12.4,0.1-18.5c0-1.3,0-2.1-1.8-2.1c-1.6,0-2.1,0.4-2.1,2c0.1,6.3,0,12.6,0.1,19c0,1.5-0.4,2-1.9,1.8
		c-14.4-1.3-26-7.6-35-18.8c-6.3-7.9-9.6-17-10.5-27.1c-0.1-1.2,0.1-1.7,1.4-1.6C120.6,112.7,124,112.7,127.4,112.7z"/>
</g>
</svg>
