<svg xmlns="http://www.w3.org/2000/svg" xmlns:xlink="http://www.w3.org/1999/xlink" width="120" height="120" viewBox="0 0 120 120">
  <defs>
    <clipPath id="clip-path">
      <rect id="Rectangle_3" data-name="Rectangle 3" width="120" height="120" transform="translate(1663 558)" fill="#fff"/>
    </clipPath>
  </defs>
  <g id="Greater_diversity_and_compliance" data-name="Greater diversity and compliance" transform="translate(-1663 -558)" clip-path="url(#clip-path)">
    <g id="skill" transform="translate(1605.331 561.177)">
      <path id="Path_110" data-name="Path 110" d="M170.069,66.444a3.156,3.156,0,0,0-3.153-3.153H166.7a.607.607,0,0,1-.581-.46,18.9,18.9,0,0,0-1.5-3.768.61.61,0,0,1,.094-.722l.108-.108a3.157,3.157,0,0,0,0-4.459l-2.52-2.52a3.151,3.151,0,0,0-4.459,0l-.024.024a.608.608,0,0,1-.735.087,18.891,18.891,0,0,0-3.883-1.63.594.594,0,0,1-.417-.576,3.156,3.156,0,0,0-3.153-3.153h-3.563a3.158,3.158,0,0,0-3.153,3.16.591.591,0,0,1-.417.568,18.9,18.9,0,0,0-3.883,1.63.609.609,0,0,1-.736-.088l-.022-.022a3.152,3.152,0,0,0-4.459,0l-2.52,2.519a3.151,3.151,0,0,0,0,4.459l.108.108a.61.61,0,0,1,.094.722,18.88,18.88,0,0,0-1.5,3.767.608.608,0,0,1-.581.46h-.212a3.156,3.156,0,0,0-3.153,3.153v3.563a3.156,3.156,0,0,0,3.153,3.153h.38a.61.61,0,0,1,.576.441,18.9,18.9,0,0,0,1.559,3.613.584.584,0,0,1-.109.694l-.31.31a3.151,3.151,0,0,0,0,4.459L133.4,85.2a3.151,3.151,0,0,0,4.459,0l.395-.394a.586.586,0,0,1,.683-.115,18.9,18.9,0,0,0,3.567,1.457.6.6,0,0,1,.414.578v.57a3.156,3.156,0,0,0,3.153,3.153h3.563a3.156,3.156,0,0,0,3.153-3.153v-.57a.6.6,0,0,1,.414-.578,18.9,18.9,0,0,0,3.567-1.457.586.586,0,0,1,.683.115l.394.394a3.151,3.151,0,0,0,4.459,0l2.52-2.52a3.156,3.156,0,0,0,0-4.459l-.31-.31a.585.585,0,0,1-.109-.694A18.9,18.9,0,0,0,165.96,73.6a.61.61,0,0,1,.576-.441h.38a3.156,3.156,0,0,0,3.153-3.153V66.444Zm-2.556,3.563a.6.6,0,0,1-.6.6h-.38a3.155,3.155,0,0,0-3.016,2.235,16.325,16.325,0,0,1-1.348,3.123,3.149,3.149,0,0,0,.531,3.754l.31.31a.6.6,0,0,1,0,.844l-2.519,2.519a.6.6,0,0,1-.844,0L159.255,83a3.16,3.16,0,0,0-3.693-.563,16.348,16.348,0,0,1-3.084,1.259,3.166,3.166,0,0,0-2.251,3.03v.57a.6.6,0,0,1-.6.6h-3.563a.6.6,0,0,1-.6-.6v-.57a3.166,3.166,0,0,0-2.251-3.03,16.341,16.341,0,0,1-3.084-1.259,3.084,3.084,0,0,0-1.453-.36,3.173,3.173,0,0,0-2.24.923l-.395.394a.6.6,0,0,1-.844,0l-2.52-2.519a.6.6,0,0,1,0-.844l.31-.31a3.149,3.149,0,0,0,.53-3.753,16.352,16.352,0,0,1-1.348-3.123,3.155,3.155,0,0,0-3.016-2.235h-.38a.6.6,0,0,1-.6-.6V66.444a.6.6,0,0,1,.6-.6H129a3.179,3.179,0,0,0,3.043-2.33,16.334,16.334,0,0,1,1.3-3.257,3.153,3.153,0,0,0-.545-3.727l-.108-.108a.6.6,0,0,1,0-.844l2.52-2.52a.6.6,0,0,1,.845,0l.022.022a3.182,3.182,0,0,0,3.788.511,16.333,16.333,0,0,1,3.357-1.409,3.163,3.163,0,0,0,2.253-3.028.6.6,0,0,1,.6-.6h3.563a.6.6,0,0,1,.6.6,3.161,3.161,0,0,0,2.253,3.021,16.332,16.332,0,0,1,3.357,1.409,3.183,3.183,0,0,0,3.788-.511l.024-.024a.6.6,0,0,1,.844,0l2.52,2.52a.6.6,0,0,1,0,.844l-.108.108a3.153,3.153,0,0,0-.545,3.727,16.326,16.326,0,0,1,1.3,3.257,3.179,3.179,0,0,0,3.044,2.33h.212a.6.6,0,0,1,.6.6v3.563Z" transform="translate(-30.181 -29.076)" fill="#e9b237"/>
      <path id="Path_112" data-name="Path 112" d="M195.3,11.458a39.378,39.378,0,0,0-52.429-2.78,1.665,1.665,0,1,0,2.084,2.6,36.1,36.1,0,0,1,58.677,28.19,35.739,35.739,0,0,1-7.914,22.568,1.665,1.665,0,1,0,2.6,2.081A39.465,39.465,0,0,0,195.3,11.458Z" transform="translate(-49.831)" fill="#e9b237"/>
      <path id="Path_113" data-name="Path 113" d="M143.182,116.012a1.665,1.665,0,0,0-2.327.358,51.584,51.584,0,0,0-5.721,9.976H100.227a50.809,50.809,0,0,0-9.208-14.21,36.044,36.044,0,0,1-1.192-47.372,1.665,1.665,0,1,0-2.565-2.122,39.373,39.373,0,0,0,1.3,51.743,47.491,47.491,0,0,1,8.364,12.736,5.742,5.742,0,0,0-1.163,9.06,5.739,5.739,0,0,0,0,8.171,5.747,5.747,0,0,0,4.042,9.836h.106v.466a7.267,7.267,0,0,0,7.259,7.259h20.992a7.267,7.267,0,0,0,7.259-7.259v-.466h.106a5.747,5.747,0,0,0,4.042-9.836,5.739,5.739,0,0,0,0-8.171,5.742,5.742,0,0,0-1.147-9.051,48.276,48.276,0,0,1,5.115-8.792,1.665,1.665,0,0,0-.358-2.327Zm-11.087,38.642a3.935,3.935,0,0,1-3.93,3.93H107.172a3.935,3.935,0,0,1-3.93-3.93v-.466h28.852v.466Zm-21.712-8.637H135.53a2.421,2.421,0,1,1,0,4.842H99.807a2.421,2.421,0,1,1,0-4.842H102.6a1.665,1.665,0,1,0,0-3.329H99.807a2.421,2.421,0,0,1,0-4.842H135.53a2.421,2.421,0,0,1,0,4.842H110.383a1.665,1.665,0,1,0,0,3.329Zm25.147-11.5H99.807a2.42,2.42,0,0,1-.446-4.8c.036,0,.072-.009.107-.016a2.436,2.436,0,0,1,.339-.027H135.53a2.4,2.4,0,0,1,.355.029c.037.007.074.012.111.017a2.421,2.421,0,0,1-.466,4.8Z" transform="translate(0 -48.268)" fill="teal"/>
    </g>
  </g>
</svg>
