<svg xmlns="http://www.w3.org/2000/svg" xmlns:xlink="http://www.w3.org/1999/xlink" width="120" height="120" viewBox="0 0 120 120">
  <defs>
    <clipPath id="clip-path">
      <rect id="Rectangle_10" data-name="Rectangle 10" width="120" height="120" transform="translate(940 1244)" fill="#fff"/>
    </clipPath>
  </defs>
  <g id="Identify_what_needs_to_be_outsourced" data-name="Identify what needs to be outsourced" transform="translate(-940 -1244)" clip-path="url(#clip-path)">
    <g id="box" transform="translate(940 1244)">
      <path id="Path_134" data-name="Path 134" d="M201.535,160.322H163.96a3.641,3.641,0,0,0-3.637,3.637v37.576a3.641,3.641,0,0,0,3.637,3.637h3.758a1.758,1.758,0,0,0,0-3.516H163.96a.121.121,0,0,1-.121-.121V163.959a.121.121,0,0,1,.121-.121h11.394V177.11a1.758,1.758,0,0,0,2.733,1.463l4.661-3.107,4.661,3.108a1.758,1.758,0,0,0,2.733-1.463V163.838h11.394a.121.121,0,0,1,.121.121v37.576a.121.121,0,0,1-.121.121h-26.3a1.758,1.758,0,1,0,0,3.516h26.3a3.641,3.641,0,0,0,3.637-3.637V163.959A3.641,3.641,0,0,0,201.535,160.322Zm-14.909,13.5-2.9-1.936a1.758,1.758,0,0,0-1.95,0l-2.9,1.936v-9.988h7.757v9.988Z" transform="translate(-122.747 -122.746)" fill="#e9b237"/>
      <path id="Path_135" data-name="Path 135" d="M264.532,306.371a1.758,1.758,0,0,0,1.758,1.758h9.394a1.758,1.758,0,0,0,0-3.516H266.29A1.758,1.758,0,0,0,264.532,306.371Z" transform="translate(-202.532 -233.219)" fill="teal"/>
      <path id="Path_136" data-name="Path 136" d="M294.1,276.064a1.758,1.758,0,0,0,0-3.516h-3.758a1.758,1.758,0,0,0,0,3.516Z" transform="translate(-220.945 -208.669)" fill="teal"/>
      <path id="Path_137" data-name="Path 137" d="M231.846,14.788a7.394,7.394,0,1,0-7.394-7.394A7.4,7.4,0,0,0,231.846,14.788Zm0-11.273a3.879,3.879,0,1,1-3.878,3.879A3.883,3.883,0,0,1,231.846,3.516Z" transform="translate(-171.846 0)" fill="teal"/>
      <path id="Path_138" data-name="Path 138" d="M248.5,81.919V93.192a1.758,1.758,0,0,0,3.516,0V81.919a1.758,1.758,0,0,0-3.516,0Z" transform="translate(-190.258 -61.373)" fill="teal"/>
      <path id="Path_139" data-name="Path 139" d="M231.846,448.9a7.394,7.394,0,1,0,7.394,7.394A7.4,7.4,0,0,0,231.846,448.9Zm0,11.273a3.878,3.878,0,1,1,3.878-3.878A3.883,3.883,0,0,1,231.846,460.176Z" transform="translate(-171.846 -343.691)" fill="teal"/>
      <path id="Path_140" data-name="Path 140" d="M252.016,381.773V370.5a1.758,1.758,0,0,0-3.516,0v11.273a1.758,1.758,0,0,0,3.516,0Z" transform="translate(-190.258 -282.318)" fill="teal"/>
      <path id="Path_141" data-name="Path 141" d="M7.394,224.452a7.394,7.394,0,1,0,7.394,7.394A7.4,7.4,0,0,0,7.394,224.452Zm0,11.273a3.878,3.878,0,1,1,3.879-3.878A3.883,3.883,0,0,1,7.394,235.725Z" transform="translate(0 -171.846)" fill="teal"/>
      <path id="Path_142" data-name="Path 142" d="M80.161,250.258a1.758,1.758,0,0,0,1.758,1.758H93.192a1.758,1.758,0,0,0,0-3.516H81.919A1.758,1.758,0,0,0,80.161,250.258Z" transform="translate(-61.373 -190.258)" fill="teal"/>
      <path id="Path_143" data-name="Path 143" d="M456.3,224.452a7.394,7.394,0,1,0,7.394,7.394A7.4,7.4,0,0,0,456.3,224.452Zm0,11.273a3.878,3.878,0,1,1,3.878-3.878A3.883,3.883,0,0,1,456.3,235.725Z" transform="translate(-343.692 -171.846)" fill="teal"/>
      <path id="Path_144" data-name="Path 144" d="M370.5,248.5a1.758,1.758,0,0,0,0,3.516h11.273a1.758,1.758,0,0,0,0-3.516Z" transform="translate(-282.318 -190.258)" fill="teal"/>
      <path id="Path_145" data-name="Path 145" d="M390.556,80.528a7.394,7.394,0,1,0-5.228-2.166A7.345,7.345,0,0,0,390.556,80.528Zm-2.742-10.137a3.879,3.879,0,1,1-1.136,2.743A3.853,3.853,0,0,1,387.814,70.392Z" transform="translate(-293.358 -50.332)" fill="teal"/>
      <path id="Path_146" data-name="Path 146" d="M362.484,134.577a1.752,1.752,0,0,0,1.243-.515l1.6-1.6a1.758,1.758,0,0,0-2.486-2.486l-1.6,1.6a1.758,1.758,0,0,0,1.243,3Z" transform="translate(-276.181 -99.123)" fill="teal"/>
      <path id="Path_147" data-name="Path 147" d="M73.135,383.163a7.394,7.394,0,1,0,5.228,2.166A7.345,7.345,0,0,0,73.135,383.163ZM75.877,393.3a3.878,3.878,0,1,1,1.136-2.743A3.854,3.854,0,0,1,75.877,393.3Z" transform="translate(-50.333 -293.359)" fill="teal"/>
      <path id="Path_148" data-name="Path 148" d="M131.577,361.241l-1.6,1.6a1.758,1.758,0,0,0,2.486,2.486l1.6-1.6a1.758,1.758,0,0,0-2.486-2.486Z" transform="translate(-99.123 -276.18)" fill="teal"/>
      <path id="Path_149" data-name="Path 149" d="M73.134,80.528a7.4,7.4,0,0,0,7.394-7.394,1.758,1.758,0,1,0-3.516,0,3.879,3.879,0,1,1-3.879-3.879,1.758,1.758,0,0,0,0-3.516,7.394,7.394,0,1,0,0,14.788Z" transform="translate(-50.332 -50.332)" fill="teal"/>
      <path id="Path_150" data-name="Path 150" d="M132.468,129.981a1.758,1.758,0,0,0-2.486,2.486l1.6,1.6a1.758,1.758,0,1,0,2.486-2.486Z" transform="translate(-99.123 -99.123)" fill="teal"/>
      <path id="Path_151" data-name="Path 151" d="M396.194,388.8a1.758,1.758,0,0,0-1.758,1.758,3.878,3.878,0,1,1-3.878-3.878,1.758,1.758,0,0,0,0-3.516,7.394,7.394,0,1,0,7.394,7.394A1.758,1.758,0,0,0,396.194,388.8Z" transform="translate(-293.36 -293.359)" fill="teal"/>
      <path id="Path_152" data-name="Path 152" d="M363.727,361.241a1.758,1.758,0,0,0-2.486,2.486l1.6,1.6a1.758,1.758,0,1,0,2.486-2.486Z" transform="translate(-276.181 -276.18)" fill="teal"/>
    </g>
  </g>
</svg>
