<svg xmlns="http://www.w3.org/2000/svg" xmlns:xlink="http://www.w3.org/1999/xlink" width="120" height="120" viewBox="0 0 120 120">
  <defs>
    <clipPath id="clip-path">
      <rect id="Rectangle_2" data-name="Rectangle 2" width="120" height="120" transform="translate(1989 158)" fill="#fff"/>
    </clipPath>
  </defs>
  <g id="Improved_streamlining" data-name="Improved streamlining" transform="translate(-1989 -158)" clip-path="url(#clip-path)">
    <g id="process" transform="translate(1989 158)">
      <path id="Path_85" data-name="Path 85" d="M34,76A14.01,14.01,0,0,0,47.84,64H69.172l-2.586,2.586,2.828,2.828,6-6a2,2,0,0,0,0-2.828l-6-6-2.828,2.828L69.172,60H47.84A13.993,13.993,0,1,0,34,76Zm0-24A10,10,0,1,1,24,62,10.012,10.012,0,0,1,34,52Z" transform="translate(16 44)" fill="#e9b237"/>
      <path id="Path_86" data-name="Path 86" d="M62,76A14,14,0,1,0,48,62,14.016,14.016,0,0,0,62,76Zm0-24A10,10,0,1,1,52,62,10.012,10.012,0,0,1,62,52Z" transform="translate(44 44)" fill="teal"/>
      <path id="Path_87" data-name="Path 87" d="M44,25A14.01,14.01,0,0,0,30.16,37H27a25,25,0,0,0,0,50h4.172l-2.586,2.586,2.828,2.828,6-6a2,2,0,0,0,0-2.828l-6-6-2.828,2.828L31.172,83H27a21,21,0,1,1,0-42h3.16A13.992,13.992,0,1,0,44,25Zm0,24A10,10,0,1,1,54,39,10.012,10.012,0,0,1,44,49Z" transform="translate(-2 21)" fill="teal"/>
      <path id="Path_88" data-name="Path 88" d="M51.414,8.586l-2.828,2.828L51.172,14H29.84a14,14,0,1,0,0,4H51.172l-2.586,2.586,2.828,2.828,6-6a2,2,0,0,0,0-2.828ZM16,26A10,10,0,1,1,26,16,10.012,10.012,0,0,1,16,26Z" transform="translate(-2 -2)" fill="teal"/>
      <path id="Path_89" data-name="Path 89" d="M94,39A25.028,25.028,0,0,0,69,14H57.84a14,14,0,1,0,0,4H69a21,21,0,0,1,0,42H36.828l2.586-2.586-2.828-2.828-6,6a2,2,0,0,0,0,2.828l6,6,2.828-2.828L36.828,64H69A25.028,25.028,0,0,0,94,39ZM44,26A10,10,0,1,1,54,16,10.012,10.012,0,0,1,44,26Z" transform="translate(26 -2)" fill="#e9b237"/>
    </g>
  </g>
</svg>
