<svg xmlns="http://www.w3.org/2000/svg" xmlns:xlink="http://www.w3.org/1999/xlink" width="120" height="120" viewBox="0 0 120 120">
  <defs>
    <clipPath id="clip-path">
      <rect id="Rectangle_9" data-name="Rectangle 9" width="120" height="120" transform="translate(800 158)" fill="#fff"/>
    </clipPath>
  </defs>
  <g id="Managed_Solutions" data-name="Managed Solutions" transform="translate(-800 -158)" clip-path="url(#clip-path)">
    <g id="solution" transform="translate(811.613 158)">
      <path id="Path_334" data-name="Path 334" d="M73.645,1h-27.1a5.814,5.814,0,0,0-5.806,5.806v3.871a7.742,7.742,0,1,0,0,15.484v9.677H56.226V31.968a3.871,3.871,0,1,1,7.742,0v3.871h9.677a5.814,5.814,0,0,0,5.806-5.806V6.806A5.814,5.814,0,0,0,73.645,1Zm1.935,29.032a1.937,1.937,0,0,1-1.935,1.935H67.839a7.742,7.742,0,1,0-15.484,0H44.613V22.29H40.742a3.871,3.871,0,1,1,0-7.742h3.871V6.806a1.937,1.937,0,0,1,1.935-1.935h27.1a1.937,1.937,0,0,1,1.935,1.935Z" transform="translate(17.323 -1)" fill="#fff"/>
      <path id="Path_335" data-name="Path 335" d="M65.065,34.1a7.75,7.75,0,0,0-7.742,7.742H49.581V32.161H45.71a3.871,3.871,0,1,1,0-7.742h3.871V7H44.392A37.391,37.391,0,0,0,20.715,73.331l7.575,6.2v5.247a5.773,5.773,0,0,0,.426,11.032,5.75,5.75,0,0,0,3.55,7.641,13.539,13.539,0,0,0,26.888,0,5.753,5.753,0,0,0,3.55-7.643,5.773,5.773,0,0,0,.426-11.032V79.528l7.575-6.2A37.247,37.247,0,0,0,84.419,44.392V41.839H72.806A7.75,7.75,0,0,0,65.065,34.1ZM44.392,10.871H45.71v9.677a7.742,7.742,0,1,0,0,15.484v5.806H37.968a7.742,7.742,0,0,0-15.484,0H10.968A33.565,33.565,0,0,1,44.392,10.871ZM23.165,70.335A33.376,33.376,0,0,1,10.9,45.71H26.355V41.839a3.871,3.871,0,1,1,7.742,0V45.71H45.71v7.742a7.742,7.742,0,1,0,0,15.484V84.419H32.161V77.7ZM45.71,111.516a9.7,9.7,0,0,1-9.482-7.742H55.192A9.7,9.7,0,0,1,45.71,111.516ZM57.323,99.9H34.1a1.935,1.935,0,1,1,0-3.871H57.323a1.935,1.935,0,1,1,0,3.871Zm3.871-7.742H30.226a1.935,1.935,0,0,1,0-3.871H61.194a1.935,1.935,0,0,1,0,3.871Zm7.061-21.826-9,7.361v6.724H49.581V65.065H45.71a3.871,3.871,0,0,1,0-7.742h3.871V45.71H61.194V41.839a3.871,3.871,0,1,1,7.742,0V45.71H80.521A33.376,33.376,0,0,1,68.254,70.335Z" transform="translate(-7 4.613)" fill="#fff"/>
    </g>
  </g>
</svg>
