<svg xmlns="http://www.w3.org/2000/svg" xmlns:xlink="http://www.w3.org/1999/xlink" width="64" height="64" viewBox="0 0 64 64">
  <defs>
    <clipPath id="clip-path">
      <rect id="Rectangle_17" data-name="Rectangle 17" width="64" height="64" transform="translate(1889 158)" fill="#fff"/>
    </clipPath>
  </defs>
  <g id="MAP" transform="translate(-1889 -158)" clip-path="url(#clip-path)">
    <g id="africa" transform="translate(1875.013 158.002)">
      <g id="Group_141" data-name="Group 141" transform="translate(15.985 -0.002)">
        <path id="Path_357" data-name="Path 357" d="M69.385,30.879l.144-.177c2.019-2.475,2.7-3.309,3.148-6.955a2.171,2.171,0,0,0-.647-2.075c-.886-.73-2.046-.352-3.168.014-1.285.419-2.3.7-2.755.165l-.331-.392c-.987-1.171-1.114-1.321-1.882-1.726-.259-.136-.65-.343-1.354-.79-.5-.318-.81-1.722-1.014-2.651a9.233,9.233,0,0,0-.575-1.967,4.613,4.613,0,0,0-1.327-1.574,5.742,5.742,0,0,1-1.5-1.779A2.9,2.9,0,0,1,58,9.154a4.951,4.951,0,0,0-.682-3.791c-.549-.771-1.392-.679-3.073-.5a11.583,11.583,0,0,1-4.1,0,16.893,16.893,0,0,0-2.122-.6c-1.132-.239-2.381-.371-3.057.464a2.069,2.069,0,0,0-.394,1.845c-.134-.063-.306-.154-.533-.281a5.344,5.344,0,0,0-1.41-.614A3.166,3.166,0,0,1,40.994,4.55l-.044-.2A4.443,4.443,0,0,0,38.459.714,6.342,6.342,0,0,0,32.793.62a5.763,5.763,0,0,0-.6.372,4.983,4.983,0,0,1-1.5.777,3.481,3.481,0,0,1-.922-.012,5.428,5.428,0,0,0-2.03.1c-2.077.6-4.3,1.989-4.3,4.112a1.816,1.816,0,0,1-.187,1.006,2.679,2.679,0,0,1-.822.415A7.652,7.652,0,0,0,18.6,10.347c-.107.153-.206.288-.3.413-.9,1.231-1.218,1.909-1.218,4.687a7.082,7.082,0,0,1-.478,2.268c-.617,1.893-1.317,4.038.838,8.064a15.98,15.98,0,0,0,3.445,3.36c2.914,2.232,4.047,2.228,4.771,1.929a5.069,5.069,0,0,1,2.648-.382A6.08,6.08,0,0,0,32.587,29.6a6.936,6.936,0,0,1,1.864.329,11.163,11.163,0,0,0,2.464.444,7.531,7.531,0,0,1-.526,1.759c-.058.151-.109.287-.151.4a2.825,2.825,0,0,0,1.258,3.631,4.84,4.84,0,0,1,1.028.956,1.25,1.25,0,0,0,2-1.5,7.244,7.244,0,0,0-1.514-1.444,3.694,3.694,0,0,1-.5-.422,1.248,1.248,0,0,1,.09-.38c.036-.1.081-.218.13-.348.451-1.181,1.133-2.965.279-4.207a2.265,2.265,0,0,0-1.99-.943,9.074,9.074,0,0,1-1.938-.366c-1.357-.349-2.76-.71-3.812-.027a3.7,3.7,0,0,1-2.791.71,7.479,7.479,0,0,0-3.577.491,10.839,10.839,0,0,1-2.772-1.754,14.366,14.366,0,0,1-2.472-2.33c-1.652-3.086-1.2-4.487-.666-6.109a9.41,9.41,0,0,0,.6-3.043c0-2.207.155-2.419.734-3.208.1-.138.211-.288.329-.456a5.165,5.165,0,0,1,2.717-2.075c1.15-.459,2.582-1.03,2.582-3.742,0-.471,1.021-1.289,2.486-1.709a3.42,3.42,0,0,1,1.118-.009A5.185,5.185,0,0,0,31.3,4.2a7.217,7.217,0,0,0,2.3-1.133c.116-.078.275-.186.329-.214a3.9,3.9,0,0,1,3.34.062c.916.5.959.7,1.244,1.981l.047.214c.334,1.495,2.3,2.728,3.523,3.009a3.676,3.676,0,0,1,.745.357,3.287,3.287,0,0,0,3.714.223A1.753,1.753,0,0,0,47.22,6.65a13.741,13.741,0,0,1,2.05.557c1.479.558,3.57.33,5.251.146.312-.034.7-.076.99-.1a3.846,3.846,0,0,1,.011,1.606,5.124,5.124,0,0,0,.427,3.345,8.179,8.179,0,0,0,2.063,2.456,2.284,2.284,0,0,1,.693.759,8.3,8.3,0,0,1,.382,1.409c.328,1.492.736,3.35,2.116,4.225.789.5,1.233.735,1.527.89.337.178.337.178,1.137,1.127l.333.395c1.571,1.858,3.992,1.069,5.438.6.148-.048.326-.106.5-.159-.343,2.52-.748,3.016-2.544,5.218l-.145.177a21.337,21.337,0,0,1-3.535,3.495,5.934,5.934,0,0,0-2.315,2.9c-.412,1.21-.565,2.912-.565,6.28a13.838,13.838,0,0,0,.192,2.31,5.565,5.565,0,0,1,.065,1.791c-.082.668-.457.907-1.507,1.417-1.293.629-3.453,1.679-2.617,5.143a6.95,6.95,0,0,1-.246,2.069,4.465,4.465,0,0,1-1.575,1.971A23.458,23.458,0,0,0,52.9,58.513c-1.834,1.5-4.117,3.363-5.571,2.919-1.016-.31-1.161-.521-1.162-.523a2.222,2.222,0,0,1-.079-.409,5.142,5.142,0,0,0-.842-2.323,4.125,4.125,0,0,1-.835-2.2A9.278,9.278,0,0,0,42.728,51.6a6.026,6.026,0,0,1-.922-3.961,1.25,1.25,0,1,0-2.454-.478,8.45,8.45,0,0,0,1.259,5.769,6.89,6.89,0,0,1,1.321,3.349,6.56,6.56,0,0,0,1.235,3.279,2.7,2.7,0,0,1,.449,1.293c.2,1.426.722,2.277,2.986,2.968A4.022,4.022,0,0,0,47.783,64c2.358,0,4.736-1.943,6.7-3.549a22.046,22.046,0,0,1,2.158-1.637,6.9,6.9,0,0,0,2.6-3.177,8.4,8.4,0,0,0,.365-3.552,1.967,1.967,0,0,1,.045-1.554,3.523,3.523,0,0,1,1.227-.788,4.3,4.3,0,0,0,2.9-3.36,8.047,8.047,0,0,0-.075-2.475,11.349,11.349,0,0,1-.163-1.932,19.817,19.817,0,0,1,.432-5.474c.239-.7.577-1,1.519-1.76a23.84,23.84,0,0,0,3.9-3.86Z" transform="translate(-15.985 0.002)" fill="#e9b237"/>
        <path id="Path_358" data-name="Path 358" d="M420.468,336.913a2.642,2.642,0,0,0-1.82-1.13c-1.669-.225-2.633,1.313-3.27,2.331l-.11.176c-.3.481-.435.525-1.168.769l-.342.116c-1.3.449-1.5,1.84-1.7,3.185a8.422,8.422,0,0,1-.562,2.309c-.758,1.57-1.277,3.782-.457,5.279a2.62,2.62,0,0,0,2.044,1.361,4.847,4.847,0,0,0,.576.035c2.6,0,3.647-2.288,4.356-3.836a6.839,6.839,0,0,1,.857-1.553,9.873,9.873,0,0,0,2.334-4.9A5.928,5.928,0,0,0,420.468,336.913Zm-1.718,3.66a7.432,7.432,0,0,1-1.715,3.684,8.313,8.313,0,0,0-1.3,2.211c-.875,1.91-1.315,2.485-2.361,2.359-.113-.014-.124-.033-.149-.079a4.261,4.261,0,0,1,.516-2.993,10.442,10.442,0,0,0,.784-3.03,8.994,8.994,0,0,1,.242-1.256l.122-.041a3.949,3.949,0,0,0,2.492-1.808l.115-.183a5.56,5.56,0,0,1,.859-1.159.408.408,0,0,1,.078.087,3.645,3.645,0,0,1,.315,2.206Z" transform="translate(-361.294 -293.793)" fill="#e9b237"/>
        <path id="Path_359" data-name="Path 359" d="M208.675,325.659a1.25,1.25,0,0,0-1.25-1.25h0a1.25,1.25,0,1,0,1.251,1.25Z" transform="translate(-182.403 -283.86)" fill="#e9b237"/>
      </g>
    </g>
  </g>
</svg>
