<svg xmlns="http://www.w3.org/2000/svg" xmlns:xlink="http://www.w3.org/1999/xlink" width="120" height="120" viewBox="0 0 120 120">
  <defs>
    <clipPath id="clip-path">
      <rect id="Rectangle_16" data-name="Rectangle 16" width="120" height="120" transform="translate(1500 158)" fill="#fff"/>
    </clipPath>
  </defs>
  <g id="Mask_Group_13" data-name="Mask Group 13" transform="translate(-1500 -158)" clip-path="url(#clip-path)">
    <g id="setting" transform="translate(1498 156)">
      <path id="Path_347" data-name="Path 347" d="M68.269,122H55.731a3.5,3.5,0,0,1-3.429-2.863l-1.274-7.159A50.625,50.625,0,0,1,34.4,105.1l-5.935,4.154a3.478,3.478,0,0,1-4.457-.386L15.13,99.985a3.475,3.475,0,0,1-.386-4.457L18.9,89.6a50.6,50.6,0,0,1-6.876-16.629L4.883,71.71A3.509,3.509,0,0,1,2,68.281V55.729A3.5,3.5,0,0,1,4.865,52.3l7.157-1.272A50.6,50.6,0,0,1,18.9,34.4l-4.154-5.93a3.477,3.477,0,0,1,.384-4.457l8.887-8.882a3.473,3.473,0,0,1,4.457-.387L34.4,18.9A50.635,50.635,0,0,1,51.029,12.02l1.263-7.138A3.506,3.506,0,0,1,55.731,2H68.269A3.5,3.5,0,0,1,71.7,4.863l1.274,7.157A50.635,50.635,0,0,1,89.6,18.9l5.935-4.154a3.475,3.475,0,0,1,4.457.386l8.885,8.885a3.475,3.475,0,0,1,.386,4.457L105.1,34.4a50.6,50.6,0,0,1,6.876,16.629l7.138,1.262A3.509,3.509,0,0,1,122,55.719V68.261a3.5,3.5,0,0,1-2.865,3.429l-7.157,1.265A50.6,50.6,0,0,1,105.1,89.583l4.154,5.935a3.477,3.477,0,0,1-.384,4.457l-8.887,8.894a3.477,3.477,0,0,1-4.457.387L89.6,105.1a50.625,50.625,0,0,1-16.629,6.876l-1.263,7.14A3.506,3.506,0,0,1,68.269,122ZM34.376,101.315a1.714,1.714,0,0,1,.958.293,47.294,47.294,0,0,0,17.508,7.245,1.714,1.714,0,0,1,1.359,1.383l1.467,8.285,12.6.05,1.529-8.335a1.714,1.714,0,0,1,1.359-1.383,47.294,47.294,0,0,0,17.508-7.245,1.714,1.714,0,0,1,1.942.017l6.886,4.821,8.952-8.885-4.822-6.953a1.714,1.714,0,0,1-.015-1.944,47.287,47.287,0,0,0,7.245-17.508,1.714,1.714,0,0,1,1.385-1.359l8.283-1.466.05-12.6c0-.046-.046-.058-.069-.063L110.238,54.2a1.714,1.714,0,0,1-1.385-1.359,47.287,47.287,0,0,0-7.245-17.508,1.714,1.714,0,0,1,.015-1.944l4.824-6.888-8.887-8.949-6.953,4.819a1.714,1.714,0,0,1-1.942.017,47.332,47.332,0,0,0-17.508-7.246A1.714,1.714,0,0,1,69.8,13.762L68.331,5.478l-12.6-.05L54.2,13.762a1.714,1.714,0,0,1-1.359,1.383A47.331,47.331,0,0,0,35.334,22.4a1.714,1.714,0,0,1-1.942-.017l-6.878-4.829-8.952,8.885,4.822,6.953a1.714,1.714,0,0,1,.015,1.944,47.287,47.287,0,0,0-7.253,17.508A1.714,1.714,0,0,1,13.762,54.2L5.478,55.669l-.05,12.6L13.762,69.8a1.714,1.714,0,0,1,1.385,1.359A47.287,47.287,0,0,0,22.4,88.664a1.714,1.714,0,0,1-.015,1.944L17.561,97.5l8.887,8.949,6.953-4.819a1.714,1.714,0,0,1,.975-.31Z" transform="translate(0 0)" fill="#fff"/>
      <path id="Path_348" data-name="Path 348" d="M45.945,59.779a1.714,1.714,0,0,1-.677-3.29A34.165,34.165,0,0,0,49.673,54.2a1.714,1.714,0,1,1,1.8,2.914,37.668,37.668,0,0,1-4.848,2.517A1.733,1.733,0,0,1,45.945,59.779Z" transform="translate(30.164 37.074)" fill="#fff"/>
      <path id="Path_350" data-name="Path 350" d="M53.942,54.533a1.714,1.714,0,0,1-1.323-2.8,34.515,34.515,0,0,0,2.841-4.017,1.714,1.714,0,1,1,2.933,1.773,37.947,37.947,0,0,1-3.129,4.418A1.714,1.714,0,0,1,53.942,54.533Z" transform="translate(35.879 32.032)" fill="#fff"/>
      <path id="Path_351" data-name="Path 351" d="M25.714,49.08A1.714,1.714,0,0,1,24,47.366V37.286a1.714,1.714,0,0,1,1.714-1.714h6.857V17.914a1.714,1.714,0,1,1,3.429,0V37.286A1.714,1.714,0,0,1,34.286,39H27.429v8.366A1.714,1.714,0,0,1,25.714,49.08Z" transform="translate(15.714 10.143)" fill="#fff"/>
      <path id="Path_352" data-name="Path 352" d="M28.119,48.336A7.483,7.483,0,1,1,35.6,40.854a7.483,7.483,0,0,1-7.481,7.482Zm0-11.535a4.05,4.05,0,1,1,0,.007Z" transform="translate(13.31 22.407)" fill="#fff"/>
      <path id="Path_353" data-name="Path 353" d="M40.119,56.6A7.483,7.483,0,1,1,47.6,49.118,7.483,7.483,0,0,1,40.119,56.6Zm0-11.537a4.054,4.054,0,1,0,4.053,4.054,4.054,4.054,0,0,0-4.053-4.054Z" transform="translate(21.881 28.311)" fill="#fff"/>
      <path id="Path_354" data-name="Path 354" d="M53.286,49.08a1.714,1.714,0,0,1-1.714-1.714V39H44.714A1.714,1.714,0,0,1,43,37.286V17.914a1.714,1.714,0,0,1,3.429,0V35.571h6.857A1.714,1.714,0,0,1,55,37.286v10.08A1.714,1.714,0,0,1,53.286,49.08Z" transform="translate(29.286 10.143)" fill="#fff"/>
      <path id="Path_355" data-name="Path 355" d="M52.119,48.336A7.483,7.483,0,1,1,59.6,40.854a7.483,7.483,0,0,1-7.481,7.482Zm0-11.535a4.055,4.055,0,1,1,0,.007Z" transform="translate(30.453 22.407)" fill="#fff"/>
      <path id="Path_356" data-name="Path 356" d="M37.714,64.1A1.714,1.714,0,0,1,36,62.383V16.714a1.714,1.714,0,1,1,3.429,0V62.383A1.714,1.714,0,0,1,37.714,64.1Z" transform="translate(24.286 9.286)" fill="#fff"/>
      <path id="Path_349" data-name="Path 349" d="M52.714,90.429A37.714,37.714,0,1,1,90.429,52.714a36.344,36.344,0,0,1-.595,6.6,1.714,1.714,0,0,1-3.37-.624A33.013,33.013,0,0,0,87,52.714,34.286,34.286,0,1,0,52.714,87a1.714,1.714,0,0,1,0,3.429Z" transform="translate(9.286 9.286)" fill="#fff"/>
    </g>
  </g>
</svg>
