<svg xmlns="http://www.w3.org/2000/svg" xmlns:xlink="http://www.w3.org/1999/xlink" width="120" height="120" viewBox="0 0 120 120">
  <defs>
    <clipPath id="clip-path">
      <rect id="Rectangle_13" data-name="Rectangle 13" width="120" height="120" transform="translate(1080 1244)" fill="#fff"/>
    </clipPath>
  </defs>
  <g id="Measure_performance" data-name="Measure performance" transform="translate(-1080 -1244)" clip-path="url(#clip-path)">
    <g id="care" transform="translate(1080 1244)">
      <path id="Path_309" data-name="Path 309" d="M37.909,161.413a18.17,18.17,0,0,0-16.581-4.854v-23.9a10.664,10.664,0,0,0-21.328,0v38.492a20.047,20.047,0,0,0,5.929,14.18l16.635,16.417v8.138a3.516,3.516,0,0,0,3.516,3.516H52.969a3.516,3.516,0,0,0,3.516-3.516V186.18a15.335,15.335,0,0,0-4.507-10.818Zm11.544,44.962H29.6v-6.092a3.516,3.516,0,0,0-1.046-2.5L10.867,180.331a12.971,12.971,0,0,1-3.836-9.175V132.664a3.633,3.633,0,0,1,7.266,0v27.061a18.15,18.15,0,0,0-2.017,1.742,3.516,3.516,0,0,0,0,4.972l15.82,15.82a3.516,3.516,0,1,0,4.972-4.972L20.141,164.357a11.162,11.162,0,0,1,12.818,2.049l14.067,13.949a8.256,8.256,0,0,1,2.427,5.825v20.195Z" transform="translate(0 -93.406)" fill="teal"/>
      <path id="Path_310" data-name="Path 310" d="M316.82,122a10.676,10.676,0,0,0-10.664,10.664v23.9a18.175,18.175,0,0,0-16.581,4.854l-14.067,13.949A15.333,15.333,0,0,0,271,186.18V209.89a3.516,3.516,0,0,0,3.516,3.516H301.4a3.516,3.516,0,0,0,3.516-3.516v-8.138l16.635-16.417a20.048,20.048,0,0,0,5.929-14.18V132.664A10.676,10.676,0,0,0,316.82,122Zm3.633,49.156a12.97,12.97,0,0,1-3.836,9.175L298.935,197.78a3.516,3.516,0,0,0-1.046,2.5v6.092H278.031v-20.2a8.257,8.257,0,0,1,2.427-5.825l14.067-13.949a11.16,11.16,0,0,1,12.817-2.049l-12.931,12.931a3.516,3.516,0,0,0,4.972,4.972l15.82-15.82a3.516,3.516,0,0,0,0-4.972,18.185,18.185,0,0,0-2.017-1.742V132.664a3.633,3.633,0,0,1,7.266,0Z" transform="translate(-207.484 -93.406)" fill="teal"/>
      <path id="Path_311" data-name="Path 311" d="M169.516,59.765h35.156a3.516,3.516,0,0,0,3.516-3.516V45.7a21.128,21.128,0,0,0-13.632-19.729,14.062,14.062,0,1,0-14.923,0A21.128,21.128,0,0,0,166,45.7V56.25A3.516,3.516,0,0,0,169.516,59.765ZM187.094,7.031a7.031,7.031,0,1,1-7.031,7.031A7.039,7.039,0,0,1,187.094,7.031ZM173.031,45.7a14.062,14.062,0,0,1,28.125,0v7.031H173.031Z" transform="translate(-127.094 0)" fill="#e9b237"/>
    </g>
  </g>
</svg>
