<svg xmlns="http://www.w3.org/2000/svg" xmlns:xlink="http://www.w3.org/1999/xlink" width="120" height="120" viewBox="0 0 120 120">
  <defs>
    <clipPath id="clip-path">
      <rect id="Rectangle_12" data-name="Rectangle 12" width="120" height="120" transform="translate(780 1527)" fill="#fff"/>
    </clipPath>
  </defs>
  <g id="meeting" transform="translate(-780 -1527)" clip-path="url(#clip-path)">
    <g id="businessmen" transform="translate(780 1527.351)">
      <g id="Group_83" data-name="Group 83" transform="translate(29.912 0)">
        <path id="Path_167" data-name="Path 167" d="M35.912,49.854h-.095a2.509,2.509,0,0,1-1.9-1l-6.73-8.974H13.478A7.487,7.487,0,0,1,6,32.4V7.478A7.487,7.487,0,0,1,13.478,0H58.346a7.487,7.487,0,0,1,7.478,7.478V32.4a7.487,7.487,0,0,1-7.478,7.478H45.768L37.787,49A2.484,2.484,0,0,1,35.912,49.854ZM13.478,4.985a2.494,2.494,0,0,0-2.493,2.493V32.4A2.494,2.494,0,0,0,13.478,34.9H28.434a2.491,2.491,0,0,1,1.994,1L36.062,43.4l6.7-7.658a2.5,2.5,0,0,1,1.874-.848h13.71A2.494,2.494,0,0,0,60.839,32.4V7.478a2.494,2.494,0,0,0-2.493-2.493Z" transform="translate(-6 0)" fill="teal"/>
      </g>
      <g id="Group_84" data-name="Group 84" transform="translate(93.276 4.985)">
        <path id="Path_168" data-name="Path 168" d="M25.141,50.854h-.1a2.491,2.491,0,0,1-1.9-1L19.2,44.567a2.494,2.494,0,1,1,4-2.981L25.3,44.4l6.69-7.648a2.5,2.5,0,0,1,1.879-.852H37.6A2.494,2.494,0,0,0,40.1,33.4V8.478A2.494,2.494,0,0,0,37.6,5.985H27.634a2.493,2.493,0,1,1,0-4.985H37.6a7.487,7.487,0,0,1,7.478,7.478V33.4A7.487,7.487,0,0,1,37.6,40.883H35L27.016,50a2.484,2.484,0,0,1-1.874.852Z" transform="translate(-18.71 -1)" fill="teal"/>
      </g>
      <g id="Group_85" data-name="Group 85" transform="translate(0 4.985)">
        <path id="Path_169" data-name="Path 169" d="M19.941,50.854A2.484,2.484,0,0,1,18.067,50l-7.982-9.118H7.478A7.487,7.487,0,0,1,0,33.4V8.478A7.487,7.487,0,0,1,7.478,1h9.971a2.493,2.493,0,1,1,0,4.985H7.478A2.494,2.494,0,0,0,4.985,8.478V33.4A2.494,2.494,0,0,0,7.478,35.9h3.739a2.484,2.484,0,0,1,1.874.852l6.69,7.648,2.094-2.812a2.494,2.494,0,1,1,4,2.981l-3.938,5.284a2.481,2.481,0,0,1-1.894,1Z" transform="translate(0 -1)" fill="teal"/>
      </g>
      <g id="Group_86" data-name="Group 86" transform="translate(89.736 64.81)">
        <path id="Path_170" data-name="Path 170" d="M27.971,32.941a9.971,9.971,0,1,1,9.971-9.971A9.981,9.981,0,0,1,27.971,32.941Zm0-14.956a4.985,4.985,0,1,0,4.985,4.985A4.994,4.994,0,0,0,27.971,17.985Z" transform="translate(-18 -13)" fill="#e9b237"/>
      </g>
      <g id="Group_87" data-name="Group 87" transform="translate(89.736 89.736)">
        <path id="Path_171" data-name="Path 171" d="M45.419,37.941a2.494,2.494,0,0,1-2.493-2.493V30.463a7.487,7.487,0,0,0-7.478-7.478H20.493a2.493,2.493,0,0,1,0-4.985H35.449A12.481,12.481,0,0,1,47.912,30.463v4.985A2.494,2.494,0,0,1,45.419,37.941Z" transform="translate(-18 -18)" fill="teal"/>
      </g>
      <g id="Group_88" data-name="Group 88" transform="translate(9.971 64.81)">
        <path id="Path_172" data-name="Path 172" d="M11.971,32.941a9.971,9.971,0,1,1,9.971-9.971A9.981,9.981,0,0,1,11.971,32.941Zm0-14.956a4.985,4.985,0,1,0,4.985,4.985A4.994,4.994,0,0,0,11.971,17.985Z" transform="translate(-2 -13)" fill="#e9b237"/>
      </g>
      <g id="Group_89" data-name="Group 89" transform="translate(0 89.736)">
        <path id="Path_173" data-name="Path 173" d="M2.493,37.941A2.494,2.494,0,0,1,0,35.449V30.463A12.481,12.481,0,0,1,12.463,18H27.419a2.493,2.493,0,1,1,0,4.985H12.463a7.487,7.487,0,0,0-7.478,7.478v4.985A2.494,2.494,0,0,1,2.493,37.941Z" transform="translate(0 -18)" fill="teal"/>
      </g>
      <g id="Group_90" data-name="Group 90" transform="translate(44.868 57.332)">
        <path id="Path_174" data-name="Path 174" d="M23.956,41.412A14.956,14.956,0,1,1,38.912,26.456,14.974,14.974,0,0,1,23.956,41.412Zm0-24.927a9.971,9.971,0,1,0,9.971,9.971A9.981,9.981,0,0,0,23.956,16.485Z" transform="translate(-9 -11.5)" fill="#e9b237"/>
      </g>
      <g id="Group_91" data-name="Group 91" transform="translate(32.405 94.722)">
        <path id="Path_175" data-name="Path 175" d="M58.846,43.927a2.494,2.494,0,0,1-2.493-2.493V31.463a7.487,7.487,0,0,0-7.478-7.478H18.963a7.487,7.487,0,0,0-7.478,7.478v9.971a2.493,2.493,0,0,1-4.985,0V31.463A12.481,12.481,0,0,1,18.963,19H48.876A12.481,12.481,0,0,1,61.339,31.463v9.971A2.494,2.494,0,0,1,58.846,43.927Z" transform="translate(-6.5 -19)" fill="teal"/>
      </g>
    </g>
  </g>
</svg>
