<svg xmlns="http://www.w3.org/2000/svg" xmlns:xlink="http://www.w3.org/1999/xlink" width="120" height="120" viewBox="0 0 120 120">
  <defs>
    <clipPath id="clip-path">
      <rect id="Rectangle_15" data-name="Rectangle 15" width="120" height="120" transform="translate(1360 158)" fill="#fff"/>
    </clipPath>
  </defs>
  <g id="Offshore" transform="translate(-1360 -158)" clip-path="url(#clip-path)">
    <g id="outsource" transform="translate(1360 161.842)">
      <g id="Group_132" data-name="Group 132" transform="translate(30.156 35.285)">
        <path id="Path_319" data-name="Path 319" d="M473.776,1083.955H421.9a3.906,3.906,0,0,1-2.781-1.156,3.857,3.857,0,0,1-1.125-2.789c.055-4.992.414-14.3,2.164-20.539a19.917,19.917,0,0,1,2.063-4.953,18.667,18.667,0,0,1,6.648-6.461,16.866,16.866,0,0,1,9.07-2.164,1.841,1.841,0,0,1,1.016.359l8.648,6.3,9.141-6.328a1.853,1.853,0,0,1,.984-.328,16.938,16.938,0,0,1,9.07,2.164,18.6,18.6,0,0,1,6.648,6.461,19.919,19.919,0,0,1,2.063,4.953c1.75,6.242,2.109,15.555,2.164,20.539a3.882,3.882,0,0,1-3.9,3.938Zm-26.008-3.75h26.008a.16.16,0,0,0,.156-.156c-.055-4.8-.391-13.742-2.023-19.57a16.081,16.081,0,0,0-1.672-4.047,14.736,14.736,0,0,0-5.273-5.109,13.126,13.126,0,0,0-6.469-1.7h-.062l-9.773,6.773a1.878,1.878,0,0,1-2.172-.023l-9.25-6.742a13.191,13.191,0,0,0-6.508,1.7,14.814,14.814,0,0,0-5.273,5.117,16.02,16.02,0,0,0-1.672,4.039c-1.633,5.836-1.969,14.766-2.023,19.57a.16.16,0,0,0,.156.156Z" transform="translate(-417.994 -1004.662)" fill="#fff"/>
        <g id="Group_129" data-name="Group 129" transform="translate(11.782 59.832)">
          <path id="Path_320" data-name="Path 320" d="M570.675,1303.661a1.871,1.871,0,0,1-1.875-1.875v-15.711a1.875,1.875,0,1,1,3.75,0v15.711A1.875,1.875,0,0,1,570.675,1303.661Z" transform="translate(-568.8 -1284.2)" fill="#fff"/>
          <path id="Path_321" data-name="Path 321" d="M985.075,1303.661a1.87,1.87,0,0,1-1.875-1.875v-15.711a1.875,1.875,0,1,1,3.75,0v15.711A1.876,1.876,0,0,1,985.075,1303.661Z" transform="translate(-950.825 -1284.2)" fill="#fff"/>
        </g>
        <g id="Group_130" data-name="Group 130" transform="translate(14.332)">
          <path id="Path_322" data-name="Path 322" d="M626.95,736.428a14.052,14.052,0,0,1-10.492-4.789A16.848,16.848,0,0,1,612.2,720.3V714.28a1.883,1.883,0,0,1,1.266-1.773,11.2,11.2,0,0,0,3.945-2.43,1.845,1.845,0,0,1,2.547-.219,11.7,11.7,0,0,0,4.242,1.75,18.074,18.074,0,0,0,11.609-1.734,1.886,1.886,0,0,1,2.164.406,17.65,17.65,0,0,0,2.844,2.406,1.874,1.874,0,0,1,.891,1.594V720.3a16.809,16.809,0,0,1-4.258,11.336A14.053,14.053,0,0,1,626.95,736.428Zm-11-20.891V720.3c0,6.828,4.938,12.375,11,12.375s11-5.555,11-12.375v-5.039a20.285,20.285,0,0,1-1.75-1.469,21.322,21.322,0,0,1-13.031,1.422,16.415,16.415,0,0,1-4.148-1.539A15.153,15.153,0,0,1,615.95,715.538Z" transform="translate(-611.359 -694.519)" fill="#fff"/>
          <path id="Path_323" data-name="Path 323" d="M604.157,539.991a1.865,1.865,0,0,1-1.719-1.133,20.76,20.76,0,0,1-.734-9.32,11.326,11.326,0,0,1,2.422-4.391c.2-.25.422-.492.633-.727,3.508-3.75,9.266-5.227,10.383-5.484a21,21,0,0,1,6.242-.531,17.929,17.929,0,0,1,3.555.586,5.545,5.545,0,0,1,3.258,2.258,7.84,7.84,0,0,1,.734,1.547,3.75,3.75,0,0,0,.453.953,7.466,7.466,0,0,0,.977.867,10.025,10.025,0,0,1,3.969,6.75,8.718,8.718,0,0,1-1.289,4.969c-.016.031-.063.117-.125.234-1.187,2.289-1.437,2.633-1.758,2.93a1.876,1.876,0,0,1-2.687-2.609c.117-.18.406-.687,1.117-2.047.086-.156.141-.273.164-.312a5.375,5.375,0,0,0,.844-2.828,6.644,6.644,0,0,0-1.625-3.328,7.243,7.243,0,0,0-.938-.82,9.738,9.738,0,0,1-1.516-1.391,6.744,6.744,0,0,1-1.094-2.023,5.764,5.764,0,0,0-.383-.859,1.934,1.934,0,0,0-1.125-.68,14.763,14.763,0,0,0-2.836-.453,17.337,17.337,0,0,0-5.109.445c-2.578.594-6.344,2.094-8.484,4.391-.164.172-.32.352-.477.539a7.542,7.542,0,0,0-1.672,2.883,11.713,11.713,0,0,0-.094,3.273,11.477,11.477,0,0,0,.617,3.7,1.874,1.874,0,0,1-.977,2.469A1.778,1.778,0,0,1,604.157,539.991Zm24.484-3.258Z" transform="translate(-601.442 -518.354)" fill="#fff"/>
        </g>
        <g id="Group_131" data-name="Group 131" transform="translate(20.304 35.928)">
          <path id="Path_324" data-name="Path 324" d="M679.761,988.954a1.821,1.821,0,0,1-.8-.18,1.866,1.866,0,0,1-.9-2.492,10.183,10.183,0,0,0,1-3.922,3.938,3.938,0,0,0-.2-1.414c-.031-.117-.062-.242-.1-.367a1.877,1.877,0,0,1,3.633-.945c.031.109.055.211.086.313a7.646,7.646,0,0,1,.336,2.516,14.249,14.249,0,0,1-1.352,5.414A1.893,1.893,0,0,1,679.761,988.954Z" transform="translate(-677.885 -978.23)" fill="#fff"/>
          <path id="Path_325" data-name="Path 325" d="M858.109,994.167a1.893,1.893,0,0,1-1.672-1.016,13.654,13.654,0,0,1-1.57-5.758,7.338,7.338,0,0,1,.227-2.1,1.873,1.873,0,0,1,3.633.914,3.423,3.423,0,0,0-.109,1.086,9.819,9.819,0,0,0,1.156,4.141,1.869,1.869,0,0,1-.812,2.523A1.763,1.763,0,0,1,858.109,994.167Z" transform="translate(-841.037 -983.435)" fill="#fff"/>
        </g>
      </g>
      <g id="Group_135" data-name="Group 135" transform="translate(16.102 41.789)">
        <g id="Group_133" data-name="Group 133" transform="translate(65.734)">
          <path id="Path_326" data-name="Path 326" d="M1099.688,623.663h-18.312a1.875,1.875,0,0,1,0-3.75h16.438V603.475a1.875,1.875,0,1,1,3.75,0v18.313A1.875,1.875,0,0,1,1099.688,623.663Z" transform="translate(-1079.5 -601.6)" fill="#fff"/>
        </g>
        <g id="Group_134" data-name="Group 134">
          <path id="Path_327" data-name="Path 327" d="M258.288,623.663H239.975a1.87,1.87,0,0,1-1.875-1.875V603.475a1.875,1.875,0,0,1,3.75,0v16.438h16.437a1.875,1.875,0,0,1,0,3.75Z" transform="translate(-238.1 -601.6)" fill="#fff"/>
        </g>
      </g>
      <g id="Group_140" data-name="Group 140" transform="translate(0 0)">
        <g id="Group_137" data-name="Group 137" transform="translate(84.047)">
          <g id="Group_136" data-name="Group 136" transform="translate(4.303 5.828)">
            <path id="Path_328" data-name="Path 328" d="M1164.751,322.542a2,2,0,0,1-.633-.109,1.873,1.873,0,0,1-1.133-2.4,13.932,13.932,0,0,1,13.094-9.234h.938a13.925,13.925,0,0,1,13.094,9.234,1.876,1.876,0,1,1-3.531,1.266,10.175,10.175,0,0,0-9.562-6.742h-.938a10.175,10.175,0,0,0-9.562,6.742A1.879,1.879,0,0,1,1164.751,322.542Z" transform="translate(-1162.873 -297.558)" fill="#fff"/>
            <path id="Path_329" data-name="Path 329" d="M1237.6,158.3a8.5,8.5,0,1,1,8.5-8.5A8.509,8.509,0,0,1,1237.6,158.3Zm0-13.242a4.75,4.75,0,1,0,4.75,4.75A4.758,4.758,0,0,0,1237.6,145.058Z" transform="translate(-1223.926 -141.3)" fill="#fff"/>
          </g>
          <path id="Path_330" data-name="Path 330" d="M1125.777,102.653a17.978,17.978,0,1,1,12.711-5.266,17.845,17.845,0,0,1-12.711,5.266Zm0-32.2A14.227,14.227,0,1,0,1140,84.677,14.244,14.244,0,0,0,1125.777,70.45Z" transform="translate(-1107.8 -66.7)" fill="#fff"/>
        </g>
        <g id="Group_139" data-name="Group 139">
          <g id="Group_138" data-name="Group 138" transform="translate(4.303 5.828)">
            <path id="Path_331" data-name="Path 331" d="M88.95,322.542a2,2,0,0,1-.633-.109,1.873,1.873,0,0,1-1.133-2.4,13.933,13.933,0,0,1,13.094-9.234h.938a13.925,13.925,0,0,1,13.094,9.234,1.876,1.876,0,0,1-3.531,1.266,10.175,10.175,0,0,0-9.562-6.742h-.938a10.175,10.175,0,0,0-9.563,6.742A1.879,1.879,0,0,1,88.95,322.542Z" transform="translate(-87.073 -297.558)" fill="#fff"/>
            <path id="Path_332" data-name="Path 332" d="M161.8,158.3a8.5,8.5,0,1,1,8.492-8.5A8.509,8.509,0,0,1,161.8,158.3Zm0-13.242a4.75,4.75,0,1,0,4.742,4.75A4.758,4.758,0,0,0,161.8,145.058Z" transform="translate(-148.126 -141.3)" fill="#fff"/>
          </g>
          <path id="Path_333" data-name="Path 333" d="M49.977,102.653a17.978,17.978,0,1,1,12.711-5.266,17.846,17.846,0,0,1-12.711,5.266Zm0-32.2A14.227,14.227,0,1,0,64.2,84.677,14.244,14.244,0,0,0,49.977,70.45Z" transform="translate(-32 -66.7)" fill="#fff"/>
        </g>
      </g>
    </g>
  </g>
</svg>
