<svg xmlns="http://www.w3.org/2000/svg" xmlns:xlink="http://www.w3.org/1999/xlink" width="120" height="120" viewBox="0 0 120 120">
  <defs>
    <clipPath id="clip-path">
      <rect id="Rectangle_12" data-name="Rectangle 12" width="120" height="120" transform="translate(800 696)" fill="#fff"/>
    </clipPath>
  </defs>
  <g id="Planning_and_research" data-name="Planning and research" transform="translate(-800 -696)" clip-path="url(#clip-path)">
    <g id="planning" transform="translate(800 698.28)">
      <g id="Group_110" data-name="Group 110" transform="translate(0 0)">
        <path id="Path_250" data-name="Path 250" d="M184.2,182.17H151.784a10.634,10.634,0,0,0-10.622,10.622v13.453a10.634,10.634,0,0,0,10.622,10.622H184.2a10.634,10.634,0,0,0,10.622-10.622V192.792A10.634,10.634,0,0,0,184.2,182.17Zm5.934,24.075a5.941,5.941,0,0,1-5.934,5.934H151.784a5.941,5.941,0,0,1-5.934-5.934V192.792a5.941,5.941,0,0,1,5.934-5.934H184.2a5.941,5.941,0,0,1,5.934,5.934Z" transform="translate(-108.077 -141.754)" fill="teal"/>
        <path id="Path_251" data-name="Path 251" d="M184.2,354.234H151.784a10.634,10.634,0,0,0-10.622,10.622v13.453a10.634,10.634,0,0,0,10.622,10.622H184.2a10.634,10.634,0,0,0,10.622-10.622V364.856A10.634,10.634,0,0,0,184.2,354.234Zm5.934,24.075a5.941,5.941,0,0,1-5.934,5.934H151.784a5.941,5.941,0,0,1-5.934-5.934V364.856a5.941,5.941,0,0,1,5.934-5.934H184.2a5.941,5.941,0,0,1,5.934,5.934Z" transform="translate(-108.077 -273.49)" fill="teal"/>
        <path id="Path_252" data-name="Path 252" d="M184.2,9.727h-5.577a2.344,2.344,0,1,0,0,4.688H184.2a5.941,5.941,0,0,1,5.934,5.934V33.8a5.941,5.941,0,0,1-5.934,5.934H151.784A5.941,5.941,0,0,1,145.85,33.8V20.349a5.941,5.941,0,0,1,5.934-5.934h6.189a2.344,2.344,0,0,0,0-4.688h-6.189a10.634,10.634,0,0,0-10.622,10.622V33.8a10.634,10.634,0,0,0,10.622,10.622H184.2A10.634,10.634,0,0,0,194.822,33.8V20.349A10.634,10.634,0,0,0,184.2,9.727Z" transform="translate(-108.077 -9.727)" fill="teal"/>
        <path id="Path_253" data-name="Path 253" d="M401.45,246.188h-7.3a2.344,2.344,0,0,0,0,4.688h7.3a13.851,13.851,0,0,1,13.836,13.836v7.969a13.851,13.851,0,0,1-13.836,13.835H399.8l2.446-2.446a2.344,2.344,0,0,0-3.315-3.315l-6.447,6.447a2.37,2.37,0,0,0,0,3.315l6.447,6.447a2.344,2.344,0,0,0,3.315-3.315L399.8,291.2h1.646a18.544,18.544,0,0,0,18.523-18.523v-7.969A18.544,18.544,0,0,0,401.45,246.188Z" transform="translate(-299.973 -190.767)" fill="teal"/>
        <path id="Path_254" data-name="Path 254" d="M18.523,120.389H20.17l-2.446,2.446a2.344,2.344,0,0,0,0,3.315,2.378,2.378,0,0,0,3.315,0l6.446-6.447a2.375,2.375,0,0,0,0-3.315l-6.446-6.447a2.344,2.344,0,0,0-3.315,3.315L20.17,115.7H18.523A13.851,13.851,0,0,1,4.688,101.866V93.9A13.851,13.851,0,0,1,18.523,80.062h7.3a2.344,2.344,0,0,0,0-4.688h-7.3A18.544,18.544,0,0,0,0,93.9v7.969A18.544,18.544,0,0,0,18.523,120.389Z" transform="translate(0 -59.988)" fill="teal"/>
        <path id="Path_255" data-name="Path 255" d="M41.1,397.194H27.878l2.446-2.446a2.344,2.344,0,1,0-3.315-3.315l-6.447,6.447a2.375,2.375,0,0,0,0,3.315l6.447,6.447a2.378,2.378,0,0,0,3.315,0,2.344,2.344,0,0,0,0-3.315l-2.446-2.446H41.1a2.344,2.344,0,1,0,0-4.687Z" transform="translate(-15.227 -301.445)" fill="teal"/>
        <path id="Path_256" data-name="Path 256" d="M392.12,48.389a2.366,2.366,0,0,0,.2,3.081l6.447,6.447a2.344,2.344,0,0,0,3.315-3.315l-2.446-2.446H412.86a2.344,2.344,0,0,0,0-4.688H399.637l2.446-2.446a2.344,2.344,0,0,0-3.315-3.315l-6.447,6.447a2.448,2.448,0,0,0-.2.234Z" transform="translate(-299.852 -33.688)" fill="teal"/>
        <path id="Path_257" data-name="Path 257" d="M190.722,76.09a2.344,2.344,0,0,0,2.344,2.344h26.012a2.344,2.344,0,0,0,0-4.688H193.066a2.344,2.344,0,0,0-2.344,2.344Z" transform="translate(-146.021 -58.742)" fill="#e9b237"/>
        <path id="Path_258" data-name="Path 258" d="M208.808,246.188H193.066a2.344,2.344,0,1,0,0,4.688h15.743a2.344,2.344,0,1,0,0-4.687Z" transform="translate(-146.021 -190.767)" fill="#e9b237"/>
        <path id="Path_259" data-name="Path 259" d="M219.078,418.632H193.066a2.344,2.344,0,1,0,0,4.688h26.012a2.344,2.344,0,1,0,0-4.688Z" transform="translate(-146.021 -322.795)" fill="#e9b237"/>
        <path id="Path_260" data-name="Path 260" d="M306.227,247.673a2.342,2.342,0,1,0-.949,2.9A2.362,2.362,0,0,0,306.227,247.673Z" transform="translate(-231.007 -190.822)" fill="#e9b237"/>
        <path id="Path_261" data-name="Path 261" d="M247.709,12.983a2.342,2.342,0,1,0,1.268-3.061A2.364,2.364,0,0,0,247.709,12.983Z" transform="translate(-189.518 -9.744)" fill="#e9b237"/>
      </g>
    </g>
  </g>
</svg>
