<svg xmlns="http://www.w3.org/2000/svg" xmlns:xlink="http://www.w3.org/1999/xlink" width="120" height="120" viewBox="0 0 120 120">
  <defs>
    <clipPath id="clip-path">
      <rect id="Rectangle_11" data-name="Rectangle 11" width="120" height="120" transform="translate(1080 696)" fill="#fff"/>
    </clipPath>
  </defs>
  <g id="Product_release" data-name="Product release" transform="translate(-1080 -696)" clip-path="url(#clip-path)">
    <path id="product-release" d="M135.507,54.148l-7.388-12.8a1.874,1.874,0,0,0-.686-.686l-21-12.126V14.483a1.874,1.874,0,0,0-.937-1.624L83.653.251a1.874,1.874,0,0,0-1.875,0L59.939,12.86A1.874,1.874,0,0,0,59,14.483V28.54L38,40.666a1.874,1.874,0,0,0-.686.686l-7.388,12.8a1.875,1.875,0,0,0,.686,2.561l6.45,3.724V92.842A1.874,1.874,0,0,0,38,94.466l43.78,25.276a1.875,1.875,0,0,0,1.875,0l43.78-25.276a1.874,1.874,0,0,0,.937-1.624V60.433l6.45-3.724a1.874,1.874,0,0,0,.686-2.561ZM62.751,17.731l18.09,10.444V49.063L62.751,38.619ZM82.716,4.039l18.09,10.444L82.716,24.928,64.626,14.483ZM102.68,17.731V38.619L84.591,49.063V28.175ZM59,32.87V39.7a1.874,1.874,0,0,0,.937,1.624l21.84,12.609a1.875,1.875,0,0,0,1.875,0l21.84-12.609a1.874,1.874,0,0,0,.937-1.624V32.87l16.315,9.42L82.716,65.4,42.686,42.29ZM34.11,54.4l5.513-9.549,40.532,23.4L74.642,77.8Zm6.7,8.2L74.39,81.986a1.874,1.874,0,0,0,2.561-.686l3.89-6.737v40.308L40.811,91.759ZM124.62,91.759l-40.03,23.111V74.563L88.48,81.3a1.874,1.874,0,0,0,2.561.686L124.62,62.6V91.759ZM90.79,77.8l-5.513-9.549,40.532-23.4,5.513,9.549Z" transform="translate(1057.284 696)" fill="teal"/>
  </g>
</svg>
