<svg xmlns="http://www.w3.org/2000/svg" xmlns:xlink="http://www.w3.org/1999/xlink" width="120" height="120" viewBox="0 0 120 120">
  <defs>
    <clipPath id="clip-path">
      <rect id="Rectangle_9" data-name="Rectangle 9" width="120" height="120" transform="translate(940 158)" fill="#fff"/>
    </clipPath>
  </defs>
  <g id="Product_Reselling" data-name="Product Reselling" transform="translate(-940 -158)" clip-path="url(#clip-path)">
    <g id="resell" transform="translate(939.949 157.569)">
      <path id="Path_342" data-name="Path 342" d="M45.186,35.041V33h-3.86v2.041a5.776,5.776,0,0,0,1.125,11.47h1.61a1.936,1.936,0,1,1,0,3.86h-1.61a2.017,2.017,0,0,1-2.09-1.93v-.773H36.5v.773a5.839,5.839,0,0,0,4.825,5.68v.111h3.86v-.111a5.776,5.776,0,0,0-1.125-11.47h-1.61a1.936,1.936,0,1,1,0-3.86h1.61a2.017,2.017,0,0,1,2.09,1.93v.773h3.86V40.72A5.839,5.839,0,0,0,45.186,35.041Z" transform="translate(32.106 29.24)" fill="#fff"/>
      <path id="Path_343" data-name="Path 343" d="M65.742,47.371A17.371,17.371,0,1,0,48.371,64.742,17.371,17.371,0,0,0,65.742,47.371ZM48.371,60.882A13.511,13.511,0,1,1,61.882,47.371,13.511,13.511,0,0,1,48.371,60.882Z" transform="translate(26.99 26.45)" fill="#fff"/>
      <path id="Path_344" data-name="Path 344" d="M32.075,2.411v3.86A54.171,54.171,0,0,1,60.8,106.381l-2.809-4.807a1.93,1.93,0,0,0-3.4.128l-5.915,12.123A1.929,1.929,0,0,0,50.3,116.6l13.465.8c.04,0,.077,0,.115,0a1.929,1.929,0,0,0,1.666-2.9l-2.795-4.782A58.029,58.029,0,0,0,32.075,2.411Zm21.34,110.506,3.063-6.28,3.913,6.693Z" transform="translate(27.99 0.79)" fill="#fff"/>
      <path id="Path_345" data-name="Path 345" d="M5.877,61.249A54.506,54.506,0,0,1,35.593,12.921l2.148,5.116a1.925,1.925,0,0,0,1.6,1.174,1.453,1.453,0,0,0,.181.009,1.936,1.936,0,0,0,1.61-.863L48.581,7.112a1.932,1.932,0,0,0-1.244-2.963L34.092,1.6a1.931,1.931,0,0,0-2.145,2.643L34.093,9.35A58.031,58.031,0,0,0,60.065,119.3v-3.86A54.138,54.138,0,0,1,5.877,61.249ZM43.763,7.393,39.9,13.217l-3-7.147Z" transform="translate(0)" fill="#fff"/>
      <path id="Path_346" data-name="Path 346" d="M57.6,38.3V20.93A1.929,1.929,0,0,0,55.672,19H20.93A1.929,1.929,0,0,0,19,20.93V55.672a1.929,1.929,0,0,0,1.93,1.93h19.3v-3.86H22.86V22.86h8.685V36.371a1.93,1.93,0,0,0,2.646,1.793L38.3,36.52l4.109,1.644a1.93,1.93,0,0,0,2.646-1.793V22.86h8.685V38.3ZM41.2,33.521l-2.179-.873a1.921,1.921,0,0,0-1.432,0l-2.179.873V22.86H41.2Z" transform="translate(15.829 16.219)" fill="#fff"/>
    </g>
  </g>
</svg>
