<svg xmlns="http://www.w3.org/2000/svg" xmlns:xlink="http://www.w3.org/1999/xlink" width="120" height="120" viewBox="0 0 120 120">
  <defs>
    <clipPath id="clip-path">
      <rect id="Rectangle_2" data-name="Rectangle 2" width="120" height="120" transform="translate(1429 158)" fill="#fff"/>
    </clipPath>
  </defs>
  <g id="Reliable_and_efficient" data-name="Reliable and efficient" transform="translate(-1429 -158)" clip-path="url(#clip-path)">
    <g id="XMLID_1364_" transform="translate(1441.613 158)">
      <g id="XMLID_141_" transform="translate(0 0)">
        <path id="XMLID_162_" d="M148.268,105.226l-15.18-26.293a13.579,13.579,0,0,0,4.723-8.553,8.833,8.833,0,0,1,3.365-5.829,13.612,13.612,0,0,0,4.254-15.874,8.833,8.833,0,0,1,0-6.73,13.612,13.612,0,0,0-4.254-15.874,8.832,8.832,0,0,1-3.365-5.829,13.613,13.613,0,0,0-11.621-11.62,8.833,8.833,0,0,1-5.828-3.365A13.612,13.612,0,0,0,104.487,1a8.833,8.833,0,0,1-6.73,0A13.612,13.612,0,0,0,81.882,5.258a8.834,8.834,0,0,1-5.829,3.365,13.612,13.612,0,0,0-11.62,11.621,8.834,8.834,0,0,1-3.365,5.829,13.612,13.612,0,0,0-4.254,15.874,8.833,8.833,0,0,1,0,6.73,13.612,13.612,0,0,0,4.254,15.874,8.834,8.834,0,0,1,3.365,5.829,13.579,13.579,0,0,0,4.823,8.635L54.122,105.226a2.344,2.344,0,0,0,2.637,3.436l13.191-3.534,3.519,13.134a2.344,2.344,0,0,0,4.294.565l16.33-28.283a13.464,13.464,0,0,0,3.663-.925,8.833,8.833,0,0,1,6.73,0,13.47,13.47,0,0,0,3.822.943l16.319,28.265a2.344,2.344,0,0,0,4.294-.565l3.519-13.134,13.191,3.534a2.344,2.344,0,0,0,2.637-3.436Zm-71.736,6.356-2.661-9.932A2.344,2.344,0,0,0,71,99.993l-9.988,2.676L73.328,81.336A13.481,13.481,0,0,0,76.053,82a8.834,8.834,0,0,1,5.829,3.365,13.55,13.55,0,0,0,7.049,4.743Zm19.448-26.3A8.91,8.91,0,0,1,85.589,82.5a13.5,13.5,0,0,0-8.9-5.141,8.91,8.91,0,0,1-7.607-7.607,13.5,13.5,0,0,0-5.141-8.9,8.91,8.91,0,0,1-2.784-10.391,13.493,13.493,0,0,0,0-10.282A8.91,8.91,0,0,1,63.937,29.78a13.5,13.5,0,0,0,5.141-8.9,8.911,8.911,0,0,1,7.607-7.607,13.5,13.5,0,0,0,8.9-5.141A8.9,8.9,0,0,1,95.98,5.343a13.5,13.5,0,0,0,10.282,0,8.91,8.91,0,0,1,10.391,2.784,13.494,13.494,0,0,0,8.9,5.141,8.911,8.911,0,0,1,7.607,7.607,13.5,13.5,0,0,0,5.141,8.9,8.91,8.91,0,0,1,2.784,10.391,13.5,13.5,0,0,0,0,10.282A8.91,8.91,0,0,1,138.3,60.844a13.5,13.5,0,0,0-5.141,8.9,8.91,8.91,0,0,1-7.607,7.607,13.494,13.494,0,0,0-8.9,5.141,8.909,8.909,0,0,1-10.391,2.784,13.5,13.5,0,0,0-10.282,0Zm35.41,14.712a2.344,2.344,0,0,0-2.871,1.658l-2.661,9.932L113.438,90.071a13.549,13.549,0,0,0,6.922-4.706A8.831,8.831,0,0,1,126.189,82a13.469,13.469,0,0,0,2.846-.711l12.343,21.379Z" transform="translate(-53.808 0.001)" fill="teal"/>
        <path id="XMLID_1190_" d="M184.14,136.542l-7.293,7.293a2.344,2.344,0,0,0,0,3.315l13.679,13.679a2.344,2.344,0,0,0,3.315,0l19.046-19.046a2.344,2.344,0,0,0,0-3.315l-7.293-7.293a2.344,2.344,0,0,0-3.315,0l-10.1,10.1-4.728-4.728a2.345,2.345,0,0,0-3.315,0Zm6.385,9.7a2.344,2.344,0,0,0,3.315,0l10.1-10.1,3.978,3.978-15.731,15.731-10.363-10.363,3.978-3.978Z" transform="translate(-147.479 -99.9)" fill="#e9b237"/>
        <path id="XMLID_1191_" d="M186.909,103.577A30.482,30.482,0,0,0,167.664,75.24a2.344,2.344,0,0,0-1.728,4.358,25.785,25.785,0,1,1-19,0,2.344,2.344,0,0,0-1.728-4.358,30.477,30.477,0,1,0,41.7,28.338Z" transform="translate(-109.048 -57.476)" fill="teal"/>
        <path id="XMLID_1218_" d="M248.305,71.354a2.345,2.345,0,1,0-1.657-.687A2.351,2.351,0,0,0,248.305,71.354Z" transform="translate(-200.918 -51.039)" fill="teal"/>
      </g>
    </g>
  </g>
</svg>
