<svg xmlns="http://www.w3.org/2000/svg" xmlns:xlink="http://www.w3.org/1999/xlink" width="64" height="64" viewBox="0 0 64 64">
  <defs>
    <clipPath id="clip-path">
      <rect id="Rectangle_20" data-name="Rectangle 20" width="64" height="64" transform="translate(2760 147)" fill="#fff"/>
    </clipPath>
  </defs>
  <g id="saudi-arabia" transform="translate(-2760 -147)" clip-path="url(#clip-path)">
    <g id="saudi-arabia-2" data-name="saudi-arabia" transform="translate(2760 147)">
      <circle id="Ellipse_14" data-name="Ellipse 14" cx="32" cy="32" r="32" transform="translate(0 0)" fill="#3d9635"/>
      <g id="Group_143" data-name="Group 143" transform="translate(9.081 15.288)">
        <path id="Path_409" data-name="Path 409" d="M4.738,10.609c-.106,1.654-.242,4.58,1,4.876,1.51.156.678-2.882,1.222-3.434.1-.268.3-.268.31.07v2.588a1.2,1.2,0,0,0,.862,1.244c.4-.03.66-.016.814.424q.1,2.226.186,4.452s.922.31.966-2.5a29.467,29.467,0,0,1-.086-3.348c0-.312.36-.34.616-.17.4.312.572.692,1.184.538.936-.3,1.492-.8,1.508-1.612a7.786,7.786,0,0,0-.42-2.3c.04-.142-.186-.494-.138-.636.166.3.418.268.474,0a2.322,2.322,0,0,0-.8-1.4c-.332-.326-.822-.256-1,.438a4.086,4.086,0,0,0,.768,2.472,2.726,2.726,0,0,1,.19,1.244.56.56,0,0,1-.764-.17s-.752-.636-.752-.762a3.374,3.374,0,0,0-.062-2,2.72,2.72,0,0,0-.488-1.068c-.184-.24-.436-.24-.556,0a4.166,4.166,0,0,0,.06,2.63c.166.564.434.918.312.918-.1.326-.316.24-.468-.128a10.118,10.118,0,0,1-.258-2.416c-.07-.636-.146-2-.516-2.346-.226-.34-.566-.17-.686.156A13.572,13.572,0,0,0,8.254,10.2a22.024,22.024,0,0,1,.462,2.968c.032,1.4-.716.6-.684-.1A7.132,7.132,0,0,0,8.006,10.4c-.122-.366-.266-.452-.568-.38-.24-.03-.846.72-1.016,1.964a11.186,11.186,0,0,0-.2,1.216c-.088.636-.462,1.088-.724-.1-.232-.862-.368-2.982-.748-2.488" transform="translate(-4.409 -7.267)" fill="#fff"/>
        <path id="Path_410" data-name="Path 410" d="M8.731,13.06c-1.334.75-2.63,1.428-3.942,2.134a4.18,4.18,0,0,1,3.12-2.84c.8.028.6.354.822.706" transform="translate(-4.292 -2.934)" fill="#fff"/>
        <path id="Path_411" data-name="Path 411" d="M12.808,8.032a1.124,1.124,0,0,0-.252.084.838.838,0,0,0-.528,1.032c.38,2.6.622,4.58,1,7.166.066.312-.166.708-.456.68-.5-.382-.622-1.16-1.47-1.118A1.768,1.768,0,0,0,9.7,17.36a4.242,4.242,0,0,0,0,1.7,1.146,1.146,0,0,0,1.4.4c.372-.17.682-.6.814-.494.082.17-.012,1.526-1.756,2.558-1.078.536-1.93.678-2.4-.312-.28-.62.022-2.968-.676-2.43-2.076,6.02,4.858,6.868,5.636.254.05-.184.2-.368.314-.324.052.028.088.1.1.24-.16,5.978-5.362,6.374-6.244,4.508a6.282,6.282,0,0,1-.312-2.022,1.158,1.158,0,0,0-.212-.664c-.212-.168-.494.3-.558,1.1a8.06,8.06,0,0,0-.062,1.44c.276,4.75,6.976,2.714,8.07-1.2a15.026,15.026,0,0,0,.18-3.74h.022l.016-.014c.678.8,1.6.1,1.81-.17a.288.288,0,0,1,.464-.056,1.02,1.02,0,0,0,1.616-.508,19.982,19.982,0,0,0,.226-2.248,1.8,1.8,0,0,0-.722.338.232.232,0,0,0-.054.114c-.026.2-.054.424-.086.636a.572.572,0,0,1-.014.056.154.154,0,0,1-.066.058.218.218,0,0,1-.34-.17c-.158-.8-.818-.934-1.22.338-.276.256-.76.3-.814-.056.07-.862-.242-.976-.854-.58-.2-1.7-.4-3.306-.6-5,.26,0,.488.212.726-.114a10.2,10.2,0,0,0-1.084-2.866.672.672,0,0,0-.048-.058.024.024,0,0,1-.02-.014H12.93c-.012-.014-.032-.014-.034-.028-.032,0-.06-.014-.088,0m-1.864,9.286a.348.348,0,0,1,.368.254.5.5,0,0,1-.076.452c-.054.1-.23.058-.362.058a.328.328,0,0,1-.326-.184c-.048-.156.084-.312.148-.438s.012-.028.022-.042a.472.472,0,0,1,.226-.1" transform="translate(-3.343 -7.262)" fill="#fff"/>
        <path id="Path_412" data-name="Path 412" d="M13.132,7.958a1.248,1.248,0,0,0-.468.142,1.114,1.114,0,0,0-.148,1.342c.264.128.528.44.348.6-.74.892-2.682,2.4-2.78,2.672v.028H10.1a4.556,4.556,0,0,0,1.448.014v-.014a21.6,21.6,0,0,0,2.4-2.714c-.1-.1-.2-.17-.3-.268a.2.2,0,0,1,0-.312.97.97,0,0,0,.082-1.356,1.08,1.08,0,0,0-.6-.128m-.092.778c.122-.014.264.128.336.3s.038.368-.082.41-.286-.1-.366-.282-.036-.382.09-.41c0,0,0-.014.022-.014" transform="translate(1.003 -7.33)" fill="#fff"/>
        <path id="Path_413" data-name="Path 413" d="M5.176,14.955a4.872,4.872,0,0,0-.4,3.9.776.776,0,0,0,.838.31c.462-.226.67-1.286.556-1.666-.154-.284-.276-.326-.434-.086-.322.736-.46.226-.49-.2a10.978,10.978,0,0,1,.088-2.092c.082-.578,0-.41-.162-.168" transform="translate(-4.54 -0.558)" fill="#fff"/>
        <path id="Path_414" data-name="Path 414" d="M24.362,19.8c-.712-1.74-1.7-3.45-2.018-4.1s-2.7-4.536-3.048-4.988c-.776-1.032,1.256.438-.258-1.626-.572-.552-.6-.58-1.094-1.032-.232-.2-.83-.536-.926.028a3.574,3.574,0,0,0,.05,1.23,4.364,4.364,0,0,0,.6,1.046,79.186,79.186,0,0,1,6.62,11.956c.328-.168.258-2.218.064-2.514" transform="translate(7.905 -7.52)" fill="#fff"/>
        <path id="Path_415" data-name="Path 415" d="M19.119,25.4c-.146.17.342.946.98.932,1.058-.126,2-.8,2.856-2.572a4.926,4.926,0,0,0,.654-1.978,48.68,48.68,0,0,0-.714-10,1.768,1.768,0,0,1,.026-.692c.068-.1.3,0,.424-.226.186-.212-.478-1.936-.856-2.6-.134-.3-.182-.494-.4.028a4.17,4.17,0,0,0-.372,1.894c.506,3.93.66,7.4,1,11.32a1.73,1.73,0,0,1-.248,1.16A9.92,9.92,0,0,1,19.127,25.4" transform="translate(10.012 -7.325)" fill="#fff"/>
        <path id="Path_416" data-name="Path 416" d="M25.479,28.34c-.766.5-.766,1.074-.144,1.088a3.65,3.65,0,0,0,3.18-1.71,6.216,6.216,0,0,0,.514-2.2,58.327,58.327,0,0,0-.576-10.812,5.363,5.363,0,0,1-.106-1.018c.072-.184.414.028.53-.2.188-.2-.886-1.766-1.27-2.43-.128-.3-.176-.5-.4.042a3.35,3.35,0,0,0-.22,1.88,116.624,116.624,0,0,1,1.064,12.212,3.936,3.936,0,0,1-.212,1A7.334,7.334,0,0,1,26.8,27.564c-.352.282-1.088.564-1.326.776" transform="translate(15.804 -4.525)" fill="#fff"/>
        <path id="Path_417" data-name="Path 417" d="M27.77,21.647c-.012-1,.026-1.866-.012-2.616s-.336-3.548-.43-4.14-.212-1.512-.356-2.234a6.8,6.8,0,0,1-.132-1.272c.056-.2.3.014.412-.226a8.512,8.512,0,0,0-1-3.138c-.138-.3-.4-.2-.718.284-.3.31-.2,1.016-.078,1.7a70.058,70.058,0,0,1,1.208,13.412c-.044.354,1.118-1.088,1.106-1.766" transform="translate(16.255 -7.435)" fill="#fff"/>
        <path id="Path_418" data-name="Path 418" d="M24.66,13.724c-.482-.014-1.486-1.046-1.778-1.652a1.294,1.294,0,0,1,.056-.892c.178-.126.452-.282.654-.126,0,0,.212.324.172.368.26.14.374.056.4-.072.016-.2-.082-.324-.082-.55.11-.636.748-.722,1-.326a2.516,2.516,0,0,1,.268,1.1c0,.184-.262-.028-.4.014s-.182.228-.2.4c-.032.466-.076,1.188-.082,1.738" transform="translate(13.747 -5.053)" fill="#fff"/>
        <path id="Path_419" data-name="Path 419" d="M20.463,22.764c.136-1.372-.044-4.142-.056-4.946-.044-1.894-.326-5.556-.452-6.164-.152-1.158.418.128.336-.55a7.692,7.692,0,0,0-1.418-2.982c-.212-.34-.2-.41-.54.084a3.97,3.97,0,0,0,.044,2.318,47.549,47.549,0,0,1,.892,6.728,67.448,67.448,0,0,1,.054,7.152c.362,0,.94-.664,1.14-1.64" transform="translate(9.1 -7.436)" fill="#fff"/>
        <path id="Path_420" data-name="Path 420" d="M31.378,20.56c-.838-1.6-2.118-3.464-2.456-4.1s-3.226-5.384-3.586-5.8c-1.056-1.23.484-.2-.2-1.174A8.888,8.888,0,0,0,23.888,8.13c-.246-.17-.4-.524-.48.056A13,13,0,0,0,23.37,9.74a2.082,2.082,0,0,0,.42.962,90.446,90.446,0,0,1,7.574,12.366c.32-.168.21-2.218.012-2.5" transform="translate(14.281 -7.421)" fill="#fff"/>
        <path id="Path_421" data-name="Path 421" d="M36.736,21.784a.828.828,0,0,0-.238,1.47c-7.89,0-20-.142-22.586-.142-1.458,0-6.048-.2-6.134-.2a4.454,4.454,0,0,0,4.274,1.978c3.508,0,19.738-.042,24.352-.042a1.968,1.968,0,0,0,.292,1.894l.018.014a.026.026,0,0,0,.028.014h.014c.308.086.442-.17.55-.338a29.6,29.6,0,0,0,3.54-.014c.174.282.35.55.676.508.576-.142,1.028-.212,1.048-1.526,0,0-.06-2.234-1.368-2.092-.31.042-1.176.142-1.176.142-1-.128-1.746-.142-2.874-.2.106-.142.286-.75.062-.962a.366.366,0,0,0-.27-.084h-.022a.092.092,0,0,1-.024-.028v-.014a2.664,2.664,0,0,1-.126-.382h-.026m.536,3.2c1.144.056,2.224.014,3.38.07a.516.516,0,0,1-.03.65c0,.014-.014.014-.016.014h-.032c-.374-.014-.588-.014-.962-.028,0-.028-.012-.042-.012-.07-.092-.3-.728-.268-.884-.028v.07a.078.078,0,0,0,0,.042,7.254,7.254,0,0,1-1.47-.056c-.142-.2-.126-.566.048-.664" transform="translate(-1.303 6.492)" fill="#fff"/>
        <path id="Path_422" data-name="Path 422" d="M12.4,9.617c-.766,2.458.444,5.172,1.28,4.918.6.268.986-1.032,1.238-2.446.172-.4.3-.438.386-.24-.026,1.894.118,2.318.55,2.884a1.262,1.262,0,0,0,1.82.028c.062-.056.75-.834.75-.834a.41.41,0,0,1,.626-.028c.222.226.2.636.684.9a1.354,1.354,0,0,0,1.5-.352c.276-.524.336-.708.462-.906.2-.3.532-.168.532-.07-.03.17-.218.326-.1.622.24.2.294.07.434.028.488-.268.856-1.456.856-1.456.016-.452-.2-.41-.352-.31-.182.126-.2.17-.384.3-.236.028-.7.212-.924-.184-.238-.48-.238-1.158-.422-1.638,0-.028-.306-.75-.018-.8.142.028.45.126.5-.17.156-.282-.326-1.1-.652-1.5A.662.662,0,0,0,20.1,8.323a1.418,1.418,0,0,0-.284.876,1.508,1.508,0,0,0,.254,1.188,3.942,3.942,0,0,1,.6,2.416.882.882,0,0,1-.78.452c-.2-.056-.54-.156-.72-1.626A11.624,11.624,0,0,0,18.787,8.2c-.154-.452-.262-.89-.636-.112a1.922,1.922,0,0,0-.22,1.682,5.558,5.558,0,0,1,.24,2.614,4.713,4.713,0,0,1-.448.72.686.686,0,0,1-.944.142,1.136,1.136,0,0,1-.574-.9,14.356,14.356,0,0,0-.094-2.9c-.228-.538-.614-.34-.774-.184a6.888,6.888,0,0,0-1.418,3.266c-.22.79-.454.564-.616.24-.4-.41-.424-3.69-.9-3.152" transform="translate(3.074 -7.631)" fill="#fff"/>
        <path id="Path_423" data-name="Path 423" d="M18.021,11.19c0,.014-.01.014-.022.014v.014c-.05.028-.116.128-.248.24a1.364,1.364,0,0,0-.248,1.06c.01.072.42,1.358.776,2.276a7.936,7.936,0,0,1,.3,3.068,7.182,7.182,0,0,1-2.75,3.222,1.272,1.272,0,0,1-1.148,0V21.07a.82.82,0,0,1-.31-.736,7.018,7.018,0,0,0,2.766-3.2,3.746,3.746,0,0,0,.074-2.32,2.44,2.44,0,0,0-.47-1.06V13.74c.154-.084.552.254.618.042a3.472,3.472,0,0,0-.8-1.64.624.624,0,0,0-.976-.07c-.33.212-.4.962-.246,1.626.18.48.666.566,1.012,1.554v.014a2.108,2.108,0,0,1-.06,1.032,10.968,10.968,0,0,1-2.07,2.176l-.014.014V18.5h-.022v-.016a2.284,2.284,0,0,0,0-.324c0-.282.1-.962.094-1.088v-.014c-.59.438-.8,1.766-.9,2.162a26.782,26.782,0,0,0-4.2,3.236c-.516.892,3.542-1.046,4-1.272a.021.021,0,0,1,.018.014,3.686,3.686,0,0,0,.362.834,2.014,2.014,0,0,0,2.188.8A7.284,7.284,0,0,0,18.9,19.868c.12-.2.314-.354.488-.2a4.86,4.86,0,0,0,4.482,2.646c.506-.694.268-1.046.06-1.174-.066-.056-1.094-.508-1.25-.96-.1-.41.14-.778.634-1.062a19.552,19.552,0,0,0,4.138-.89,4.4,4.4,0,0,1,.454-1.6.72.72,0,0,1,.234-.284v-.028a.08.08,0,0,0,0-.028l-.234-.156-4.5-.028a.544.544,0,0,1-.126-.07V15.95a.274.274,0,0,1,.142-.1c1.08-.156,2.984-.508,3.108-2.586A1.728,1.728,0,0,0,24.957,11.3a1.778,1.778,0,0,0-1.378,2.048c-.038.27.088.82-.164.876-1.656.184-3.46,1.344-3.526,2.178h-.022l-.012.014h-.022l-.02-.014a.484.484,0,0,1-.22-.51,10.876,10.876,0,0,0-1.138-4.324c-.228-.268-.332-.368-.4-.382h-.028M24.6,13.038a.618.618,0,0,1,.628.522v.054a.325.325,0,0,0-.028.028c-.088.1-.28.084-.472-.044a.542.542,0,0,1-.276-.4v-.016c0-.028.012-.042.02-.042l.012-.028c0-.014,0-.014.022-.028a.142.142,0,0,1,.106-.042M20.431,17.31h.044a11.578,11.578,0,0,0,1.882.24c.522.042.78.494.292.692s-.946.326-.946,1.118a1.184,1.184,0,0,1,0,.678c0,.014-.012.028-.02.028v.028h-.014l-.022.014a.02.02,0,0,1-.018.014c-.12.014-.286-.126-.414-.184a2.924,2.924,0,0,1-1.248-2.076.508.508,0,0,1,.468-.552" transform="translate(0.044 -4.102)" fill="#fff"/>
        <path id="Path_424" data-name="Path 424" d="M7.721,9.351c.522.268,1.492.156,1.452-.778,0-.084-.016-.366-.022-.438-.1-.282-.4-.226-.46.072-.022.084.032.24-.04.3s-.21.014-.2-.24a.416.416,0,0,0-.084-.226A.134.134,0,0,0,8.241,8c-.07.014-.07.028-.1.1a.662.662,0,0,0-.04.212c-.012.1-.048.128-.108.142s-.046.014-.106-.028c-.028-.044-.076-.058-.076-.128a1.284,1.284,0,0,0-.024-.226.232.232,0,0,0-.13-.084c-.286,0-.3.366-.286.508-.024.028-.034.678.35.862" transform="translate(-1.722 -7.337)" fill="#fff"/>
        <path id="Path_425" data-name="Path 425" d="M15.314,12.978c.518.27,1.75.114,1.454-.8a4.334,4.334,0,0,0-.032-.438c-.1-.282-.388-.212-.458.072-.016.1.04.254-.034.31s-.212,0-.2-.254a.374.374,0,0,0-.084-.212.14.14,0,0,0-.118-.042c-.068.014-.068.028-.108.1a.824.824,0,0,0-.038.212c0,.1-.042.128-.1.142s-.044.014-.1-.028-.076-.056-.076-.128a.626.626,0,0,0-.034-.226.2.2,0,0,0-.126-.084c-.28,0-.3.366-.286.508-.016.014-.028.664.356.862" transform="translate(5.879 -3.727)" fill="#fff"/>
        <path id="Path_426" data-name="Path 426" d="M19.747,11.476c.516.268,1.49.142,1.45-.8,0-.07-.016-.352-.022-.438-.11-.268-.4-.212-.46.086-.024.084.03.24-.046.282-.038.056-.2.028-.2-.24a.524.524,0,0,0-.084-.226.232.232,0,0,0-.114-.014c-.068,0-.068.014-.11.084a.874.874,0,0,0-.04.226.112.112,0,0,1-.1.128c-.066.014-.054.014-.1-.028a.158.158,0,0,1-.076-.128,1.1,1.1,0,0,0-.034-.24.318.318,0,0,0-.126-.056c-.282,0-.306.366-.286.494-.02.028-.032.678.354.862" transform="translate(10.306 -5.222)" fill="#fff"/>
        <path id="Path_427" data-name="Path 427" d="M22.143,21.194a3.932,3.932,0,0,0-.3,3.448,2.658,2.658,0,0,0,1.116,1.428.724.724,0,0,0,1.168-.142c.528-.622.542-2.19.786-2.5.18-.58.614-.48.826-.226a2.31,2.31,0,0,0,.758.736,1.172,1.172,0,0,0,1.668.126,2.062,2.062,0,0,0,.89-1.216,49.727,49.727,0,0,0,.066-7.15c-.026-.17-.512-2.94-.512-2.97s-.07-1.412-.12-1.738c-.012-.14-.04-.184.086-.168.132.14.144.154.228.182.132.03.252-.226.174-.466-.4-.848-.826-1.71-1.238-2.544-.094-.126-.226-.24-.388.014a1.068,1.068,0,0,0-.3.764c.038.6.132,1.23.166,1.838.166,1.03.33,2.076.5,3.122.154,2.22.2,4.254.352,6.474a4.4,4.4,0,0,1-.534,2.3s-.362.254-.612-.014a8.293,8.293,0,0,1-.908-1.358c-.372-.38-.62-.282-.884,0a14.28,14.28,0,0,0-1.546,3.28c-.132.226-.49.424-.886-.014a5.158,5.158,0,0,1-.55-3.2" transform="translate(12.496 -7.434)" fill="#fff"/>
        <path id="Path_428" data-name="Path 428" d="M19.974,8.057a2,2,0,0,1,.682,1.782c-.094.636-.336,1.342-.516,1.244s.128-.636-.05-1.216c-.11-.382-.738-1.06-.672-1.272a.426.426,0,0,1,.556-.538" transform="translate(10.313 -7.259)" fill="#fff"/>
        <path id="Path_429" data-name="Path 429" d="M23.807,21.775a17.425,17.425,0,0,0-.1-2.8c-.028-.734-.744-6.8-.9-7.364-.176-1.058.7-.14.6-.762-.3-.778-1.054-1.922-1.288-2.6-.15-.3-.088-.552-.4-.072a6.672,6.672,0,0,0-.286,2.658,64.826,64.826,0,0,1,1.424,12.776c.358,0,.772-.918.952-1.836" transform="translate(12.328 -7.379)" fill="#fff"/>
        <path id="Path_430" data-name="Path 430" d="M25.743,11.688c.434.254.678,1.568.632,1.95-.082.692-.306,1.442-.468,1.342s.034-1.03-.05-1.314c-.1-.41-.672-1.158-.614-1.384a.44.44,0,0,1,.5-.6" transform="translate(16.14 -3.618)" fill="#fff"/>
        <path id="Path_431" data-name="Path 431" d="M11.1,13.643c.4.17.64,1.146.6,1.428-.082.508-.3,1.046-.448,1s.036-.764-.05-.976c-.03-.522-.6-.8-.58-1.018-.108-.41.228-.48.484-.424" transform="translate(1.516 -1.651)" fill="#fff"/>
        <path id="Path_432" data-name="Path 432" d="M5.68,7.887c.6.2.632,1.186.6,1.484-.082.522-.3,1.088-.452,1.018s0-.778-.084-1c-.086-.326-.6-.876-.532-1.046-.116-.354.226-.524.474-.452" transform="translate(-3.893 -7.413)" fill="#fff"/>
        <path id="Path_433" data-name="Path 433" d="M11.579,10.257a1.288,1.288,0,0,0-.35,1.6.65.65,0,0,0,.742.256c.45.07.716-.948.716-.948s.014-.282-.514.254c-.228.058-.256-.042-.314-.184a1.412,1.412,0,0,1,.068-.79c.082-.256-.09-.368-.348-.184" transform="translate(2.006 -5.118)" fill="#fff"/>
        <path id="Path_434" data-name="Path 434" d="M13.41,7.736a1.906,1.906,0,0,0-.7,1.328c-.018.34-.076.34.126.566.15.24.3.212.59.028a.688.688,0,0,0,.284-.452c.072-.4-.368.184-.428-.254-.094-.41.186-.566.456-.976,0-.268,0-.452-.33-.24" transform="translate(3.609 -7.644)" fill="#fff"/>
        <path id="Path_435" data-name="Path 435" d="M14.542,8.216a9.178,9.178,0,0,0-.2,1.54c-.082.382.362.55.556.056a5.034,5.034,0,0,0,.314-1.682c-.088-.58-.44-.55-.67.086" transform="translate(5.251 -7.572)" fill="#fff"/>
        <path id="Path_436" data-name="Path 436" d="M23.235,13.955c.064-.058,2.46-1.98,2.46-1.98.246-.1.2,1,.082.976a9.49,9.49,0,0,1-2.542,2c-.116.086-.236-.748,0-.988" transform="translate(14.018 -3.319)" fill="#fff"/>
        <path id="Path_437" data-name="Path 437" d="M24.518,12.967c.428.24.6,1.624.548,2,.016.736-.4,1.328-.572,1.244s.018-.918-.064-1.216a6.5,6.5,0,0,1-.4-1.4c-.12-.468.228-.722.486-.636" transform="translate(14.925 -2.345)" fill="#fff"/>
        <path id="Path_438" data-name="Path 438" d="M17.165,16.3a3.62,3.62,0,0,1,.682-.664.38.38,0,0,1,.464.1c.042.256-.148.51-.088.862.048.142.088.312.32.242a1.49,1.49,0,0,1,1.116-.368c.3,0,.3.564.124.564a7.7,7.7,0,0,0-1.524.6.318.318,0,0,1-.442-.07.534.534,0,0,1-.042-.494c.02-.284-.082-.438-.3-.424-.16.112-.3.168-.378-.028-.028-.156-.04-.24.064-.326" transform="translate(8 0.311)" fill="#fff"/>
        <path id="Path_439" data-name="Path 439" d="M25.786,16.711a.374.374,0,0,1,0,.522c-.172.184-.286.268-.458.452-.076.156-.126.382.114.452.446.142,1.486-.6,1.486-.636a.374.374,0,0,0,.1-.41c-.1-.126-.316-.056-.462-.056-.076,0-.306-.056-.2-.268a2.054,2.054,0,0,0,.188-.4c.066-.184.014-.3-.248-.4a1.96,1.96,0,0,0-.64,0c-.154.042-.2.128-.236.326.01.31.182.3.362.424" transform="translate(16.185 0.653)" fill="#fff"/>
      </g>
    </g>
  </g>
</svg>
