<svg xmlns="http://www.w3.org/2000/svg" xmlns:xlink="http://www.w3.org/1999/xlink" width="120" height="120" viewBox="0 0 120 120">
  <defs>
    <clipPath id="clip-path">
      <rect id="Rectangle_2" data-name="Rectangle 2" width="120" height="120" transform="translate(1569 158)" fill="#fff"/>
    </clipPath>
  </defs>
  <g id="Top_of_the_line_security_and_compliance" data-name="Top of the line security and compliance" transform="translate(-1569 -158)" clip-path="url(#clip-path)">
    <g id="secure-shield" transform="translate(1577.832 158)">
      <g id="Group_42" data-name="Group 42" transform="translate(0 0)">
        <g id="Group_41" data-name="Group 41">
          <path id="Path_90" data-name="Path 90" d="M138.161,20.721A199.614,199.614,0,0,1,90.133.35a2.523,2.523,0,0,0-2.566,0A194.146,194.146,0,0,1,39.538,20.721a2.524,2.524,0,0,0-1.857,2.435V48.948c0,26.56,12.253,44.141,22.532,54.212C71.279,114,84.17,120,88.85,120s17.57-6,28.637-16.84c10.279-10.071,22.531-27.652,22.531-54.212V23.156A2.524,2.524,0,0,0,138.161,20.721Zm-3.191,28.226a69.251,69.251,0,0,1-21.016,50.606c-10.882,10.663-22.517,15.4-25.1,15.4s-14.222-4.734-25.1-15.4A69.252,69.252,0,0,1,42.73,48.947V25.072A198.8,198.8,0,0,0,88.851,5.449a205.09,205.09,0,0,0,46.119,19.622Z" transform="translate(-37.681 0)" fill="teal"/>
          <path id="Path_91" data-name="Path 91" d="M99.126,100.543a2.524,2.524,0,0,0-3.274-1.423c-4.509,1.777-9.138,3.412-13.757,4.861a2.525,2.525,0,0,0-1.769,2.408v9.748a2.524,2.524,0,1,0,5.048,0v-7.9c4.144-1.341,8.283-2.823,12.328-4.417A2.523,2.523,0,0,0,99.126,100.543Z" transform="translate(-70.332 -75.753)" fill="teal"/>
          <path id="Path_92" data-name="Path 92" d="M172.732,91.269a2.525,2.525,0,0,0,1.012-.212l.046-.02a2.524,2.524,0,1,0-2.038-4.619l-.041.018a2.523,2.523,0,0,0,1.02,4.833Z" transform="translate(-139.143 -66.001)" fill="teal"/>
          <path id="Path_93" data-name="Path 93" d="M322.313,345.939a2.525,2.525,0,0,0-3.494.732,61.434,61.434,0,0,1-7.254,9.061,64.479,64.479,0,0,1-7.241,6.442,2.524,2.524,0,1,0,3.061,4.015,69.586,69.586,0,0,0,7.809-6.947,66.424,66.424,0,0,0,7.851-9.808A2.524,2.524,0,0,0,322.313,345.939Z" transform="translate(-241.069 -264.545)" fill="teal"/>
          <path id="Path_94" data-name="Path 94" d="M277.968,432.312l-.145.085a2.524,2.524,0,1,0,2.529,4.369l.167-.1a2.524,2.524,0,1,0-2.551-4.356Z" transform="translate(-220.576 -330.724)" fill="teal"/>
          <path id="Path_95" data-name="Path 95" d="M136.829,173.213a8.208,8.208,0,1,0-11.608,11.609l14.905,14.9a8.211,8.211,0,0,0,11.608,0l31.116-31.116A8.208,8.208,0,0,0,171.242,157L145.93,182.314Zm37.982-12.641a3.16,3.16,0,1,1,4.469,4.469l-31.115,31.116a3.162,3.162,0,0,1-4.469,0l-14.9-14.9a3.16,3.16,0,0,1,4.469-4.469l10.886,10.886a2.524,2.524,0,0,0,3.57,0Z" transform="translate(-102.867 -118.365)" fill="#e9b237"/>
        </g>
      </g>
    </g>
  </g>
</svg>
