<svg xmlns="http://www.w3.org/2000/svg" xmlns:xlink="http://www.w3.org/1999/xlink" width="120" height="120" viewBox="0 0 120 120">
  <defs>
    <clipPath id="clip-path">
      <rect id="Rectangle_2" data-name="Rectangle 2" width="120" height="120" transform="translate(169 161)" fill="#fff"/>
    </clipPath>
  </defs>
  <g id="Understand_the_margins" data-name="Understand the margins" transform="translate(-169 -161)" clip-path="url(#clip-path)">
    <g id="analytics" transform="translate(170 161)">
      <path id="Path_3" data-name="Path 3" d="M99.6,187.091H111.67a1.463,1.463,0,0,0,1.463-1.464V143.392a1.463,1.463,0,0,0-1.463-1.463H99.6a1.463,1.463,0,0,0-1.463,1.463v42.235A1.463,1.463,0,0,0,99.6,187.091Zm1.463-42.235h9.14v39.308h-9.14Z" transform="translate(-77.721 -109.75)" fill="teal"/>
      <path id="Path_4" data-name="Path 4" d="M29.42,216.8V184.62a1.463,1.463,0,0,0-1.463-1.464H15.889a1.463,1.463,0,0,0-1.463,1.464V216.8a1.463,1.463,0,0,0,1.463,1.463H27.957A1.463,1.463,0,0,0,29.42,216.8Zm-2.927-1.464h-9.14V186.083h9.14Z" transform="translate(-14.426 -140.921)" fill="teal"/>
      <path id="Path_5" data-name="Path 5" d="M246.054,118.636l-16.5-16.5L225.2,97.777a1.463,1.463,0,0,0-2.069,0L219.8,101.1l-1.923-1.923a29.955,29.955,0,0,0-12.838-48.611v-39.1A1.463,1.463,0,0,0,203.578,10H191.511a1.463,1.463,0,0,0-1.463,1.463v38.11a29.89,29.89,0,0,0-5.425,1.569V31.575a1.463,1.463,0,0,0-1.464-1.463H171.092a1.463,1.463,0,0,0-1.463,1.463V64.151a29.992,29.992,0,0,0,46.181,37.1l1.923,1.923-3.323,3.324a1.463,1.463,0,0,0,0,2.07l4.358,4.358,16.5,16.5a1.464,1.464,0,0,0,.74.4,8.849,8.849,0,0,0,10.443-10.443,1.46,1.46,0,0,0-.4-.741ZM202.115,12.927V49.766a30.012,30.012,0,0,0-9.14-.6V12.927ZM172.556,33.039h9.14v19.45a30.014,30.014,0,0,0-7.236,5.34q-1.012,1.011-1.9,2.094ZM214.8,98.169a27.062,27.062,0,1,1-23.078-45.91,27.765,27.765,0,0,1,4.021-.294A26.8,26.8,0,0,1,214.8,59.9a27.093,27.093,0,0,1,0,38.271Zm2.713,9.36,6.646-6.647,2.288,2.288-6.646,6.647Zm24.456,17.81a5.82,5.82,0,0,1-4.962,1.684l-15.137-15.136,2.289-2.289,13.98,13.981a1.463,1.463,0,1,0,2.069-2.07l-13.98-13.98,2.288-2.289,15.137,15.137A5.821,5.821,0,0,1,241.971,125.338Z" transform="translate(-128.792 -10)" fill="teal"/>
      <path id="Path_6" data-name="Path 6" d="M227.662,255.655a17.642,17.642,0,0,1-16.9-29.55c.208-.208.423-.412.639-.608v2.169a1.463,1.463,0,0,0,2.927,0v-5.732a1.464,1.464,0,0,0-1.464-1.463H207.13a1.463,1.463,0,1,0,0,2.927h2.226c-.226.207-.45.42-.667.637a20.578,20.578,0,0,0,19.7,34.453,1.463,1.463,0,1,0-.732-2.834Z" transform="translate(-156.768 -169.135)" fill="#e9b237"/>
      <path id="Path_7" data-name="Path 7" d="M293.627,240.484h-2.109a20.567,20.567,0,0,0-19.575-33.157,1.463,1.463,0,0,0,.5,2.883,17.639,17.639,0,0,1,16.912,28.283v-2.276a1.463,1.463,0,0,0-2.927,0v5.732a1.463,1.463,0,0,0,1.463,1.463h5.732a1.464,1.464,0,1,0,0-2.927Z" transform="translate(-208.216 -158.962)" fill="#e9b237"/>
      <path id="Path_8" data-name="Path 8" d="M273.357,265.906h-.052a2.163,2.163,0,0,1-2.136-2.16,1.464,1.464,0,0,0-2.927,0,5.1,5.1,0,0,0,3.625,4.872v.91a1.463,1.463,0,1,0,2.927,0v-.91a5.088,5.088,0,0,0-1.463-9.961,2.162,2.162,0,1,1,2.162-2.162,1.463,1.463,0,1,0,2.927,0,5.1,5.1,0,0,0-3.626-4.872v-.745a1.463,1.463,0,0,0-2.927,0v.745a5.088,5.088,0,0,0,1.464,9.961,2.161,2.161,0,1,1,.026,4.323Z" transform="translate(-206.334 -191.018)" fill="#e9b237"/>
    </g>
  </g>
</svg>
