<?xml version="1.0" encoding="utf-8"?>
<!-- Generator: Adobe Illustrator 26.0.1, SVG Export Plug-In . SVG Version: 6.00 Build 0)  -->
<svg version="1.1" id="Layer_1" xmlns="http://www.w3.org/2000/svg" xmlns:xlink="http://www.w3.org/1999/xlink" x="0px" y="0px"
	 viewBox="0 0 548 497.4" style="enable-background:new 0 0 548 497.4;" xml:space="preserve">
<style type="text/css">
	.st0{fill:#F4F4FF;}
	.st1{fill:none;stroke:#158467;stroke-dasharray:7,7;}
	.st2{fill:#FFFFFF;}
	.st3{fill:#263B7F;}
	.st4{fill:#1AAAE0;}
	.st5{fill:url(#Path_24134_00000047048519197195340720000014778367766542837949_);}
	.st6{fill:#E9B237;}
	.st7{enable-background:new    ;}
	.st8{fill:#1A1718;}
	.st9{fill:url(#Path_24081_00000034790259700718449360000011048125167715009175_);}
	.st10{fill:url(#Path_24088_00000153698897386921984810000006957922777675915167_);}
	.st11{fill:url(#Path_24074_00000176044270491596381890000002504199643952863148_);}
	.st12{fill:url(#Path_24075_00000060716243462012615030000005800783947782803362_);}
	.st13{fill:url(#Path_24076_00000107576555706348104870000014930231237596088982_);}
	.st14{fill:url(#Path_24077_00000013906007009482179380000006281442886825567658_);}
	.st15{fill:url(#Path_24078_00000005261245851017315360000006121030129860024724_);}
	.st16{fill:url(#Path_24079_00000000192686977838009200000005652528550266684574_);}
	.st17{clip-path:url(#SVGID_00000111179331571876916980000016001369907779786152_);}
	.st18{fill:none;stroke:#E9B237;stroke-linecap:square;stroke-miterlimit:10;}
</style>
<g id="Group_12870" transform="translate(-317.61 137.869)">
	<g id="Ellipse_56" transform="translate(248.22 2306.131)">
		<ellipse class="st0" cx="337.4" cy="-2131.6" rx="152" ry="151.5"/>
		<ellipse class="st1" cx="337.4" cy="-2131.6" rx="151.5" ry="151"/>
	</g>
	<g id="Group_12832" transform="translate(-1198.424 2859)">
		<rect id="Rectangle_8635" x="1722.4" y="-2713.1" class="st2" width="121" height="55"/>
		<g id="Group_1546" transform="translate(1524 -443.1)">
			<g id="Group_1545">
				<g id="Group_1544">
					<path id="Path_24003" class="st3" d="M227.2-2283.1c-23,0-41.7,18.7-41.7,41.8c0,23,18.7,41.7,41.8,41.7
						c23,0,41.7-18.7,41.7-41.8C268.9-2264.5,250.2-2283.1,227.2-2283.1C227.2-2283.1,227.2-2283.1,227.2-2283.1z M248.8-2238.5
						h-31.6c0.3,7.3,4.1,10.6,10.7,10.6c4.9,0,8.7-2.9,9.5-5.4h10.6c-3.4,9.9-10.6,14.1-20.5,14.1c-13.7,0-22.4-9-22.4-22
						c0-12.5,9-22,22.4-22C242.3-2263.4,249.5-2251.4,248.8-2238.5L248.8-2238.5z M217.4-2245.8h19.1c-1.2-6-4-8.6-9.3-8.6
						C219.8-2254.4,217.5-2249,217.4-2245.8L217.4-2245.8z"/>
					<path id="Path_24004" class="st4" d="M334.7-2241.4c0,23-18.7,41.7-41.7,41.8c-23,0-41.7-18.7-41.8-41.7s18.7-41.7,41.7-41.8
						c0,0,0,0,0.1,0C316-2283.1,334.6-2264.4,334.7-2241.4z M297.4-2261c-4.8-0.1-9.4,2.3-12.1,6.2H285v-5.3h-10.3v37.4H286v-19.6
						c0-7.3,2.3-10.2,8-10.2c4.6,0,6.5,2.5,6.5,8.7v21h11.3v-22.9C311.9-2254.9,308.9-2261,297.4-2261L297.4-2261z"/>
				</g>
			</g>
		</g>
	</g>
</g>
<linearGradient id="Path_24134_00000127747911409173125170000001160852044175663778_" gradientUnits="userSpaceOnUse" x1="-122.6696" y1="648.2513" x2="-123.7146" y2="647.2663" gradientTransform="matrix(95.0033 0 0 -95.0203 11969.626 61613.2109)">
	<stop  offset="0" style="stop-color:#158467"/>
	<stop  offset="1" style="stop-color:#08297E"/>
</linearGradient>
<path id="Path_24134" style="fill:url(#Path_24134_00000127747911409173125170000001160852044175663778_);" d="M311.2,64.5V19.9H305
	V7.7H302v12.3h-6.1v-9.2h-3.1v9.2h-3.1V0h-23.9l-3.1,6.1H256v18.5c-0.7-0.1-1.3-0.1-2-0.1c-5,0-9.8,2-13.3,5.5l-0.8,0.8
	c-4.1,1.2-6.9,5-6.9,9.2v15.1c0,3.4,2.7,6.1,6.1,6.1h2.7c1.3,2.3,3,4.3,5,5.9v1.7c0,1.3-0.8,2.4-2,2.9l-14.7,5.7
	c-6.6,2.5-11,8.9-11,16V95h67.4v-1.5c10.1,4.2,21.8-0.5,26-10.7C315.2,76.8,314.6,70,311.2,64.5z M274.5,77l-6.2-2.4V61.1
	c2.7-0.7,4.6-3.1,4.6-5.9v-7.7h23v7.7c-0.5,0-1-0.1-1.5-0.1c-11,0-19.9,8.9-19.9,19.9C274.4,75.7,274.4,76.3,274.5,77L274.5,77z
	 M259.1,68.9v-1.7c2-1.6,3.7-3.6,5-5.9h1.1v12.1l-4.2-1.6C259.8,71.3,259.1,70.1,259.1,68.9L259.1,68.9z M266.7,52.1L266.7,52.1
	c1.7,0,3.1,1.4,3,3.1c0,1.6-1.4,3-3,3h-1.2C266.2,56.3,266.6,54.2,266.7,52.1z M295.8,41.4v3.1h-23v-1.1c0-0.7,0-1.3-0.1-2
	L295.8,41.4z M280.5,38.3v-9.2h27.6v31.6c-2.6-2.5-5.7-4.2-9.2-5V38.3H280.5z M308.1,26h-24.5V23h24.5V26z M267.7,3.1h19v3.1h-20.5
	L267.7,3.1z M259.1,9.2h27.6v10.7h-6.1V26h-3.1v12.3h-5.3c-1.8-6.3-6.7-11.3-13.1-13.1V9.2z M241,33.7l0.4-0.1l1.4-1.4
	c6.2-6.2,16.2-6.2,22.3,0c3,3,4.6,7,4.6,11.2v6.5c-0.9-0.6-2-0.8-3.1-0.9v-4.6H264c-3.8,0-7.4-1.5-10-4.1l-1.1-1.1l-1.1,1.1
	c-2.6,2.7-6.3,4.2-10,4.1h-2.7V49c-1.1,0-2.1,0.3-3.1,0.9V40C236.1,37,238.1,34.4,241,33.7z M239.1,58.2c-1.7,0-3-1.4-3-3.1
	c0-1.6,1.4-3,3-3h0c0.1,2.1,0.5,4.2,1.2,6.1H239.1z M242.2,51.3v-3.8c3.9-0.1,7.7-1.5,10.7-4c3,2.5,6.8,4,10.7,4v3.8
	c0,7-4.3,13.3-10.7,16C246.5,64.6,242.2,58.3,242.2,51.3L242.2,51.3z M252.4,70.4l0.5,0.2l0.5-0.2c0.9-0.3,1.7-0.7,2.6-1.2
	c0.1,1.3,0.6,2.5,1.4,3.6l-0.1,0.5c-0.6,2.4-3.1,3.8-5.5,3.1c-1.5-0.4-2.7-1.6-3.1-3.1l-0.1-0.5c0.8-1,1.3-2.3,1.4-3.6
	C250.7,69.7,251.5,70.1,252.4,70.4L252.4,70.4z M274.4,91.9v-6.1h-3.1v6.1h-36.8v-6.1h-3.1v6.1h-9.1c0.6-5.3,4-9.8,8.9-11.7
	l14.5-5.7c1.4,3.9,5.6,6,9.6,4.6c2.2-0.8,3.9-2.5,4.6-4.6l14.5,5.7c4.9,1.9,8.4,6.4,8.9,11.7L274.4,91.9L274.4,91.9z M294.3,91.9
	c-2.8,0-5.6-0.7-8-2.1c-1-4.9-4.1-9-8.4-11.4c-1.8-9.1,4-18,13.2-19.8c9.1-1.8,18,4,19.8,13.2s-4,18-13.2,19.8
	C296.6,91.8,295.4,91.9,294.3,91.9L294.3,91.9z"/>
<g id="Group_12806" transform="translate(76.734 2295.39)">
	<path id="Path_24135" class="st6" d="M206.8-2263.2h21.5v3.1h-21.5V-2263.2z"/>
	<path id="Path_24136" class="st6" d="M199.2-2244.8H216v3.1h-16.9V-2244.8z"/>
	<path id="Path_24137" class="st6" d="M185.4-2283.1h3.1v3.1h-3.1V-2283.1z"/>
	<path id="Path_24138" class="st6" d="M203.8-2283.1h3.1v3.1h-3.1V-2283.1z"/>
	<path id="Path_24139" class="st6" d="M191.5-2283.1h3.1v3.1h-3.1V-2283.1z"/>
	<path id="Path_24140" class="st6" d="M197.6-2283.1h3.1v3.1h-3.1V-2283.1z"/>
	<path id="Path_24141" class="st6" d="M191.5-2277h3.1v3.1h-3.1V-2277z"/>
	<path id="Path_24142" class="st6" d="M197.6-2277h3.1v3.1h-3.1V-2277z"/>
	<path id="Path_24143" class="st6" d="M185.4-2277h3.1v3.1h-3.1V-2277z"/>
</g>
<g class="st7">
	<path class="st8" d="M225.9,117.9h-5.4v4.1h4.8v1.9h-4.8v4.3h5.4v1.9h-7.7v-13.9h7.7V117.9z"/>
	<path class="st8" d="M233.1,118.8c1.4,0,3,0.7,3.8,1.7v-5.3h2.3V130h-2.3v-1.7c-0.7,1-2,1.8-3.8,1.8c-2.9,0-5.2-2.3-5.2-5.7
		C227.9,121,230.2,118.8,233.1,118.8z M233.6,120.8c-1.7,0-3.3,1.3-3.3,3.7c0,2.4,1.6,3.8,3.3,3.8c1.7,0,3.3-1.3,3.3-3.7
		C236.9,122.1,235.3,120.8,233.6,120.8z"/>
	<path class="st8" d="M252.2,130h-2.3v-1.3c-0.7,0.9-2,1.5-3.3,1.5c-2.6,0-4.5-1.6-4.5-4.7V119h2.3v6.1c0,2,1.1,3.1,2.8,3.1
		c1.7,0,2.8-1,2.8-3.1V119h2.3V130z"/>
	<path class="st8" d="M259.9,118.8c2.7,0,4.5,1.3,5.1,3.7h-2.5c-0.4-1.1-1.3-1.7-2.6-1.7c-1.8,0-3.1,1.4-3.1,3.8
		c0,2.4,1.2,3.8,3.1,3.8c1.4,0,2.2-0.6,2.6-1.7h2.5c-0.6,2.2-2.4,3.7-5.1,3.7c-3.2,0-5.4-2.2-5.4-5.7
		C254.5,121,256.7,118.8,259.9,118.8z"/>
	<path class="st8" d="M271.7,118.8c1.9,0,3.1,0.9,3.8,1.8V119h2.3v11h-2.3v-1.6c-0.7,0.9-2,1.8-3.9,1.8c-2.9,0-5.2-2.3-5.2-5.7
		C266.5,121,268.8,118.8,271.7,118.8z M272.1,120.8c-1.7,0-3.3,1.3-3.3,3.7c0,2.4,1.6,3.8,3.3,3.8c1.7,0,3.3-1.3,3.3-3.7
		C275.5,122.1,273.9,120.8,272.1,120.8z"/>
	<path class="st8" d="M281.1,120.8h-1.3V119h1.3v-2.7h2.3v2.7h2.7v1.9h-2.7v6.1c0,0.8,0.3,1.2,1.3,1.2h1.4v1.9h-1.8
		c-2,0-3.2-0.8-3.2-3.1V120.8z"/>
	<path class="st8" d="M287.9,116.1c0-0.8,0.6-1.5,1.5-1.5c0.8,0,1.4,0.6,1.4,1.5c0,0.8-0.6,1.5-1.4,1.5
		C288.6,117.5,287.9,116.9,287.9,116.1z M288.2,119h2.3v11h-2.3V119z"/>
	<path class="st8" d="M298.3,130.2c-3.1,0-5.5-2.2-5.5-5.7c0-3.5,2.5-5.7,5.6-5.7s5.6,2.2,5.6,5.7
		C304,127.9,301.4,130.2,298.3,130.2z M298.3,128.2c1.7,0,3.4-1.2,3.4-3.7c0-2.5-1.6-3.7-3.3-3.7c-1.7,0-3.3,1.2-3.3,3.7
		C295.1,127,296.6,128.2,298.3,128.2z"/>
	<path class="st8" d="M314.1,123.8c0-2-1.1-3.1-2.8-3.1c-1.7,0-2.8,1-2.8,3.1v6.2h-2.3v-11h2.3v1.3c0.7-0.9,2-1.4,3.3-1.4
		c2.6,0,4.5,1.6,4.5,4.7v6.5h-2.3V123.8z"/>
</g>
<g id="Group_12868" transform="translate(-295.39 137)">
	<g id="practice" transform="translate(116 2506.396)">
		
			<linearGradient id="Path_24081_00000159428926399567858740000006061305769309516476_" gradientUnits="userSpaceOnUse" x1="58.1478" y1="-1996.8483" x2="56.7948" y2="-1997.4652" gradientTransform="matrix(46.1714 0 0 -47.7148 -2402.293 -97500.5547)">
			<stop  offset="0" style="stop-color:#158467"/>
			<stop  offset="1" style="stop-color:#08297E"/>
		</linearGradient>
		<path id="Path_24081" style="fill:url(#Path_24081_00000159428926399567858740000006061305769309516476_);" d="M276.1-2236.1
			L276.1-2236.1c-2.2,0.1-4.1,1.6-4.6,3.7l-1.5,6.1c-1.4,5.8-5.3,10.6-10.7,13.2c-0.9,0.4-2,0.1-2.4-0.8c-0.2-0.3-0.2-0.7-0.2-1.1
			l1.2-6.7c0.4-2-1-4-3.1-4.4c-1.5-0.3-3,0.4-3.8,1.7l-7.6,11.9c-1.1-0.8-2.6-0.7-3.6,0.3l-5.5,5.5c-0.5,0.5-0.5,1.4,0,2
			c0,0,0,0,0,0l16,16c0.5,0.5,1.4,0.5,2,0l5.5-5.5c1-1,1.1-2.7,0.2-3.8c1.8-1,3.5-2.1,5.1-3.4c0.6-0.5,0.8-1.3,0.3-1.9
			c-0.5-0.6-1.3-0.8-1.9-0.3c0,0,0,0,0,0c-1.7,1.3-3.6,2.5-5.5,3.5l-10.5-10.5l7.9-12.3c0.3-0.5,0.9-0.6,1.4-0.3
			c0.3,0.2,0.5,0.6,0.4,1l-1.2,6.7c-0.4,2.5,1.2,4.9,3.7,5.3c1,0.2,1.9,0,2.8-0.4c6.1-3,10.5-8.5,12.1-15.1l1.5-6.1
			c0.5-2,3.3-2.1,3.1-0.3c-0.9,9.4-5.1,18.3-11.9,24.9c-0.6,0.5-0.6,1.4,0,2c0.5,0.6,1.4,0.6,2,0c0,0,0,0,0,0
			c7.2-7.1,11.7-16.6,12.7-26.7c0.2-2.1-1.4-4-3.5-4.3C276.5-2236.1,276.3-2236.1,276.1-2236.1z M251.4-2191.7l-14-14l4.5-4.5l14,14
			L251.4-2191.7z"/>
		<path id="Path_24082" class="st6" d="M214.7-2259.7l1.8,1c0,0,0,0,0,0l2.9,5c0,0,0,0,0,0.1l0,2.1c0,1,0.5,2,1.4,2.5l4.2,2.4
			c0.9,0.5,2,0.5,2.9,0l1.8-1.1c0,0,0,0,0,0h5.8c0,0,0,0,0.1,0l1.8,1.1c0.9,0.5,2,0.5,2.9,0l4.2-2.4c0.9-0.5,1.5-1.5,1.4-2.5l0-2.1
			c0,0,0,0,0-0.1l2.9-5c0,0,0,0,0,0l1.8-1c0.9-0.5,1.5-1.5,1.5-2.5v-4.8c0-1-0.6-2-1.5-2.5l-1.8-1c0,0,0,0,0,0l-0.2-0.3
			c-0.3-0.7-1.2-1-1.9-0.6s-1,1.2-0.6,1.9c0,0,0,0.1,0.1,0.1l0.2,0.3c0.3,0.5,0.6,0.8,1.1,1.1l1.8,1c0,0,0,0,0.1,0.1v4.8
			c0,0,0,0.1-0.1,0.1l-1.8,1c-0.5,0.3-0.8,0.6-1.1,1.1l-2.9,5c-0.3,0.5-0.4,1-0.4,1.5l0,2.1c0,0,0,0.1,0,0.1l-4.2,2.4
			c0,0-0.1,0-0.1,0l-1.8-1.1c-0.4-0.3-1-0.4-1.5-0.4h-5.8c-0.5,0-1,0.1-1.5,0.4l-1.8,1.1c0,0-0.1,0-0.1,0l-4.2-2.4c0,0,0-0.1,0-0.1
			l0-2.1c0-0.5-0.1-1-0.4-1.5l-2.9-5c-0.3-0.5-0.6-0.8-1.1-1.1l-1.8-1c0,0,0,0-0.1-0.1v-4.8c0,0,0-0.1,0-0.1l1.8-1
			c0.5-0.3,0.8-0.6,1.1-1.1l2.9-5c0.3-0.5,0.4-1,0.4-1.5l0-2.1c0,0,0-0.1,0-0.1l4.2-2.4c0,0,0.1,0,0.1,0l1.8,1.1
			c0.4,0.3,1,0.4,1.5,0.4h5.8c0.5,0,1-0.1,1.5-0.4l1.8-1.1c0,0,0.1,0,0.1,0l4.2,2.4c0,0,0,0.1,0,0.1l0,2.1c0,0.4,0.1,0.9,0.3,1.3
			c0.3,0.7,1.2,1,1.8,0.7c0.7-0.3,1-1.2,0.7-1.8c0,0,0,0,0,0c0,0,0,0,0,0l0-2.1c0-1-0.5-2-1.4-2.5l-4.2-2.4c-0.9-0.5-2-0.5-2.9,0
			l-1.8,1.1c0,0,0,0-0.1,0h-5.8c0,0,0,0-0.1,0l-1.8-1.1c-0.9-0.5-2-0.5-2.9,0l-4.2,2.4c-0.9,0.5-1.5,1.5-1.4,2.5l0,2.1
			c0,0,0,0,0,0.1l-2.9,5c0,0,0,0,0,0l-1.8,1c-0.9,0.5-1.5,1.5-1.5,2.5v4.8C213.3-2261.2,213.8-2260.2,214.7-2259.7L214.7-2259.7z"/>
		<path id="Path_24083" class="st6" d="M232.8-2273c-4.6,0-8.4,3.8-8.4,8.4c0,4.6,3.8,8.4,8.4,8.4s8.4-3.8,8.4-8.4l0,0
			C241.2-2269.3,237.4-2273,232.8-2273z M232.8-2259c-3.1,0-5.6-2.5-5.6-5.6c0-3.1,2.5-5.6,5.6-5.6c3.1,0,5.6,2.5,5.6,5.6l0,0
			C238.4-2261.5,235.9-2259,232.8-2259z"/>
		<path id="Path_24084" class="st6" d="M258-2237.4c3.4,0,6.2-2.8,6.2-6.2c0-3.4-2.8-6.2-6.2-6.2c-3.4,0-6.2,2.8-6.2,6.2
			c0,0,0,0,0,0C251.8-2240.2,254.6-2237.4,258-2237.4z M258-2247.1c1.9,0,3.5,1.6,3.5,3.5c0,1.9-1.6,3.5-3.5,3.5
			c-1.9,0-3.5-1.6-3.5-3.5C254.6-2245.6,256.1-2247.1,258-2247.1L258-2247.1z"/>
		<path id="Path_24085" class="st6" d="M248.4-2252.7l0,1.4l-1.9,3.3l-1.2,0.7c-0.8,0.4-1.2,1.2-1.2,2.1v3.3c0,0.9,0.5,1.7,1.2,2.1
			l1.2,0.7l1.9,3.3l0,1.4c0,0.9,0.4,1.7,1.2,2.1l2.9,1.7c0.8,0.4,1.7,0.4,2.5,0l1.2-0.7h3.8l1.2,0.7c0.8,0.5,1.7,0.5,2.5,0l2.9-1.7
			c0.8-0.4,1.2-1.3,1.2-2.1l0-1.4l1.9-3.3l1.2-0.7c0.8-0.4,1.2-1.2,1.2-2.1v-3.3c0-0.9-0.5-1.7-1.2-2.1l-1.2-0.7l-1.9-3.3l0-1.4
			c0-0.9-0.4-1.7-1.2-2.1l-2.9-1.7c-0.8-0.4-1.7-0.4-2.5,0l-1.2,0.7h-3.8l-1.2-0.7c-0.8-0.5-1.7-0.5-2.5,0l-2.9,1.7
			C248.8-2254.4,248.4-2253.6,248.4-2252.7z M251.2-2252.6l2.5-1.5l1.1,0.6c0.4,0.2,0.8,0.3,1.2,0.3h4c0.4,0,0.9-0.1,1.2-0.3
			l1.1-0.6l2.5,1.5l0,1.3c0,0.4,0.1,0.9,0.3,1.3l2,3.5c0.2,0.4,0.5,0.7,0.9,0.9l1.1,0.6v2.9l-1.1,0.6c-0.4,0.2-0.7,0.5-0.9,0.9
			l-2,3.5c-0.2,0.4-0.3,0.8-0.3,1.3l0,1.3l-2.5,1.5l-1.1-0.6c-0.4-0.2-0.8-0.3-1.2-0.3h-4c-0.4,0-0.9,0.1-1.2,0.3l-1.1,0.6l-2.5-1.5
			l0-1.3c0-0.4-0.1-0.9-0.3-1.3l-2-3.5c-0.2-0.4-0.5-0.7-0.9-0.9l-1.1-0.6v-2.9l1.1-0.6c0.4-0.2,0.7-0.5,0.9-0.9l2-3.5
			c0.2-0.4,0.3-0.8,0.3-1.3L251.2-2252.6z"/>
		<path id="Path_24086" class="st6" d="M207.5-2237.4c3.4,0,6.2-2.8,6.2-6.2c0-3.4-2.8-6.2-6.2-6.2c-3.4,0-6.2,2.8-6.2,6.2
			C201.3-2240.2,204.1-2237.4,207.5-2237.4z M207.5-2247.1c1.9,0,3.5,1.6,3.5,3.5c0,1.9-1.6,3.5-3.5,3.5s-3.5-1.6-3.5-3.5
			C204-2245.6,205.6-2247.1,207.5-2247.1L207.5-2247.1z"/>
		<path id="Path_24087" class="st6" d="M194.8-2239.9l1.2,0.7l1.9,3.3l0,1.4c0,0.9,0.4,1.7,1.2,2.1l2.9,1.7c0.8,0.4,1.7,0.4,2.5,0
			l1.2-0.7h3.8l1.2,0.7c0.8,0.5,1.7,0.5,2.5,0l2.9-1.7c0.8-0.4,1.2-1.3,1.2-2.1l0-1.4l1.9-3.3l1.2-0.7c0.8-0.4,1.2-1.2,1.2-2.1v-3.3
			c0-0.9-0.5-1.7-1.2-2.1l-1.2-0.7l-1.9-3.3l0-1.4c0-0.9-0.4-1.7-1.2-2.1l-2.9-1.7c-0.8-0.4-1.7-0.4-2.5,0l-1.2,0.7h-3.8l-1.2-0.7
			c-0.8-0.5-1.7-0.5-2.5,0l-2.9,1.7c-0.8,0.4-1.2,1.3-1.2,2.1l0,1.4l-1.9,3.3l-1.2,0.7c-0.8,0.4-1.2,1.2-1.2,2.1v3.3
			C193.6-2241.1,194-2240.3,194.8-2239.9z M196.3-2245.1l1.1-0.6c0.4-0.2,0.7-0.5,0.9-0.9l2-3.5c0.2-0.4,0.3-0.8,0.3-1.3l0-1.3
			l2.5-1.5l1.1,0.6c0.4,0.2,0.8,0.3,1.2,0.3h4c0.4,0,0.9-0.1,1.2-0.3l1.1-0.6l2.5,1.5l0,1.3c0,0.4,0.1,0.9,0.3,1.3l2,3.5
			c0.2,0.4,0.5,0.7,0.9,0.9l1.1,0.6v2.9l-1.1,0.6c-0.4,0.2-0.7,0.5-0.9,0.9l-2,3.5c-0.2,0.4-0.3,0.8-0.3,1.2l0,1.3l-2.5,1.5
			l-1.1-0.6c-0.4-0.2-0.8-0.3-1.2-0.3h-4c-0.4,0-0.9,0.1-1.2,0.3l-1.1,0.6l-2.5-1.5l0-1.3c0-0.4-0.1-0.9-0.3-1.3l-2-3.5
			c-0.2-0.4-0.5-0.7-0.9-0.9l-1.1-0.6L196.3-2245.1L196.3-2245.1z"/>
		
			<linearGradient id="Path_24088_00000153672590691187736660000013415082682810114746_" gradientUnits="userSpaceOnUse" x1="58.0989" y1="-1996.7412" x2="56.7459" y2="-1997.3583" gradientTransform="matrix(46.1745 0 0 -47.7179 -2451.0481 -97506.6953)">
			<stop  offset="0" style="stop-color:#158467"/>
			<stop  offset="1" style="stop-color:#08297E"/>
		</linearGradient>
		<path id="Path_24088" style="fill:url(#Path_24088_00000153672590691187736660000013415082682810114746_);" d="M225.6-2212.3
			c-1-1-2.5-1.1-3.6-0.3l-7.6-11.9c-1.1-1.7-3.4-2.3-5.2-1.1c-1.3,0.8-1.9,2.3-1.7,3.8l1.2,6.7c0.2,1-0.5,1.9-1.5,2.1
			c-0.4,0.1-0.8,0-1.1-0.2c-5.4-2.6-9.3-7.5-10.7-13.2l-1.5-6.1c-0.5-2.1-2.4-3.6-4.5-3.7h-0.1c-2.1-0.1-4,1.6-4,3.7
			c0,0.2,0,0.3,0,0.5c1.4,14.2,9.6,26.8,22.1,33.8c-0.9,1.1-0.9,2.7,0.2,3.8l5.5,5.5c0.5,0.5,1.4,0.5,2,0l6.2-6.2
			c0.5-0.5,0.5-1.4,0-2c-0.5-0.5-1.4-0.5-2,0l-5.2,5.2l-4.5-4.5l14-14l4.5,4.5l-4.9,4.9c-0.5,0.5-0.5,1.4,0,2c0.5,0.5,1.4,0.5,2,0
			l5.9-5.9c0.5-0.5,0.5-1.4,0-2c0,0,0,0,0,0L225.6-2212.3z M188.2-2232.1c-0.1-0.6,0.4-1.2,1-1.2c0,0,0.1,0,0.2,0h0.1
			c0.9,0,1.7,0.7,1.9,1.6l1.5,6.1c1.6,6.6,6,12.1,12.1,15.1c2.3,1.1,5,0.2,6.2-2.1c0.4-0.9,0.6-1.9,0.4-2.8l-1.2-6.7
			c-0.1-0.5,0.3-1,0.8-1.1c0.4-0.1,0.8,0.1,1,0.4l7.9,12.3l-10.5,10.5C209.4-2200.3,190.4-2209.2,188.2-2232.1z"/>
	</g>
	<g class="st7">
		<path class="st8" d="M304.7,341h-5.4v4.1h4.8v1.9h-4.8v4.3h5.4v1.9H297v-13.9h7.7V341z"/>
		<path class="st8" d="M308.6,342l3.1,9l3.1-9h2.4l-4.2,11h-2.7l-4.2-11H308.6z"/>
		<path class="st8" d="M323.4,341.8c1.9,0,3.1,0.9,3.8,1.8V342h2.3v11h-2.3v-1.6c-0.7,0.9-2,1.8-3.9,1.8c-2.9,0-5.2-2.3-5.2-5.7
			C318.2,344.1,320.5,341.8,323.4,341.8z M323.9,343.8c-1.7,0-3.3,1.3-3.3,3.7c0,2.4,1.6,3.8,3.3,3.8c1.7,0,3.3-1.3,3.3-3.7
			C327.2,345.1,325.6,343.8,323.9,343.8z"/>
		<path class="st8" d="M332.5,338.2h2.3V353h-2.3V338.2z"/>
		<path class="st8" d="M347.8,353h-2.3v-1.3c-0.7,0.9-2,1.5-3.3,1.5c-2.6,0-4.5-1.6-4.5-4.7V342h2.3v6.1c0,2,1.1,3.1,2.8,3.1
			c1.7,0,2.8-1,2.8-3.1V342h2.3V353z"/>
		<path class="st8" d="M355.2,341.8c1.9,0,3.1,0.9,3.8,1.8V342h2.3v11h-2.3v-1.6c-0.7,0.9-2,1.8-3.9,1.8c-2.9,0-5.2-2.3-5.2-5.7
			C350,344.1,352.3,341.8,355.2,341.8z M355.7,343.8c-1.7,0-3.3,1.3-3.3,3.7c0,2.4,1.6,3.8,3.3,3.8c1.7,0,3.3-1.3,3.3-3.7
			C359.1,345.1,357.4,343.8,355.7,343.8z"/>
		<path class="st8" d="M364.7,343.9h-1.3V342h1.3v-2.7h2.3v2.7h2.7v1.9H367v6.1c0,0.8,0.3,1.2,1.3,1.2h1.4v1.9h-1.8
			c-2,0-3.2-0.8-3.2-3.1V343.9z"/>
		<path class="st8" d="M371.5,339.1c0-0.8,0.6-1.5,1.5-1.5c0.8,0,1.4,0.6,1.4,1.5c0,0.8-0.6,1.5-1.4,1.5
			C372.1,340.5,371.5,339.9,371.5,339.1z M371.8,342h2.3v11h-2.3V342z"/>
		<path class="st8" d="M381.8,353.2c-3.1,0-5.5-2.2-5.5-5.7c0-3.5,2.5-5.7,5.6-5.7s5.6,2.2,5.6,5.7C387.6,351,385,353.2,381.8,353.2
			z M381.8,351.2c1.7,0,3.4-1.2,3.4-3.7c0-2.5-1.6-3.7-3.3-3.7c-1.7,0-3.3,1.2-3.3,3.7C378.6,350,380.1,351.2,381.8,351.2z"/>
		<path class="st8" d="M397.7,346.9c0-2-1.1-3.1-2.8-3.1c-1.7,0-2.8,1-2.8,3.1v6.2h-2.3v-11h2.3v1.3c0.7-0.9,2-1.4,3.3-1.4
			c2.6,0,4.5,1.6,4.5,4.7v6.5h-2.3V346.9z"/>
	</g>
</g>
<g id="Group_12869" transform="translate(-339.39 137)">
	<g id="Group_12834" transform="translate(-13125 2122.896)">
		<g id="Group_12808" transform="translate(13715 383.003)">
			
				<linearGradient id="Path_24074_00000153673540958651560700000001355324312398523315_" gradientUnits="userSpaceOnUse" x1="-369.9912" y1="-2046.4548" x2="-370.9292" y2="-2047.4548" gradientTransform="matrix(26.967 0 0 -2.8 10248.1309 -7976.8682)">
				<stop  offset="0" style="stop-color:#158467"/>
				<stop  offset="1" style="stop-color:#08297E"/>
			</linearGradient>
			<path id="Path_24074" style="fill:url(#Path_24074_00000153673540958651560700000001355324312398523315_);" d="M269.6-2246.7
				h-24.2c-0.8,0-1.4,0.6-1.4,1.4s0.6,1.4,1.4,1.4h24.2c0.8,0,1.4-0.6,1.4-1.4S270.4-2246.7,269.6-2246.7L269.6-2246.7z"/>
			
				<linearGradient id="Path_24075_00000071518088057381845020000008295007189443387778_" gradientUnits="userSpaceOnUse" x1="-369.9912" y1="-2046.4548" x2="-370.9292" y2="-2047.4548" gradientTransform="matrix(26.967 0 0 -2.8 10248.1309 -7968.4194)">
				<stop  offset="0" style="stop-color:#158467"/>
				<stop  offset="1" style="stop-color:#08297E"/>
			</linearGradient>
			<path id="Path_24075" style="fill:url(#Path_24075_00000071518088057381845020000008295007189443387778_);" d="M269.6-2238.3
				h-24.2c-0.8,0-1.4,0.6-1.4,1.4c0,0.8,0.6,1.4,1.4,1.4h24.2c0.8,0,1.4-0.6,1.4-1.4C271-2237.7,270.4-2238.3,269.6-2238.3
				L269.6-2238.3z"/>
			
				<linearGradient id="Path_24076_00000101814045062265623620000013040434693457437074_" gradientUnits="userSpaceOnUse" x1="-369.9929" y1="-2046.4546" x2="-370.9309" y2="-2047.4546" gradientTransform="matrix(26.9771 0 0 -2.8 10251.9443 -7960)">
				<stop  offset="0" style="stop-color:#158467"/>
				<stop  offset="1" style="stop-color:#08297E"/>
			</linearGradient>
			<path id="Path_24076" style="fill:url(#Path_24076_00000101814045062265623620000013040434693457437074_);" d="M271-2228.4
				c0-0.8-0.6-1.4-1.4-1.4h-24.2c-0.8,0-1.4,0.6-1.4,1.4c0,0.8,0.6,1.4,1.4,1.4c0,0,0,0,0,0h24.2C270.4-2227,271-2227.7,271-2228.4
				C271-2228.4,271-2228.4,271-2228.4z"/>
			
				<linearGradient id="Path_24077_00000158730078349078980750000005988070979603759778_" gradientUnits="userSpaceOnUse" x1="-366.2282" y1="-2046.4546" x2="-367.1662" y2="-2047.4546" gradientTransform="matrix(14.884 0 0 -2.8 5709.6514 -7951.5508)">
				<stop  offset="0" style="stop-color:#158467"/>
				<stop  offset="1" style="stop-color:#08297E"/>
			</linearGradient>
			<path id="Path_24077" style="fill:url(#Path_24077_00000158730078349078980750000005988070979603759778_);" d="M245.5-2221.4
				c-0.8,0-1.4,0.6-1.4,1.4c0,0.8,0.6,1.4,1.4,1.4c0,0,0,0,0,0h12.1c0.8,0,1.4-0.6,1.4-1.4c0-0.8-0.6-1.4-1.4-1.4H245.5z"/>
			
				<linearGradient id="Path_24078_00000045611024798916098570000000253520884062592178_" gradientUnits="userSpaceOnUse" x1="-373.2545" y1="-1994.501" x2="-374.1925" y2="-1995.501" gradientTransform="matrix(94.7723 0 0 -95.68 35657.7852 -193113.6875)">
				<stop  offset="0" style="stop-color:#158467"/>
				<stop  offset="1" style="stop-color:#08297E"/>
			</linearGradient>
			<path id="Path_24078" style="fill:url(#Path_24078_00000045611024798916098570000000253520884062592178_);" d="M278.1-2266.7
				l-14.5-14.4c-1.3-1.3-3.1-2-4.9-2h-47.5c-3.8,0-6.9,3.1-6.9,6.9v14.3c0,0.8,0.6,1.4,1.4,1.4c0.8,0,1.4-0.6,1.4-1.4c0,0,0,0,0,0
				v-14.3c0-2.3,1.9-4.1,4.1-4.1h47.5c0.3,0,0.6,0,0.9,0.1v12.8c0,2.7,2.2,4.8,4.8,4.8h12.8c0.1,0.3,0.1,0.6,0.1,0.9v67.4
				c0,2.3-1.9,4.1-4.1,4.1h-18.8c1.7-2.5,1.3-5.8-0.8-8l-12.7-12.7c-0.9-0.9-2.2-1.2-3.4-0.8l-2.7-2.7c8.8-12.2,6-29.2-6.2-38
				c-12.2-8.8-29.2-6-38,6.2s-6,29.2,6.2,38c9.5,6.8,22.2,6.8,31.7,0l2.7,2.7c-0.4,1.2-0.1,2.5,0.8,3.4l11.8,11.8h-32.5
				c-2.3,0-4.1-1.9-4.1-4.1v-4.5c0-0.8-0.6-1.4-1.4-1.4c-0.8,0-1.4,0.6-1.4,1.4v4.5c0,3.8,3.1,6.9,6.9,6.9h62c3.8,0,6.9-3.1,6.9-6.9
				v-67.4C280.1-2263.6,279.4-2265.3,278.1-2266.7L278.1-2266.7z M195.3-2213.1c-9.5-9.5-9.5-25,0-34.5c9.5-9.5,25-9.5,34.5,0
				c8.7,8.7,9.6,22.7,1.9,32.4c-1.2,1.5-2.5,2.8-4,4C218-2203.5,204.1-2204.3,195.3-2213.1z M230.6-2210c0.8-0.7,1.6-1.5,2.3-2.3
				l2.3,2.3l-2.3,2.3L230.6-2210L230.6-2210L230.6-2210z M246.6-2191.3l-12.7-12.7c-0.2-0.2-0.2-0.5,0-0.7l0,0l0,0l4.3-4.3
				c0.2-0.2,0.5-0.2,0.7,0l12.7,12.7c1.4,1.4,1.4,3.6,0,5C250.2-2189.9,248-2189.9,246.6-2191.3L246.6-2191.3z M262.4-2267.5v-10.9
				l12.9,12.9h-10.9C263.3-2265.4,262.4-2266.3,262.4-2267.5z"/>
			
				<linearGradient id="Path_24079_00000079466871685776635230000017861908438423501212_" gradientUnits="userSpaceOnUse" x1="-370.9313" y1="-2006.0426" x2="-371.8693" y2="-2007.0426" gradientTransform="matrix(33.828 0 0 -11.399 12794.1768 -25141.0898)">
				<stop  offset="0" style="stop-color:#158467"/>
				<stop  offset="1" style="stop-color:#08297E"/>
			</linearGradient>
			<path id="Path_24079" style="fill:url(#Path_24079_00000079466871685776635230000017861908438423501212_);" d="M243.9-2274h-27.8
				c-1.7,0-3,1.4-3,3v5.4c0,1.7,1.4,3,3,3h27.8c1.7,0,3-1.4,3-3v-5.4C246.9-2272.7,245.5-2274,243.9-2274z M244.1-2265.7
				c0,0.1-0.1,0.2-0.2,0.2h-27.8c-0.1,0-0.2-0.1-0.2-0.2v-5.4c0-0.1,0.1-0.2,0.2-0.2h27.8c0.1,0,0.2,0.1,0.2,0.2V-2265.7z"/>
		</g>
		<path id="Path_24080" class="st6" d="M13942.8-1832c8.4-8.4,8.4-22.1,0-30.5c-8.4-8.4-22.1-8.4-30.5,0c-3.2,3.2-5.4,7.4-6.1,12
			c-0.1,0.8,0.4,1.5,1.2,1.6c0.8,0.1,1.5-0.4,1.6-1.2c1.6-10.3,11.2-17.3,21.4-15.7c10.3,1.6,17.3,11.2,15.7,21.4
			c-0.5,3.5-2.1,6.8-4.4,9.5c-0.6-1.3-1.7-2.3-3-2.9c-2-0.7-4.1-1.2-6.3-1.4l0-1.8c1.7-1.3,2.9-3.2,3.3-5.3c0.9-0.4,1.5-1.3,1.5-2.3
			c0-1.9,0-4.9,0-6.7c0-1.7-1.2-3.1-2.9-3.4c-0.3-1.6-1.7-2.8-3.4-2.8h-6.8c-3.5,0-6.3,2.8-6.3,6.3v6.6c0,1,0.6,1.9,1.5,2.3
			c0.3,2.1,1.4,3.9,3.1,5.2l0,1.9c-2.1,0.2-4.2,0.7-6.3,1.5c-1.2,0.6-2.2,1.5-2.8,2.7c-2.2-2.6-3.7-5.7-4.3-9.1
			c-0.1-0.8-0.9-1.3-1.6-1.1c-0.8,0.1-1.3,0.9-1.1,1.6c2.1,11.8,13.2,19.6,25,17.6C13935.7-1826.8,13939.7-1828.9,13942.8-1832
			L13942.8-1832z M13924.2-1858.7h6.8c0.3,0,0.6,0.3,0.6,0.6c0,1.2,0.9,2.1,2.1,2.1h0.1c0.3,0,0.6,0.3,0.6,0.6v0.8l-1.7-0.2
			c-1.7-0.2-3.3,0.2-4.8,1.1c-0.8,0.5-1.7,0.7-2.6,0.7h-4.6v-2.3C13920.7-1857.1,13922.2-1858.7,13924.2-1858.7L13924.2-1858.7z
			 M13920.7-1848.9v-1.2h4.6c1.4,0,2.8-0.4,4.1-1.1c0.9-0.6,2-0.8,3.1-0.7l2,0.2c0,0.9,0,2,0,2.9c-0.8,0.1-1.4,0.8-1.4,1.6
			c-0.2,3-2.8,5.3-5.8,5.1c-2.7-0.2-4.9-2.4-5.1-5.1C13922-1848.1,13921.4-1848.8,13920.7-1848.9L13920.7-1848.9z M13927.5-1839.4
			c0.7,0,1.4-0.1,2.1-0.3v0.8c0,0.4,0.1,0.7,0.2,1c-0.7,0.5-1.5,0.7-2.4,0.7h0c-0.8,0-1.7-0.2-2.4-0.7c0.1-0.3,0.2-0.7,0.2-1v-0.8
			C13926-1839.5,13926.8-1839.4,13927.5-1839.4L13927.5-1839.4z M13915.6-1832.9c0.2-1,0.9-1.9,1.8-2.3c1.6-0.6,3.4-1,5.1-1.2
			c1.3,1.3,3.1,2,5,2h0c1.9,0,3.7-0.7,5-2.1c1.7,0.2,3.5,0.6,5.1,1.2c1,0.4,1.8,1.4,1.9,2.5
			C13932.5-1827.1,13922.5-1827.1,13915.6-1832.9L13915.6-1832.9z"/>
	</g>
	<g class="st7">
		<path class="st8" d="M767.6,341.4h-5.4v4.1h4.8v1.9h-4.8v4.3h5.4v1.9h-7.7v-13.9h7.7V341.4z"/>
		<path class="st8" d="M786,347.3c0-2-1.1-3.1-2.8-3.1c-1.7,0-2.8,1-2.8,3.1v6.2h-2.3v-6.2c0-2-1.1-3.1-2.8-3.1
			c-1.7,0-2.8,1-2.8,3.1v6.2h-2.3v-11h2.3v1.3c0.7-0.9,1.9-1.4,3.3-1.4c1.7,0,3.2,0.7,4,2.2c0.7-1.3,2.2-2.2,3.8-2.2
			c2.6,0,4.5,1.6,4.5,4.7v6.5H786V347.3z"/>
		<path class="st8" d="M797.3,342.2c2.9,0,5.2,2.2,5.2,5.6c0,3.4-2.3,5.7-5.2,5.7c-1.8,0-3.1-0.9-3.8-1.8v6.8h-2.3v-16.3h2.3v1.6
			C794.1,343.1,795.5,342.2,797.3,342.2z M796.8,344.2c-1.7,0-3.3,1.3-3.3,3.7c0,2.4,1.6,3.7,3.3,3.7c1.7,0,3.4-1.4,3.4-3.8
			C800.1,345.5,798.5,344.2,796.8,344.2z"/>
		<path class="st8" d="M804.7,338.6h2.3v14.8h-2.3V338.6z"/>
		<path class="st8" d="M814.8,353.6c-3.1,0-5.5-2.2-5.5-5.7s2.5-5.7,5.6-5.7s5.6,2.2,5.6,5.7S817.9,353.6,814.8,353.6z M814.8,351.6
			c1.7,0,3.4-1.2,3.4-3.7s-1.6-3.7-3.3-3.7c-1.7,0-3.3,1.2-3.3,3.7S813,351.6,814.8,351.6z"/>
		<path class="st8" d="M830.3,342.4h2.4l-6.8,16.2h-2.4l2.2-5.4l-4.3-10.8h2.5l3.1,8.4L830.3,342.4z"/>
		<path class="st8" d="M850,347.3c0-2-1.1-3.1-2.8-3.1c-1.7,0-2.8,1-2.8,3.1v6.2h-2.3v-6.2c0-2-1.1-3.1-2.8-3.1
			c-1.7,0-2.8,1-2.8,3.1v6.2h-2.3v-11h2.3v1.3c0.7-0.9,1.9-1.4,3.3-1.4c1.7,0,3.2,0.7,4,2.2c0.7-1.3,2.2-2.2,3.8-2.2
			c2.6,0,4.5,1.6,4.5,4.7v6.5H850V347.3z"/>
		<path class="st8" d="M859.9,353.6c-3.2,0-5.5-2.2-5.5-5.7s2.2-5.7,5.5-5.7c3.1,0,5.4,2.2,5.4,5.4c0,0.4,0,0.7-0.1,1.1h-8.4
			c0.2,1.8,1.5,2.9,3.1,2.9c1.4,0,2.2-0.7,2.6-1.5h2.5C864.3,352.1,862.6,353.6,859.9,353.6z M856.8,346.9h6.1
			c0-1.7-1.4-2.8-3.1-2.8C858.2,344.2,857,345.2,856.8,346.9z"/>
		<path class="st8" d="M875.3,347.3c0-2-1.1-3.1-2.8-3.1c-1.7,0-2.8,1-2.8,3.1v6.2h-2.3v-11h2.3v1.3c0.7-0.9,2-1.4,3.3-1.4
			c2.6,0,4.5,1.6,4.5,4.7v6.5h-2.3V347.3z"/>
		<path class="st8" d="M880.8,344.3h-1.3v-1.9h1.3v-2.7h2.3v2.7h2.7v1.9h-2.7v6.1c0,0.8,0.3,1.2,1.3,1.2h1.4v1.9H884
			c-2,0-3.2-0.8-3.2-3.1V344.3z"/>
	</g>
</g>
<g>
	<defs>
		<rect id="SVGID_1_" x="281.6" y="62.5" width="26.8" height="22.7"/>
	</defs>
	<clipPath id="SVGID_00000104689860737869119400000001979978770736369808_">
		<use xlink:href="#SVGID_1_"  style="overflow:visible;"/>
	</clipPath>
	
		<g id="Group_12872" transform="translate(98.186 2347.673)" style="clip-path:url(#SVGID_00000104689860737869119400000001979978770736369808_);">
		<path id="Path_24246" class="st18" d="M203.8-2274.2v6.6c0,0-0.9,2.8-7,2.8s-7-2.8-7-2.8v-4.4"/>
		<path id="Path_24247" class="st18" d="M194.1-2266.9c-2.1-0.6-2.5-1.4-2.5-1.4v-1"/>
		<path id="Path_24248" class="st18" d="M200.1-2272.1l-3.3,1.9l-10.7-6.2l10.7-6.2l10.7,6.2l-3.7,2.2l-1.6,1"/>
		<path id="Path_24249" class="st18" d="M197.7-2275.9l4.3,2.6v4.3"/>
		<path id="Path_24250" class="st18" d="M198-2276.5c0,0.5-0.5,0.8-1.2,0.8s-1.2-0.4-1.2-0.8c0-0.5,0.5-0.8,1.2-0.8
			S198-2277,198-2276.5z"/>
	</g>
</g>
</svg>
