<svg xmlns="http://www.w3.org/2000/svg" width="67.685" height="67.685" viewBox="0 0 67.685 67.685">
  <g id="government" transform="translate(0)">
    <path id="Path_24175" data-name="Path 24175" d="M67.685,35.627a3.817,3.817,0,0,0-3.817-3.817h-9.08a3.815,3.815,0,0,0-2.375-5.525,18.617,18.617,0,0,0-17.579-17.7V7.255h6.473a.991.991,0,0,0,.991-.991V.991A.991.991,0,0,0,41.307,0H33.842a.991.991,0,0,0-.991.991v7.6a18.55,18.55,0,0,0-8.7,2.693.992.992,0,0,0,1.035,1.692A16.611,16.611,0,0,1,50.42,26.16H37.263l-1.826-1.039a3.237,3.237,0,0,0-3.189,0L30.422,26.16H17.265a16.465,16.465,0,0,1,4.97-10.886.991.991,0,0,0-1.386-1.418,18.434,18.434,0,0,0-5.577,12.429A3.815,3.815,0,0,0,12.9,31.81H3.816a3.817,3.817,0,0,0-.6,7.586v27.3a.991.991,0,0,0,.991.991H63.477a.991.991,0,0,0,.991-.991V39.4a3.822,3.822,0,0,0,3.216-3.769ZM40.315,5.272H34.834V1.983h5.481ZM51.442,28.143a1.834,1.834,0,0,1,0,3.667h-4.25l-6.444-3.667Zm-18.213-1.3h0a1.246,1.246,0,0,1,1.227,0l17.8,10.132A1.241,1.241,0,0,1,51.65,39.3H16.038a1.241,1.241,0,0,1-.614-2.319ZM14.409,29.977a1.836,1.836,0,0,1,1.834-1.834H26.938L20.493,31.81h-4.25a1.836,1.836,0,0,1-1.834-1.834ZM1.983,35.627a1.836,1.836,0,0,1,1.834-1.834H17.009l-2.565,1.46a3.189,3.189,0,0,0-1.58,2.207H3.816a1.834,1.834,0,0,1-1.834-1.834ZM5.2,63.119H9.218a.991.991,0,0,0,.991-.991V43.259a.991.991,0,0,0-.991-.991H5.2V39.443h7.928a3.16,3.16,0,0,0,1.918,1.682v20.64H14.83a.991.991,0,0,0-.991.991V65.7H5.2Zm0-1.983V44.251H8.227V61.136ZM15.822,65.7V63.748H51.863V65.7Zm9.545-3.936H21.311V46.907a2.028,2.028,0,0,1,4.055,0Zm10.5,0H31.815V46.907a2.027,2.027,0,0,1,4.055,0Zm10.5,0H42.318V46.907a2.027,2.027,0,0,1,4.055,0ZM53.846,65.7V62.757a.991.991,0,0,0-.991-.991h-.215V56.107a.991.991,0,0,0-1.983,0v5.659h-2.3V46.907a4.01,4.01,0,0,0-8.021,0V61.765H37.853V46.907a4.01,4.01,0,0,0-8.021,0V61.765H27.349V46.907a4.011,4.011,0,0,0-8.021,0V61.765h-2.3V41.278H50.656V52.141a.991.991,0,0,0,1.983,0V41.125a3.161,3.161,0,0,0,1.918-1.682h7.928v2.825H58.466a.991.991,0,0,0-.991.991V62.128a.991.991,0,0,0,.991.991h4.019V65.7Zm8.639-21.451V61.136H59.458V44.251Zm1.383-6.79H54.821a3.188,3.188,0,0,0-1.58-2.207l-2.565-1.46H63.868a1.834,1.834,0,1,1,0,3.667Z" transform="translate(0)" fill="#fff"/>
  </g>
</svg>
