<svg xmlns="http://www.w3.org/2000/svg" width="149.287" height="83.463" viewBox="0 0 149.287 83.463">
  <g id="Group_12832" data-name="Group 12832" transform="translate(-1524 443.1)">
    <rect id="Rectangle_8635" data-name="Rectangle 8635" width="121" height="55" transform="translate(1537 -430)" fill="#fff"/>
    <g id="Group_1546" data-name="Group 1546" transform="translate(1524 -443.1)">
      <g id="Group_1545" data-name="Group 1545">
        <g id="Group_1544" data-name="Group 1544">
          <path id="Path_24003" data-name="Path 24003" d="M100.448,912.927a41.732,41.732,0,1,0,41.766,41.7A41.723,41.723,0,0,0,100.448,912.927Zm21.6,44.617H90.4c.324,7.264,4.085,10.572,10.7,10.572,4.863,0,8.691-2.854,9.533-5.383H121.2c-3.372,9.857-10.571,14.072-20.494,14.072-13.748,0-22.374-9.014-22.374-21.985,0-12.514,9.016-22.048,22.374-22.048C115.625,932.706,122.823,944.639,122.045,957.544Zm-31.388-7.328h19.067c-1.169-6.03-3.956-8.623-9.34-8.623C93.122,941.656,90.786,947.038,90.657,950.216Z" transform="translate(-58.685 -912.927)" fill="#263b7f"/>
          <path id="Path_24004" data-name="Path 24004" d="M172.777,954.627a41.731,41.731,0,1,1-41.7-41.7A41.779,41.779,0,0,1,172.777,954.627Zm-37.289-19.52a14.547,14.547,0,0,0-12.127,6.225h-.26v-5.252H112.789v37.354h11.285V953.849c0-7.265,2.269-10.247,7.978-10.247,4.6,0,6.484,2.529,6.484,8.691V973.3H149.82V950.412C149.949,941.2,147.03,935.107,135.488,935.107Z" transform="translate(-23.489 -912.927)" fill="#1aaae0"/>
        </g>
      </g>
    </g>
  </g>
</svg>
