<svg xmlns="http://www.w3.org/2000/svg" width="69" height="69" viewBox="0 0 69 69">
  <g id="power-plant" transform="translate(-4.75 -4.75)">
    <g id="Group_12665" data-name="Group 12665">
      <path id="Path_24056" data-name="Path 24056" d="M34.211,10.75A4.518,4.518,0,0,0,29.7,15.263a1.019,1.019,0,1,0,2.038,0,2.477,2.477,0,0,1,2.475-2.475h6.632a1.019,1.019,0,1,0,0-2.038Z" transform="translate(-10.422 -2.506)" fill="#fff"/>
      <path id="Path_24057" data-name="Path 24057" d="M57.3,10.75H55.492a1.019,1.019,0,0,0,0,2.038H57.3a1.019,1.019,0,1,0,0-2.038Z" transform="translate(-20.771 -2.506)" fill="#fff"/>
      <path id="Path_24058" data-name="Path 24058" d="M48.983,6.788h5.6a1.019,1.019,0,1,0,0-2.038h-5.6a1.019,1.019,0,0,0,0,2.038Z" transform="translate(-18.051)" fill="#fff"/>
      <path id="Path_24059" data-name="Path 24059" d="M24.718,13.775a1.018,1.018,0,0,0,1.02-1.019,5.975,5.975,0,0,1,5.967-5.968H34.4a1.019,1.019,0,0,0,0-2.038h-2.69A8.015,8.015,0,0,0,23.7,12.756,1.018,1.018,0,0,0,24.718,13.775Z" transform="translate(-7.916)" fill="#fff"/>
      <path id="Path_24060" data-name="Path 24060" d="M79.736,10.75a4.518,4.518,0,0,0-4.513,4.513,1.019,1.019,0,0,0,2.038,0,2.477,2.477,0,0,1,2.475-2.475h3.073a1.019,1.019,0,0,0,0-2.038Z" transform="translate(-29.438 -2.506)" fill="#fff"/>
      <path id="Path_24061" data-name="Path 24061" d="M93.875,11.769a1.018,1.018,0,0,0,1.019,1.019h5.37a1.019,1.019,0,0,0,0-2.038h-5.37a1.018,1.018,0,0,0-1.019,1.019Z" transform="translate(-37.229 -2.506)" fill="#fff"/>
      <path id="Path_24062" data-name="Path 24062" d="M101.706,6.788h1.4a1.019,1.019,0,1,0,0-2.038h-1.4a1.019,1.019,0,0,0,0,2.038Z" transform="translate(-40.075)" fill="#fff"/>
    </g>
    <path id="Path_24063" data-name="Path 24063" d="M70.242,13.775a1.019,1.019,0,0,0,1.019-1.019,5.975,5.975,0,0,1,5.968-5.968h5.729a1.019,1.019,0,0,0,0-2.038H77.229a8.015,8.015,0,0,0-8.006,8.006,1.018,1.018,0,0,0,1.019,1.019Z" transform="translate(-26.932)" fill="#fff"/>
    <path id="Path_24064" data-name="Path 24064" d="M108.769,62.735a1.019,1.019,0,0,0-1.019,1.019v3.494a1.019,1.019,0,1,0,2.038,0V63.754A1.019,1.019,0,0,0,108.769,62.735Z" transform="translate(-43.025 -24.222)" fill="#fff"/>
    <path id="Path_24065" data-name="Path 24065" d="M72.731,75.609H70.256V39.449l2.6-.312a1.019,1.019,0,0,0-.243-2.023L51.855,39.608,51.3,27.883a1.017,1.017,0,0,0,.6-.928V23.461a1.02,1.02,0,0,0-1.019-1.019H39.234a1.019,1.019,0,0,0-1.019,1.019v3.494a1.017,1.017,0,0,0,.6.932l-.635,13.367L25.5,42.776,24.79,27.882a1.017,1.017,0,0,0,.6-.927V23.461a1.019,1.019,0,0,0-1.019-1.019H12.727a1.019,1.019,0,0,0-1.019,1.019v3.494a1.018,1.018,0,0,0,.608.932L10.457,66.875H9.682a1.019,1.019,0,0,0-1.018.97l-.373,7.764H5.769A1.018,1.018,0,0,0,4.75,76.628v3.494A1.018,1.018,0,0,0,5.769,81.14H72.731a1.018,1.018,0,0,0,1.019-1.019V76.628a1.018,1.018,0,0,0-1.019-1.019Zm-10.23,0V64.982a1.019,1.019,0,0,0-1.019-1.019H54.495a1.018,1.018,0,0,0-1.019,1.019V75.609H51.9V64.982a1.019,1.019,0,0,0-1.019-1.019H43.9a1.018,1.018,0,0,0-1.019,1.019V75.609H19.569V45.542l48.649-5.847V75.609Zm-2.038,0H55.514V66h4.949Zm-10.6,0H44.916V66h4.949ZM40.258,24.48h9.608v1.456H40.258Zm.6,3.494h8.4l.566,11.878L40.24,41ZM13.75,24.48h9.6v1.456H13.746Zm.606,3.494h8.4l.712,15.046-8.533,1.027a1.019,1.019,0,0,0,.121,2.03,1.093,1.093,0,0,0,.123-.007l2.354-.284V66.875H12.5Zm-3.7,40.939h6.878v6.7h-7.2ZM71.712,79.1H6.788V77.647H71.712Z" transform="translate(0 -7.39)" fill="#fff"/>
    <path id="Path_24066" data-name="Path 24066" d="M51.363,87.917H39.717a1.019,1.019,0,0,0,0,2.038H51.363a1.019,1.019,0,1,0,0-2.038Z" transform="translate(-14.181 -34.741)" fill="#fff"/>
    <path id="Path_24067" data-name="Path 24067" d="M51.363,75.917H39.717a1.019,1.019,0,0,0,0,2.038H51.363a1.019,1.019,0,1,0,0-2.038Z" transform="translate(-14.181 -29.728)" fill="#fff"/>
    <path id="Path_24068" data-name="Path 24068" d="M51.363,81.917H39.717a1.019,1.019,0,1,0,0,2.038H51.363a1.019,1.019,0,1,0,0-2.038Z" transform="translate(-14.181 -32.234)" fill="#fff"/>
    <path id="Path_24069" data-name="Path 24069" d="M77.741,78.917H74.247a1.018,1.018,0,0,0-1.019,1.019V83.43a1.018,1.018,0,0,0,1.019,1.019h3.494A1.019,1.019,0,0,0,78.76,83.43V79.936a1.019,1.019,0,0,0-1.019-1.019Zm-1.019,3.494H75.266V80.955h1.456Z" transform="translate(-28.605 -30.981)" fill="#fff"/>
    <path id="Path_24070" data-name="Path 24070" d="M95.944,78.917H92.45a1.018,1.018,0,0,0-1.019,1.019V83.43a1.018,1.018,0,0,0,1.019,1.019h3.494a1.019,1.019,0,0,0,1.019-1.019V79.936a1.019,1.019,0,0,0-1.019-1.019Zm-1.019,3.494H93.469V80.955h1.456Z" transform="translate(-36.209 -30.981)" fill="#fff"/>
  </g>
</svg>
