<svg xmlns="http://www.w3.org/2000/svg" width="68" height="68" viewBox="0 0 68 68">
  <g id="telecommunication" transform="translate(-1 -1)">
    <path id="Path_24046" data-name="Path 24046" d="M32.29,24a3.29,3.29,0,1,0,3.29,3.29A3.294,3.294,0,0,0,32.29,24Zm0,4.387a1.1,1.1,0,1,1,1.1-1.1A1.1,1.1,0,0,1,32.29,28.387Z" transform="translate(2.71 2.226)" fill="#fff"/>
    <path id="Path_24047" data-name="Path 24047" d="M13.065,25.129A12.065,12.065,0,1,0,1,13.065,12.079,12.079,0,0,0,13.065,25.129ZM6.377,20.3a7.636,7.636,0,0,1,13.374,0,9.813,9.813,0,0,1-13.374,0Zm3.4-9.433a3.29,3.29,0,1,1,3.29,3.29A3.294,3.294,0,0,1,9.774,10.871Zm3.29-7.677a9.866,9.866,0,0,1,8.194,15.368,9.865,9.865,0,0,0-4.507-3.66,5.483,5.483,0,1,0-7.375,0,9.852,9.852,0,0,0-4.507,3.66A9.866,9.866,0,0,1,13.065,3.194Z" transform="translate(0)" fill="#fff"/>
    <path id="Path_24048" data-name="Path 24048" d="M53.065,25.129A12.065,12.065,0,1,0,41,13.065,12.079,12.079,0,0,0,53.065,25.129ZM46.377,20.3a7.636,7.636,0,0,1,13.374,0,9.813,9.813,0,0,1-13.374,0Zm3.4-9.433a3.29,3.29,0,1,1,3.29,3.29A3.294,3.294,0,0,1,49.774,10.871Zm3.29-7.677a9.866,9.866,0,0,1,8.194,15.368,9.865,9.865,0,0,0-4.507-3.66,5.483,5.483,0,1,0-7.375,0,9.852,9.852,0,0,0-4.507,3.66A9.866,9.866,0,0,1,53.065,3.194Z" transform="translate(3.871)" fill="#fff"/>
    <path id="Path_24049" data-name="Path 24049" d="M56.935,44.871a12.077,12.077,0,0,0-11.4,8.137,70.749,70.749,0,0,1-3.773-18.433L49.258,36.4V22.637L41.581,24.5V17.452H39.387V10.871H36.1V7.379a3.29,3.29,0,1,0-2.194,0v3.492h-3.29v6.581H28.419V24.5l-7.677-1.866V36.4l7.491-1.821A70.82,70.82,0,0,1,24.46,53.009,12.059,12.059,0,1,0,13.065,69H56.935a12.065,12.065,0,1,0,0-24.129ZM35,3.194a1.1,1.1,0,1,1-1.1,1.1A1.1,1.1,0,0,1,35,3.194Zm-.015,63.613-9.107-5.312L35,56.021l9.123,5.474-9.107,5.312Zm10.184-7.243-8.036-4.821L42.694,51.4q.966,3.1,2.208,6.131A11.969,11.969,0,0,0,45.168,59.563ZM35,53.463,27.943,49.23c.233-.837.444-1.679.646-2.523L35,42.859l6.411,3.846c.2.845.413,1.686.646,2.523Zm2.132-11.882L40.1,39.8c.185,1.328.416,2.649.673,3.963ZM35,37.194a7.631,7.631,0,0,0,4.64-1.575c.048.6.11,1.2.173,1.8L35,40.3l-4.814-2.889c.064-.6.124-1.2.173-1.8A7.623,7.623,0,0,0,35,37.194Zm5.484-7.677A5.484,5.484,0,1,1,35,24.032,5.49,5.49,0,0,1,40.484,29.516ZM29.9,39.8l2.966,1.78-3.639,2.184c.258-1.315.488-2.634.673-3.964Zm2.966,14.941-8.036,4.821a11.983,11.983,0,0,0,.267-2.028q1.244-3.024,2.208-6.13ZM47.065,33.6,42.11,32.4a7.62,7.62,0,0,0,0-5.769l4.954-1.2ZM32.806,13.065h4.387v4.387H32.806Zm6.581,6.581v3.58a7.635,7.635,0,0,0-8.774,0v-3.58ZM22.935,25.427l4.954,1.2a7.62,7.62,0,0,0,0,5.769l-4.954,1.2ZM13.065,47.065a9.866,9.866,0,0,1,8.194,15.368,9.865,9.865,0,0,0-4.507-3.66,5.483,5.483,0,1,0-7.375,0,9.852,9.852,0,0,0-4.507,3.66,9.866,9.866,0,0,1,8.194-15.369Zm-3.29,7.677a3.29,3.29,0,1,1,3.29,3.29A3.294,3.294,0,0,1,9.774,54.742Zm-3.4,9.433a7.636,7.636,0,0,1,13.374,0,9.813,9.813,0,0,1-13.374,0Zm17.263-1.444,6.988,4.076H19.98A12.145,12.145,0,0,0,23.641,62.731Zm15.731,4.076,6.988-4.076a12.145,12.145,0,0,0,3.661,4.076Zm10.877-2.631a7.636,7.636,0,0,1,13.374,0,9.813,9.813,0,0,1-13.374,0Zm3.4-9.433a3.29,3.29,0,1,1,3.29,3.29A3.294,3.294,0,0,1,53.645,54.742Zm11.484,7.691a9.865,9.865,0,0,0-4.507-3.66,5.483,5.483,0,1,0-7.375,0,9.852,9.852,0,0,0-4.507,3.66,9.871,9.871,0,1,1,16.388,0Z" fill="#fff"/>
  </g>
</svg>
