<svg xmlns="http://www.w3.org/2000/svg" width="66.761" height="66.761" viewBox="0 0 66.761 66.761">
  <g id="world-financial" transform="translate(0 -0.001)">
    <path id="Path_24176" data-name="Path 24176" d="M405.5,37.208a4.368,4.368,0,0,0,2.074.8v.452a.978.978,0,1,0,1.956,0V37.91a3.664,3.664,0,0,0,2.588-2.895,3.23,3.23,0,0,0-2.2-3.655,9.526,9.526,0,0,1-2.421-1.125.817.817,0,0,1-.188-.777,1.114,1.114,0,0,1,.734-.878,1.964,1.964,0,0,1,1.8.285.978.978,0,1,0,1.251-1.5,3.843,3.843,0,0,0-1.574-.745v-.4a.978.978,0,0,0-1.956,0v.466l-.09.025a3.049,3.049,0,0,0-2.092,2.389,2.72,2.72,0,0,0,.9,2.678,10.363,10.363,0,0,0,2.976,1.43,1.268,1.268,0,0,1,.918,1.487,1.657,1.657,0,0,1-1.644,1.4,2.752,2.752,0,0,1-1.975-.518.978.978,0,0,0-1.071,1.637Z" transform="translate(-352.242 -21.946)" fill="#fff"/>
    <path id="Path_24177" data-name="Path 24177" d="M56.372,45.983a10.323,10.323,0,0,0-5,1.288L48.6,44.5a18.86,18.86,0,0,0,1.257-1.956.978.978,0,1,0-1.709-.952,16.89,16.89,0,0,1-1.958,2.8,18.8,18.8,0,0,0-4.339-3.023,35.864,35.864,0,0,0,.838-7.012h7.556a16.9,16.9,0,0,1-.667,3.845.978.978,0,0,0,1.875.556A18.857,18.857,0,0,0,48.572,22.24l2.766-2.766a10.393,10.393,0,1,0-4.12-4.177l-2.81,2.81a18.805,18.805,0,0,0-22.141.064L19.49,15.395a10.382,10.382,0,0,0,1.087-7.038.978.978,0,1,0-1.917.386,8.436,8.436,0,1,1-1.372-3.2.978.978,0,1,0,1.6-1.125,10.391,10.391,0,1,0-3.56,15.114l2.8,2.8a18.805,18.805,0,0,0-.02,22.081L15.3,47.218a10.4,10.4,0,1,0,4.177,4.121l2.766-2.766a18.817,18.817,0,0,0,22.2.067l2.8,2.8a10.388,10.388,0,1,0,9.139-5.453ZM44.825,45.8a16.938,16.938,0,0,1-6.608,3.762,17.967,17.967,0,0,0,3.121-6.25A16.866,16.866,0,0,1,44.825,45.8ZM33.381,27.3A18.857,18.857,0,0,0,40,26.115a34.206,34.206,0,0,1,.725,6.289h-14.7a34.216,34.216,0,0,1,.725-6.289,18.858,18.858,0,0,0,6.623,1.19Zm-6.139-3.1a21.4,21.4,0,0,1,1.128-3.037C29.754,18.2,31.581,16.5,33.381,16.5s3.626,1.7,5.011,4.667a21.4,21.4,0,0,1,1.128,3.037,17.053,17.053,0,0,1-12.279,0Zm14.589,1.111a18.8,18.8,0,0,0,4.311-2.989,16.82,16.82,0,0,1,4.1,10.077H42.686a35.81,35.81,0,0,0-.855-7.087Zm-.514-1.937a17.886,17.886,0,0,0-3.1-6.183,16.891,16.891,0,0,1,6.564,3.729A16.871,16.871,0,0,1,41.316,23.379Zm-15.871,0a16.871,16.871,0,0,1-3.46-2.454A16.892,16.892,0,0,1,28.549,17.2,17.886,17.886,0,0,0,25.445,23.379Zm-4.826-1.052a18.8,18.8,0,0,0,4.311,2.989,35.81,35.81,0,0,0-.855,7.087H16.518A16.821,16.821,0,0,1,20.619,22.327ZM24.076,34.36a35.864,35.864,0,0,0,.838,7.012A18.8,18.8,0,0,0,20.58,44.39a16.818,16.818,0,0,1-4.061-10.03Zm1.347,8.953a17.954,17.954,0,0,0,3.126,6.255A16.892,16.892,0,0,1,21.94,45.8a16.866,16.866,0,0,1,3.483-2.484Zm1.8-.829a17.058,17.058,0,0,1,12.323,0,21.479,21.479,0,0,1-1.15,3.112c-1.385,2.966-3.211,4.667-5.011,4.667s-3.626-1.7-5.011-4.667a21.494,21.494,0,0,1-1.15-3.112Zm12.8-1.912a19.035,19.035,0,0,0-13.278,0,34.27,34.27,0,0,1-.709-6.212h14.7A34.257,34.257,0,0,1,40.02,40.571ZM56.372,1.957a8.433,8.433,0,1,1-8.433,8.433A8.443,8.443,0,0,1,56.372,1.957Zm-8.046,15A10.478,10.478,0,0,0,49.7,18.346l-2.372,2.372a19.05,19.05,0,0,0-1.388-1.377ZM16.98,18.416a10.485,10.485,0,0,0,1.387-1.378l2.375,2.375A19,19,0,0,0,19.363,20.8Zm-6.591,46.39a8.433,8.433,0,1,1,8.433-8.433A8.443,8.443,0,0,1,10.389,64.806Zm7.956-15.1a10.479,10.479,0,0,0-1.392-1.374L19.34,45.94a19.016,19.016,0,0,0,1.377,1.389Zm27.623-2.3a18.88,18.88,0,0,0,1.386-1.38l2.37,2.37a10.487,10.487,0,0,0-1.379,1.388Zm10.4,17.4a8.433,8.433,0,1,1,8.433-8.433A8.443,8.443,0,0,1,56.372,64.806Z" transform="translate(0 0)" fill="#fff"/>
    <path id="Path_24178" data-name="Path 24178" d="M409.925,384a9.528,9.528,0,0,1-2.421-1.125.817.817,0,0,1-.188-.777,1.114,1.114,0,0,1,.734-.878,1.964,1.964,0,0,1,1.8.285.978.978,0,1,0,1.251-1.5,3.843,3.843,0,0,0-1.574-.745v-.4a.978.978,0,1,0-1.956,0v.466l-.09.025a3.049,3.049,0,0,0-2.092,2.389,2.72,2.72,0,0,0,.9,2.678,10.363,10.363,0,0,0,2.976,1.43,1.268,1.268,0,0,1,.918,1.487,1.657,1.657,0,0,1-1.644,1.4,2.752,2.752,0,0,1-1.975-.518.978.978,0,1,0-1.071,1.637,4.366,4.366,0,0,0,2.074.8v.452a.978.978,0,0,0,1.956,0v-.548a3.664,3.664,0,0,0,2.588-2.895A3.23,3.23,0,0,0,409.925,384Z" transform="translate(-352.241 -328.606)" fill="#fff"/>
    <path id="Path_24179" data-name="Path 24179" d="M55.909,39.436a.978.978,0,0,0,.978-.978V37.91a3.664,3.664,0,0,0,2.588-2.895,3.23,3.23,0,0,0-2.2-3.655,9.527,9.527,0,0,1-2.421-1.125.817.817,0,0,1-.188-.777,1.114,1.114,0,0,1,.734-.878,1.967,1.967,0,0,1,1.8.285.978.978,0,1,0,1.251-1.5,3.842,3.842,0,0,0-1.574-.745v-.4a.978.978,0,0,0-1.956,0v.466l-.09.025A3.049,3.049,0,0,0,52.75,29.1a2.72,2.72,0,0,0,.9,2.678,10.364,10.364,0,0,0,2.976,1.43,1.268,1.268,0,0,1,.918,1.487,1.657,1.657,0,0,1-1.644,1.4,2.75,2.75,0,0,1-1.975-.518.978.978,0,1,0-1.071,1.637,4.366,4.366,0,0,0,2.074.8v.452a.978.978,0,0,0,.978.978Z" transform="translate(-45.58 -21.946)" fill="#fff"/>
    <path id="Path_24180" data-name="Path 24180" d="M57.279,384a9.526,9.526,0,0,1-2.421-1.125.817.817,0,0,1-.188-.777,1.114,1.114,0,0,1,.734-.878,1.966,1.966,0,0,1,1.8.285A.978.978,0,1,0,58.46,380a3.842,3.842,0,0,0-1.574-.745v-.4a.978.978,0,1,0-1.956,0v.466l-.09.025a3.049,3.049,0,0,0-2.092,2.389,2.72,2.72,0,0,0,.9,2.678,10.364,10.364,0,0,0,2.976,1.43,1.268,1.268,0,0,1,.918,1.487,1.657,1.657,0,0,1-1.644,1.4,2.748,2.748,0,0,1-1.975-.518.978.978,0,1,0-1.071,1.637,4.368,4.368,0,0,0,2.074.8v.452a.978.978,0,1,0,1.956,0v-.548a3.664,3.664,0,0,0,2.588-2.895A3.23,3.23,0,0,0,57.279,384Z" transform="translate(-45.579 -328.605)" fill="#fff"/>
    <path id="Path_24181" data-name="Path 24181" d="M178.428,47.233a25.835,25.835,0,0,1,17.935,0,.978.978,0,0,0,.682-1.833,27.79,27.79,0,0,0-19.3,0,.978.978,0,0,0,.682,1.833Z" transform="translate(-154.015 -37.976)" fill="#fff"/>
    <path id="Path_24182" data-name="Path 24182" d="M196.363,440.6a25.835,25.835,0,0,1-17.935,0,.978.978,0,0,0-.682,1.833,27.791,27.791,0,0,0,19.3,0,.978.978,0,0,0-.682-1.833Z" transform="translate(-154.015 -383.095)" fill="#fff"/>
    <path id="Path_24183" data-name="Path 24183" d="M441.175,197.622a.977.977,0,0,0,1.258-.576,27.79,27.79,0,0,0,0-19.3.978.978,0,0,0-1.833.682,25.836,25.836,0,0,1,0,17.936A.978.978,0,0,0,441.175,197.622Z" transform="translate(-383.094 -154.015)" fill="#fff"/>
    <path id="Path_24184" data-name="Path 24184" d="M46.656,177.171a.978.978,0,0,0-1.258.576,27.791,27.791,0,0,0,0,19.3.978.978,0,1,0,1.833-.682,25.836,25.836,0,0,1,0-17.936A.978.978,0,0,0,46.656,177.171Z" transform="translate(-37.975 -154.014)" fill="#fff"/>
  </g>
</svg>
